<svg width="17" height="18" id="arrow" data-name="arrow" xmlns="http://www.w3.org/2000/svg" viewBox="0 0 16.5047 17.8798"><defs><style>.cls-1{fill:#ffffff;fill-rule:evenodd;}</style></defs><title>arrow</title><path class="cls-1" d="M7.2414,17.3423a1.886,1.886,0,0,1,0-2.5906l3.7994-3.9582H2.2573a1.8334,1.8334,0,0,1,0-3.664h8.8266L7.2414,3.1267a1.886,1.886,0,0,1,0-2.5906,1.709,1.709,0,0,1,2.4872,0l6.4777,6.7475a1.8325,1.8325,0,0,1,.2864.3923,1.8824,1.8824,0,0,1-.0641,2.6361,1.838,1.838,0,0,1-.2223.2828L9.7286,17.3423A1.709,1.709,0,0,1,7.2414,17.3423Z" transform="translate(-0.4952 0.0007)"/></svg>