<svg id="beauty" width="98" height="73" xmlns="http://www.w3.org/2000/svg" viewBox="0 0 96.5396 72.7846"><defs><style>.cls-1{fill:#29295f;fill-rule:evenodd;}</style></defs><title>beauty</title><path class="cls-1" d="M97.1717,73H.6321V.2151H3.07V.5506H97.1717ZM3.0846,67.067H5.0787a6.9435,6.9435,0,0,1-1.9861-1.73ZM84.27,61.0814a5.0384,5.0384,0,1,0,5.0384-5.0527A5.052,5.052,0,0,0,84.27,61.0814Zm1.6015-5.9836H79.2773a6.9262,6.9262,0,0,1,3.2975,4.5294A6.9221,6.9221,0,0,1,85.8717,55.0978Zm-3.2969,7.4383a6.93,6.93,0,0,1-3.2981,4.5309h6.5956A6.9254,6.9254,0,0,1,82.5748,62.5361Zm-1.6943-1.4547a5.0384,5.0384,0,1,0-5.0384,5.0565A5.0515,5.0515,0,0,0,80.8805,61.0814Zm-8.4737-5.9836H65.8137a6.9253,6.9253,0,0,1,3.295,4.5286A6.9257,6.9257,0,0,1,72.4068,55.0978Zm-3.2981,7.439a6.9288,6.9288,0,0,1-3.2957,4.53h6.5945A6.9278,6.9278,0,0,1,69.1087,62.5368ZM67.414,61.0814a5.0384,5.0384,0,1,0-5.0347,5.0565A5.0507,5.0507,0,0,0,67.414,61.0814Zm-8.4725-5.9836H52.348a6.8941,6.8941,0,0,1,1.08.7736l.0068.0058a6.9479,6.9479,0,0,1,.8971.9479l.0245.0312a6.906,6.906,0,0,1,.4824.71l.0242.0424q.0932.1591.1776.3247c.0118.0228.0236.0455.0351.0687a6.8341,6.8341,0,0,1,.3279.7709c.01.0289.0194.0574.0293.0864q.0531.1561.0988.3158c.01.0347.02.069.0293.1037.0305.1126.0575.2268.0825.3417A6.9233,6.9233,0,0,1,58.9415,55.0978Zm-3.2976,7.4448c-.025.1153-.052.23-.0825.3425-.0093.0347-.02.069-.0294.1037q-.0456.159-.0988.3158c-.01.0286-.0191.0575-.0292.0864a6.8845,6.8845,0,0,1-.328.7709c-.0115.0232-.0234.0459-.0351.0687q-.0847.1655-.1778.3251l-.0241.0424a6.9345,6.9345,0,0,1-.4825.71l-.0245.0312a6.9316,6.9316,0,0,1-.8972.9479l-.0068.0066a6.9294,6.9294,0,0,1-1.0807.7736h6.5949A6.9272,6.9272,0,0,1,55.6439,62.5426Zm-1.6927-1.4612a5.0384,5.0384,0,1,0-5.0384,5.0565A5.0539,5.0539,0,0,0,53.9512,61.0814Zm-8.4754-5.9836H38.8815a6.9255,6.9255,0,0,1,3.2978,4.5282,6.8569,6.8569,0,0,1,.3158-1.0513l.0012-.003q.0656-.1678.1394-.3317l.0011-.0023A6.9365,6.9365,0,0,1,45.4758,55.0978Zm.0007,11.9692a6.94,6.94,0,0,1-2.84-3.1411l-.0011-.0023q-.074-.1636-.14-.3317l-.0012-.0034a6.87,6.87,0,0,1-.3158-1.0513,6.9286,6.9286,0,0,1-3.2985,4.53Zm-4.9918-5.9856a5.0384,5.0384,0,1,0-5.0384,5.0565A5.0537,5.0537,0,0,0,40.4847,61.0814Zm-8.4754-5.9836H25.415a6.9258,6.9258,0,0,1,3.2982,4.5286A6.9239,6.9239,0,0,1,32.0093,55.0978Zm-3.2961,7.439a6.9282,6.9282,0,0,1-3.2988,4.53H32.01A6.927,6.927,0,0,1,28.7132,62.5368Zm-1.695-1.4554A5.0384,5.0384,0,1,0,21.98,66.1379,5.0537,5.0537,0,0,0,27.0182,61.0814Zm-8.4753-5.9836H11.9494A6.9264,6.9264,0,0,1,15.2485,59.62,6.9235,6.9235,0,0,1,18.5429,55.0978Zm-3.2944,7.4448a6.93,6.93,0,0,1-3.3,4.5244h6.5947A6.9262,6.9262,0,0,1,15.2485,62.5426Zm-1.6931-1.4612a5.04,5.04,0,1,0-5.0421,5.0565A5.0547,5.0547,0,0,0,13.5554,61.0814ZM3.1323,56.7757A6.9418,6.9418,0,0,1,5.078,55.0978H3.14Zm.0316-6.8077h8.4469V21.7926H3.2759ZM84.27,11.5376A5.0384,5.0384,0,1,0,89.3086,6.483,5.0512,5.0512,0,0,0,84.27,11.5376Zm.3472-5.0546H80.5316a6.9155,6.9155,0,0,1,2.044,3.5965A6.91,6.91,0,0,1,84.6174,6.483Zm-2.0418,6.5127a6.91,6.91,0,0,1-2.0443,3.5961h4.0864A6.9041,6.9041,0,0,1,82.5756,12.9957Zm1.7857,5.5212H75.8167v1.4246h8.5446Zm-8.5192-1.9251a5.0544,5.0544,0,1,0-5.0384-5.0542A5.0515,5.0515,0,0,0,75.8421,16.5918ZM57.3372,11.5376A5.0384,5.0384,0,1,0,62.3793,6.483,5.0523,5.0523,0,0,0,57.3372,11.5376Zm.3493-5.0546H53.6024a6.8614,6.8614,0,0,1,.4779.4928l.01.0116q.2211.2527.4173.5264l.0168.0239q.1909.2683.3563.5557l.02.0351q.1609.2835.2953.5827l.02.0448q.1311.2973.2343.61l.0164.0485q.1014.3141.1728.6406l.0046.02A6.909,6.909,0,0,1,57.6865,6.483Zm7.7391,12.0339v1.4246h8.541V18.5169Zm5.727-1.9251a6.907,6.907,0,0,1-2.0432-3.5953,6.9108,6.9108,0,0,1-2.0424,3.5953Zm-2.0432-6.5131A6.9122,6.9122,0,0,1,71.1523,6.483h-4.085A6.9159,6.9159,0,0,1,69.1094,10.0787Zm4.8572,11.7139h-8.541V33.4571a2.6088,2.6088,0,0,1,1.6729,2.28l.0106.0567.0206.1076a2.6136,2.6136,0,0,1-2.6089,2.6181H64.51c.046,0,.0908-.0046.1362-.0077h0c-.0454.0031-.09.0077-.1362.0077l-.0052,0-.0057,0a2.6168,2.6168,0,0,1-.9231-5.0623V21.7926H55.0313V49.968H73.9666ZM63.576,19.9415V18.5169H55.0313v1.4246Zm-5.8892-3.35A6.9042,6.9042,0,0,1,55.6442,13l-.0047.0205q-.0714.3263-.1727.6405L55.45,13.71q-.1033.3119-.2344.61l-.02.0444q-.1343.3-.2952.5827l-.02.0351q-.1651.2874-.3562.5557l-.0169.0239q-.196.2736-.4172.526l-.01.0116a6.8614,6.8614,0,0,1-.4779.4928Zm-3.7356-5.0542a5.0384,5.0384,0,1,0-5.0384,5.0542A5.0527,5.0527,0,0,0,53.9512,11.5376ZM42.1788,10.08c.0027-.0124.0069-.0247.01-.0378q.05-.2256.1141-.4454l.0149-.0529q.0708-.2347.1579-.4623l.0219-.056a6.8786,6.8786,0,0,1,.4257-.895l.0241-.0421a6.947,6.947,0,0,1,.5613-.8291l.0172-.022a6.9379,6.9379,0,0,1,.696-.7539H40.1359A6.9131,6.9131,0,0,1,42.1788,10.08Zm0,2.9162a6.9064,6.9064,0,0,1-2.0432,3.5961H44.222a6.9028,6.9028,0,0,1-.6962-.7539l-.0172-.022a6.9278,6.9278,0,0,1-.5614-.8284l-.0242-.0424a6.9008,6.9008,0,0,1-.4256-.8943l-.022-.0563q-.0867-.2272-.1578-.4628c-.0053-.0173-.01-.0354-.015-.0528q-.0642-.2191-.114-.4454C42.1857,13.0208,42.1815,13.0088,42.1788,12.9957Zm2.4577,5.5212v1.4246h8.5451V18.5169Zm8.5451,3.2757H44.6365V33.4563a2.617,2.617,0,0,1-.9227,5.0627h-.0169c-.0455,0-.09-.005-.1348-.0081h0c.0449.0031.0893.0078.1348.0081-.0456,0-.09-.005-.135-.0081-.0409-.0023-.0821-.0027-.1224-.0065h0c-.0453-.005-.0894-.0135-.134-.02l-.003,0c-.0405-.0066-.0815-.0116-.1212-.02h0c-.0428-.0089-.0841-.0212-.1261-.0328l-.0132-.0031c-.0363-.01-.0734-.0173-.1091-.0289l-.0009,0c-.0408-.0127-.08-.0289-.12-.0439-.0121-.0047-.0246-.0085-.0367-.0135-.0267-.01-.0541-.0189-.08-.03l-.0021-.0012c-.0392-.017-.0764-.0366-.1146-.0555-.0269-.0131-.0546-.0251-.0811-.0394l-.0277-.0131L42.466,38.2a2.5867,2.5867,0,0,1-.258-.1635c-.0271-.0189-.0529-.04-.0792-.06q-.0836-.0648-.1617-.1353c-.0274-.0251-.0552-.0486-.0816-.0748a2.605,2.605,0,0,1-.1893-.2064c-.0277-.0335-.0518-.07-.0778-.1049-.0326-.0439-.0646-.0883-.0944-.1346s-.0567-.091-.0832-.138c-.0212-.0378-.0406-.0768-.06-.1157a2.5788,2.5788,0,0,1-.21-.5881c-.0069-.03-.0136-.0613-.0194-.0918-.0129-.0683-.024-.1369-.0314-.2071-.0023-.022-.0028-.0439-.0046-.0659-.0057-.071-.0148-.1408-.0148-.2133a2.6172,2.6172,0,0,1,1.6861-2.4461V21.7926H34.2459V49.968H53.1816ZM42.7872,19.9415V18.5169H34.2459v1.4246Zm-7.3409-3.35a5.0544,5.0544,0,1,0-5.0384-5.0542A5.0537,5.0537,0,0,0,35.4463,16.5918ZM16.9414,11.5376A5.0384,5.0384,0,1,0,21.98,6.483,5.0515,5.0515,0,0,0,16.9414,11.5376Zm.3473-5.0546H13.2046a6.9115,6.9115,0,0,1,2.0433,3.59A6.9126,6.9126,0,0,1,17.2887,6.483Zm6.5628,12.0339v1.4246h8.5447V18.5169Zm6.9039-1.9251a6.9084,6.9084,0,0,1-2.0429-3.5957,6.9068,6.9068,0,0,1-2.0433,3.5957Zm-2.0429-6.5127A6.9129,6.9129,0,0,1,30.7551,6.483H26.67A6.9113,6.9113,0,0,1,28.7125,10.0791Zm3.6837,11.7135H23.8515V33.4567a2.6168,2.6168,0,0,1-.9232,5.0623l-.0056,0-.0052,0h-.0112a2.6181,2.6181,0,0,1-.9049-5.0727V21.7926H13.4605V49.968H32.3962ZM22.0014,19.9415V18.5169H13.4605v1.4246Zm-4.7124-3.35a6.9085,6.9085,0,0,1-2.0411-3.59,6.9074,6.9074,0,0,1-2.0436,3.59Zm-3.7336-5.0542a5.04,5.04,0,1,0-5.0421,5.0542A5.0535,5.0535,0,0,0,13.5554,11.5376ZM3.8237,6.483H3.3654v.4705Q3.5834,6.7071,3.8237,6.483Zm-.4583,9.6383v.47H3.824Q3.5839,16.368,3.3654,16.1213Zm-.0809,3.82h8.3263V18.5169h-8.32ZM94.7557,3.2339H3.3619L3.3554,4.6277h91.4Zm0,3.2491h-.7575a6.9072,6.9072,0,0,1,.7575.8326Zm0,9.2766a6.9586,6.9586,0,0,1-.7578.8322h.7578Zm0,2.7573H86.2111v1.4246h8.5446Zm0,3.2757H86.2111V33.4571A2.6094,2.6094,0,0,1,87.8889,35.8l.0045-.0278c.0026-.0212.0049-.0428.0068-.0644l.0365.1936a2.6134,2.6134,0,0,1-2.6085,2.6181h-.022c.0464,0,.0916-.005.1374-.0084h0c-.0458.0034-.091.0081-.1374.0084l-.01,0-.0118,0a2.617,2.617,0,0,1-.9229-5.0627V21.7926H75.8167V49.968h18.939Zm0,30.0307H75.2248a.8908.8908,0,0,1-.6631,0H54.4377a.9279.9279,0,0,1-.3333.064.9132.9132,0,0,1-.33-.064H33.6526a.9129.9129,0,0,1-.33.064.9227.9227,0,0,1-.3318-.064H12.869a.8913.8913,0,0,1-.6633,0h-9.05l-.0066,1.4211h91.607Zm0,3.2745H92.7438A6.9322,6.9322,0,0,1,94.7557,56.86Zm0,10.2056a6.945,6.945,0,0,1-2.0126,1.7636h2.0126Zm0,3.6189H3.0761L3.07,70.34H94.7557Z" transform="translate(-0.6321 -0.2151)"/></svg>