<svg id="beauty" width="87" height="87" xmlns="http://www.w3.org/2000/svg" viewBox="0 0 85.198 85.3004"><defs><style>.cls-1{fill:#29295f;}</style></defs><title>beauty2</title><path class="cls-1" d="M43.385,39.2138A4.6464,4.6464,0,1,0,48.0324,43.86,4.652,4.652,0,0,0,43.385,39.2138Zm0,6.7616A2.1154,2.1154,0,1,1,45.5011,43.86,2.118,2.118,0,0,1,43.385,45.9754Z" transform="translate(-0.9055 -0.8864)"/><path class="cls-1" d="M43.385,32.9743A10.8861,10.8861,0,1,0,54.2733,43.86,10.8995,10.8995,0,0,0,43.385,32.9743Zm0,19.241A8.3554,8.3554,0,1,1,51.7419,43.86,8.3654,8.3654,0,0,1,43.385,52.2153Z" transform="translate(-0.9055 -0.8864)"/><path class="cls-1" d="M43.385,26.8353A17.0247,17.0247,0,1,0,60.4131,43.86,17.046,17.046,0,0,0,43.385,26.8353Zm0,31.5186A14.4936,14.4936,0,1,1,57.8816,43.86,14.5115,14.5115,0,0,1,43.385,58.3539Z" transform="translate(-0.9055 -0.8864)"/><path class="cls-1" d="M43.385,20.7447A23.1153,23.1153,0,1,0,66.5048,43.86,23.1437,23.1437,0,0,0,43.385,20.7447Zm0,43.7A20.5844,20.5844,0,1,1,63.9734,43.86,20.61,20.61,0,0,1,43.385,64.4445Z" transform="translate(-0.9055 -0.8864)"/><path class="cls-1" d="M43.385,14.5558A29.3044,29.3044,0,1,0,72.6954,43.86,29.34,29.34,0,0,0,43.385,14.5558Zm0,56.078A26.7735,26.7735,0,1,1,70.1638,43.86,26.8065,26.8065,0,0,1,43.385,70.6338Z" transform="translate(-0.9055 -0.8864)"/><path class="cls-1" d="M43.385,9.158A34.7022,34.7022,0,1,0,78.094,43.86,34.7449,34.7449,0,0,0,43.385,9.158Zm0,66.8732A32.1712,32.1712,0,1,1,75.5625,43.86,32.2105,32.2105,0,0,1,43.385,76.0312Z" transform="translate(-0.9055 -0.8864)"/><path class="cls-1" d="M85.1785,45.6737a6.4119,6.4119,0,0,1-.6741-1.8133,41.4854,41.4854,0,0,0-.6285-7.1988,4.1257,4.1257,0,0,1,.1493-1.72,5.4088,5.4088,0,0,0,.0148-3.1035c-.1854-.57-.3717-1.1784-.569-1.8229a35.1591,35.1591,0,0,0-2.6523-6.9243,8.3314,8.3314,0,0,0-2.7117-2.42,8.1644,8.1644,0,0,1-1.7435-1.37,11.7093,11.7093,0,0,1-.9985-2.421,10.5676,10.5676,0,0,0-1.7518-3.6846,41.5854,41.5854,0,0,0-4.075-3.7575,6.3519,6.3519,0,0,0-3.9891-1.18,5.4888,5.4888,0,0,1-2.4285-.4721,41.0015,41.0015,0,0,0-6.3458-2.8071A11.0347,11.0347,0,0,1,54.519,3.6064,10.4814,10.4814,0,0,0,50.76,1.6157a41.4775,41.4775,0,0,0-7.75-.7293A13.1882,13.1882,0,0,0,37.39,2.54a16.3664,16.3664,0,0,1-3.1731,1.2349,10.807,10.807,0,0,1-2.76.0637,10.0523,10.0523,0,0,0-4.3089.3769,41.0681,41.0681,0,0,0-5.53,2.7373,8.04,8.04,0,0,0-2.5351,2.9361,7.6942,7.6942,0,0,1-1.4182,1.8936A11.0325,11.0325,0,0,1,14.98,13.1613a10.104,10.104,0,0,0-4.0959,2.5073,41.3629,41.3629,0,0,0-3.9251,5.3993,15.4937,15.4937,0,0,0-1.592,5.58,20.298,20.298,0,0,1-.7309,3.4251,40.8863,40.8863,0,0,0-2.1975,9.9986c-.1145,1.2514-.1722,2.5262-.1722,3.7891A13.0715,13.0715,0,0,1,1.6344,47.06a11.3982,11.3982,0,0,0-.6386,4.95A40.8081,40.8081,0,0,0,3.66,60.8a6.92,6.92,0,0,0,2.7132,2.7043A6.3713,6.3713,0,0,1,8.0819,64.95c.6448,1.0771,1.348,2.1373,2.09,3.1522a41.5318,41.5318,0,0,0,2.7025,3.32,12.3944,12.3944,0,0,1,1.2711,2.0467,11.4683,11.4683,0,0,0,2.1549,3.1292,41.3953,41.3953,0,0,0,4.5405,3.4159,5.2054,5.2054,0,0,0,3.0553.6779,3.7914,3.7914,0,0,1,1.639.2146,12.3491,12.3491,0,0,1,2.4084,1.8456,11.3814,11.3814,0,0,0,4.0537,2.7054,16.2784,16.2784,0,0,0,3.72.5331c.6224.0373,1.2663.076,1.9515.164a4.1887,4.1887,0,0,0,.5264.0326,9.5915,9.5915,0,0,0,3.0029-.676,7.9359,7.9359,0,0,1,2.1865-.54,14.0489,14.0489,0,0,1,3.2488.5627,11.6837,11.6837,0,0,0,5.0779.5106,29.3918,29.3918,0,0,0,5.1657-1.7139c.5233-.21,1.0173-.4085,1.5046-.5931a8.0137,8.0137,0,0,0,2.8049-2.1941,7.4085,7.4085,0,0,1,1.5957-1.4253A41.2323,41.2323,0,0,0,68.27,76.59a7.2824,7.2824,0,0,1,2.0979-.8279A7.6409,7.6409,0,0,0,73.7263,74.16a41.4258,41.4258,0,0,0,4.4309-5.1785,6.3583,6.3583,0,0,0,.8761-3.31,5.5411,5.5411,0,0,1,.3454-1.92,41.007,41.007,0,0,0,2.5949-5.6611,5.388,5.388,0,0,1,1.332-1.6606A6.3929,6.3929,0,0,0,85.393,53.302a41.2381,41.2381,0,0,0,.6961-4.4112A6.4937,6.4937,0,0,0,85.1785,45.6737Zm-1.6077,2.96a38.7,38.7,0,0,1-.653,4.1391A4.4884,4.4884,0,0,1,81.53,54.6267a7.3342,7.3342,0,0,0-1.9311,2.5879,38.4912,38.4912,0,0,1-2.4345,5.3114,7.0992,7.0992,0,0,0-.6553,2.9526,4.771,4.771,0,0,1-.4051,2.0222,38.9186,38.9186,0,0,1-4.1595,4.8615,6.121,6.121,0,0,1-2.2885.9715,8.8731,8.8731,0,0,0-2.92,1.2429,38.7346,38.7346,0,0,1-5.15,3.3108,9.2348,9.2348,0,0,0-2.2418,1.92,6.2291,6.2291,0,0,1-1.86,1.5635c-.5107.1934-1.04.4061-1.5512.6114a27.5373,27.5373,0,0,1-4.7123,1.5792,9.8158,9.8158,0,0,1-3.9727-.4825A16.0807,16.0807,0,0,0,43.385,82.44a9.5669,9.5669,0,0,0-3,.674,6.4712,6.4712,0,0,1-2.3943.529c-.77-.0983-1.4565-.14-2.1207-.18a13.8382,13.8382,0,0,1-3.1733-.44A9.8588,9.8588,0,0,1,29.6255,80.86a14.1283,14.1283,0,0,0-2.99-2.2333,5.64,5.64,0,0,0-2.5448-.4664c-.07,0-.1379,0-.2049.0008a2.98,2.98,0,0,1-1.6655-.2695,38.8563,38.8563,0,0,1-4.2621-3.2067,10.4044,10.4044,0,0,1-1.59-2.4279,13.5342,13.5342,0,0,0-1.6159-2.5326,38.9392,38.9392,0,0,1-2.537-3.1162c-.6967-.9527-1.3569-1.9476-1.9618-2.9583a7.8794,7.8794,0,0,0-2.4479-2.2325,5.4551,5.4551,0,0,1-1.8211-1.6195,38.2842,38.2842,0,0,1-2.4993-8.2448,9.8124,9.8124,0,0,1,.5881-3.8171A14.9846,14.9846,0,0,0,4.7973,43.86c0-1.1861.0545-2.3834.1618-3.5583A38.7679,38.7679,0,0,1,5.56,36.186a38.3752,38.3752,0,0,1,1.46-5.265,22.3267,22.3267,0,0,0,.8462-3.8773A13.8808,13.8808,0,0,1,9.12,22.3849a38.7973,38.7973,0,0,1,3.6841-5.0677,8.1824,8.1824,0,0,1,3.1351-1.814,13.0233,13.0233,0,0,0,3.31-1.7474,9.5015,9.5015,0,0,0,1.99-2.5414A6.3971,6.3971,0,0,1,22.9091,9.13,38.5867,38.5867,0,0,1,28.097,6.562a8.3977,8.3977,0,0,1,3.222-.1965,12.6744,12.6744,0,0,0,3.46-.1228A18.4712,18.4712,0,0,0,38.463,4.832a11.1541,11.1541,0,0,1,4.5478-1.4145,38.8982,38.8982,0,0,1,7.2755.6844,9.2254,9.2254,0,0,1,2.7692,1.5692,12.4818,12.4818,0,0,0,2.8959,1.7005,38.5194,38.5194,0,0,1,5.9531,2.6332,7.7145,7.7145,0,0,0,3.5185.7808,4.0819,4.0819,0,0,1,2.528.6234,38.98,38.98,0,0,1,3.8255,3.5276A10.7145,10.7145,0,0,1,72.97,17.6973a12.146,12.146,0,0,0,1.3647,3.1169A9.5389,9.5389,0,0,0,76.7,22.7753a7.19,7.19,0,0,1,1.9251,1.5791,33.4636,33.4636,0,0,1,2.4251,6.4012c.2005.6556.39,1.2744.5823,1.8655a3.0509,3.0509,0,0,1-.0748,1.7542,6.4661,6.4661,0,0,0-.175,2.7262,38.9439,38.9439,0,0,1,.59,6.7585,7.2609,7.2609,0,0,0,.915,2.8908A6.11,6.11,0,0,1,83.5708,48.6332Z" transform="translate(-0.9055 -0.8864)"/></svg>