<svg id="calendar" width="21" height="21" xmlns="http://www.w3.org/2000/svg" viewBox="0 0 20.9961 20.9961"><defs><style>.cls-1{fill:#fff;fill-rule:evenodd;}</style></defs><title>blog_calendar</title><path class="cls-1" d="M20.3687,20.9975H.6293a.6378.6378,0,0,1-.6277-.6486v-17.7A.6389.6389,0,0,1,.63,2.0008h3.37V3.8715c0,.624.669,1.129,1.5007,1.129h.9978C7.3282,5.0005,8,4.5,8,3.8715V2.0008h4.9993V3.8715c0,.624.6688,1.129,1.5007,1.129h.9979c.8286,0,1.5006-.5009,1.5006-1.129V2.0008h3.37a.639.639,0,0,1,.629.6484v17.7A.6388.6388,0,0,1,20.3687,20.9975ZM4.0008,9H1.0014V11.999H4.0008Zm0,3.9994H1.0014v2.9994H4.0008Zm0,3.9991H1.0014v2.6255a.4043.4043,0,0,0,.43.3739h2.57ZM8,9H5.0007V11.999H8Zm0,3.9994H5.0007v2.9994H8Zm0,3.9991H5.0007v2.9994H8ZM11.9992,9H9V11.999h2.9993Zm0,7.9985H9v2.9994h2.9993Zm4-7.9985H12.9993V11.999h2.9995Zm0,3.9994H12.9993v2.9994h2.9995Zm0,3.9991H12.9993v2.9994h2.9995ZM19.998,9h-3V11.999h3Zm0,3.9994h-3v2.9994h3Zm0,3.9991h-3v2.9994h2.5694a.4048.4048,0,0,0,.43-.3739ZM14.9991,4.0008a1,1,0,0,1-1-.9991V1a1,1,0,0,1,2,0V3.0017A.9994.9994,0,0,1,14.9991,4.0008Zm-8.7487,0h-.5a.751.751,0,0,1-.75-.7531V.7536a.7493.7493,0,0,1,.75-.7522h.5A.7507.7507,0,0,1,7,.7536V3.2489A.75.75,0,0,1,6.25,4.0008Z" transform="translate(-0.0016 -0.0014)"/></svg>