<svg id="calendar_input" width="23" height="23" xmlns="http://www.w3.org/2000/svg" viewBox="0 0 22.9957 22.9955"><defs><style>.cls-1{fill:#909090;fill-rule:evenodd;}</style></defs><title>calendar_input</title><path class="cls-1" d="M22.3086,22.9973H.6893a.6986.6986,0,0,1-.6875-.71V2.9013a.7.7,0,0,1,.6886-.71H4.3818V4.24c0,.6833.7327,1.2363,1.6436,1.2363H7.1183c.9078,0,1.6436-.5487,1.6436-1.2363V2.1916h5.4754V4.24c0,.6833.7325,1.2363,1.6436,1.2363h1.0929c.9076,0,1.6436-.5487,1.6436-1.2363V2.1916h3.6912a.7.7,0,0,1,.6889.71V22.2868A.7.7,0,0,1,22.3086,22.9973ZM4.3818,9.8572H1.0967v3.2847H4.3818Zm0,4.38H1.0967v3.2851H4.3818Zm0,4.38H1.0967V21.493a.4428.4428,0,0,0,.4708.41H4.3818Zm4.38-8.76H5.477v3.2847H8.7619Zm0,4.38H5.477v3.2851H8.7619Zm0,4.38H5.477v3.2851H8.7619Zm4.38-8.76H9.8571v3.2847H13.142Zm0,8.76H9.8571v3.2851H13.142Zm4.3806-8.76H14.2373v3.2847h3.2853Zm0,4.38H14.2373v3.2851h3.2853Zm0,4.38H14.2373v3.2851h3.2853Zm4.38-8.76H18.6174v3.2847h3.2852Zm0,4.38H18.6174v3.2851h3.2852Zm0,4.38H18.6174v3.2851h2.8142a.4435.4435,0,0,0,.471-.41ZM16.4276,4.3817a1.0954,1.0954,0,0,1-1.0954-1.094V1.0953a1.0952,1.0952,0,0,1,2.19,0V3.2877A1.0945,1.0945,0,0,1,16.4276,4.3817Zm-9.5819,0H6.2981A.8223.8223,0,0,1,5.477,3.557V.8252A.82.82,0,0,1,6.2981.0018h.5476a.822.822,0,0,1,.8214.8234V3.5583A.8206.8206,0,0,1,6.8457,4.3817Z" transform="translate(-0.0018 -0.0018)"/></svg>