<svg width="87" height="89" id="cost" xmlns="http://www.w3.org/2000/svg" viewBox="0 0 86.998 89.0002"><defs><style>.cls-1{fill:#29295f;fill-rule:evenodd;}</style></defs><title>cost</title><path class="cls-1" d="M81.5608,62.3717H78.6744a31.335,31.335,0,0,1-9.5477,13.6206l1.5314,6.1527a4.08,4.08,0,0,1-2.9909,4.9284L60.32,88.8807A4.0715,4.0715,0,0,1,59.3407,89a4.1177,4.1177,0,0,1-2.5038-.85,4.0509,4.0509,0,0,1-1.4728-2.241l-.5486-2.2024a46.2147,46.2147,0,0,1-26.5551.0052L27.7149,85.91A4.0521,4.0521,0,0,1,26.24,88.15a4.1213,4.1213,0,0,1-2.5027.85,4.0689,4.0689,0,0,1-.98-.1188l-7.347-1.8073A4.085,4.085,0,0,1,12.298,83.119a3.981,3.981,0,0,1,.1217-.9766v.003l1.5252-6.13C7.1721,70.2771,2.916,62.3487,2.9182,53.5691A27.4179,27.4179,0,0,1,6.0767,40.8434a8.3069,8.3069,0,0,1-3.6653-1.707A6.36,6.36,0,0,1,.002,34.2488a1.5354,1.5354,0,0,1,3.0707,0A3.3074,3.3074,0,0,0,4.3779,36.791a5.4951,5.4951,0,0,0,3.4063,1.1783,33.4223,33.4223,0,0,1,6.5517-7.1828,40.2435,40.2435,0,0,1,13.7065-7.27A15.0965,15.0965,0,0,1,25.59,15.2624a15.3535,15.3535,0,0,1,30.7065,0,15.1239,15.1239,0,0,1-2.2733,7.9581,42.9825,42.9825,0,0,1,6.908,2.6228,14.8855,14.8855,0,0,1,10.0924-4.3577,11.3712,11.3712,0,0,1,4.41.8745,1.5239,1.5239,0,0,1,.8579,1.8964L72.736,34.6714a30.3747,30.3747,0,0,1,5.5784,9.1271h3.2467A5.4333,5.4333,0,0,1,87,49.2044V56.965A5.4322,5.4322,0,0,1,81.5608,62.3717ZM58.3438,85.1773a1.0067,1.0067,0,0,0,.3663.5556,1.0411,1.0411,0,0,0,.6306.2146l.2426-.0286,7.3451-1.8077a.9832.9832,0,0,0,.5589-.365,1.0194,1.0194,0,0,0,.2179-.6261l-.0277-.2413-1.2036-4.8352c-.3439.2425-.6756.4983-1.0287.73A40.64,40.64,0,0,1,57.73,82.7061Zm-42.7578-1.43a1.01,1.01,0,0,0,.5619.3654l7.347,1.8073.2414.029a1.0388,1.0388,0,0,0,.63-.2157,1.0143,1.0143,0,0,0,.3676-.5567l.6143-2.469a40.28,40.28,0,0,1-8.75-4.64L15.4,82.881l-.002.0037-.0277.2373A1.009,1.009,0,0,0,15.586,83.7469ZM49.6251,6.6281a12.333,12.333,0,0,0-17.3687,0,12.1606,12.1606,0,0,0,0,17.2675,12.333,12.333,0,0,0,17.3687,0,12.1532,12.1532,0,0,0,0-17.2675Zm33.6084,40.915A2.3657,2.3657,0,0,0,81.562,46.85H77.2456a1.5331,1.5331,0,0,1-1.4534-1.0383A27.3189,27.3189,0,0,0,69.87,36.05a1.5141,1.5141,0,0,1-.3256-1.5251l3.3378-9.778a8.4837,8.4837,0,0,0-1.8566-.2095,12.1018,12.1018,0,0,0-8.6431,4.1765,1.5437,1.5437,0,0,1-1.8445.3253,39.422,39.422,0,0,0-8.5559-3.1865A15.4354,15.4354,0,0,1,48.61,28.4705c1.606.2313,3.216.5146,4.821.896a1.5272,1.5272,0,1,1-.7146,2.97,49.62,49.62,0,0,0-11.4781-1.3669A44.0144,44.0144,0,0,0,29.58,32.5028a1.5271,1.5271,0,1,1-.82-2.9421,45.2955,45.2955,0,0,1,4.6777-.9922,15.476,15.476,0,0,1-3.3143-2.4813,37.45,37.45,0,0,0-13.8283,7.0495C9.8755,38.4342,5.99,45.6437,5.9881,53.57c.002,7.9273,3.8875,15.1379,10.3073,20.4354a39.74,39.74,0,0,0,25.2429,8.5994A40.5737,40.5737,0,0,0,63.7556,76.227,29.168,29.168,0,0,0,76.0834,60.4162a1.5324,1.5324,0,0,1,1.4727-1.0943H81.56a2.3645,2.3645,0,0,0,1.6714-.6937,2.3325,2.3325,0,0,0,.698-1.661l.002-7.762A2.3357,2.3357,0,0,0,83.2335,47.5431ZM65.38,45.0139A2.1337,2.1337,0,1,1,67.5276,42.88,2.1405,2.1405,0,0,1,65.38,45.0139ZM63.2587,71.83a16.1891,16.1891,0,0,1-7.1014,3.7684,1.5271,1.5271,0,1,1-.7512-2.96,13.118,13.118,0,0,0,5.7575-3.0387,1.5419,1.5419,0,0,1,2.17.0746A1.52,1.52,0,0,1,63.2587,71.83ZM45.18,12.8688a1.5308,1.5308,0,0,1-1.5353-1.5259,1.4351,1.4351,0,0,0-.1331-.6335,1.3339,1.3339,0,0,0-.4034-.4827,2.5046,2.5046,0,0,0-.6612-.3335v3.5883a7.7168,7.7168,0,0,1,2.4575,1.1147,4.34,4.34,0,0,1,1.2528,1.4048,5.0446,5.0446,0,0,1,.0194,4.5734,4.2361,4.2361,0,0,1-1.5006,1.5722,6.2338,6.2338,0,0,1-2.2292.7917v.1407a1.5354,1.5354,0,0,1-3.0708,0v-.1051a5.5476,5.5476,0,0,1-2.6582-1.1734,4.5,4.5,0,0,1-1.611-3.4879,1.5354,1.5354,0,0,1,3.0707,0,1.434,1.434,0,0,0,.5251,1.1589,2.1636,2.1636,0,0,0,.6729.3654V15.8383a8.3176,8.3176,0,0,1-2.39-.9807,3.997,3.997,0,0,1-1.8793-3.5147A4.6243,4.6243,0,0,1,35.82,8.8891,4.7966,4.7966,0,0,1,38.216,6.9782a6.1564,6.1564,0,0,1,1.16-.3089V6.6132a1.5354,1.5354,0,0,1,3.0707,0v.1155a6.6945,6.6945,0,0,1,1.64.531,4.6075,4.6075,0,0,1,2.1944,2.1337,4.456,4.456,0,0,1,.435,1.95A1.5318,1.5318,0,0,1,45.18,12.8688Zm-5.8036-3.06c-.02.0063-.0459.0134-.0674.0216a1.8587,1.8587,0,0,0-.688.4318,1.5687,1.5687,0,0,0-.4432,1.081,1.213,1.213,0,0,0,.11.573.946.946,0,0,0,.2938.3282,3.1365,3.1365,0,0,0,.7944.3962Zm3.0705,9.9987a2.3754,2.3754,0,0,0,.7441-.35,1.0664,1.0664,0,0,0,.2836-.3346,1.653,1.653,0,0,0,.17-.811,1.5758,1.5758,0,0,0-.2242-.9165,1.7322,1.7322,0,0,0-.6652-.5451c-.087-.0475-.2047-.0888-.3081-.1326h0Z" transform="translate(-0.002 0.0003)"/></svg>