<svg widht="81" height="81" id="durability" xmlns="http://www.w3.org/2000/svg" viewBox="0 0 80.9999 81.0004"><defs><style>.cls-1{fill:#29295f;fill-rule:evenodd;}</style></defs><title>durability</title><path class="cls-1" d="M79.6262,21.4612,60.4888,40.5984a25.1526,25.1526,0,1,1-39.978,0L1.3734,21.4612A4.6592,4.6592,0,0,1,0,18.1452V3.7005A3.7055,3.7055,0,0,1,3.7009-.0009c.0231,0,.0461.0033.0693.004.0222-.0014.0441-.004.0666-.004H77.163c.0226,0,.0446.0026.0666.004.0232-.0007.046-.004.0693-.004A3.7053,3.7053,0,0,1,81,3.7005V18.1452A4.66,4.66,0,0,1,79.6262,21.4612ZM17.9051,55.847A22.5948,22.5948,0,1,0,40.5,33.2519,22.62,22.62,0,0,0,17.9051,55.847ZM44.716,31.0491,57.8607,17.9049H23.1391L36.284,31.0491a25.2122,25.2122,0,0,1,8.432,0ZM3.7009,2.5576A1.1444,1.1444,0,0,0,2.5578,3.7005V18.1452a2.1184,2.1184,0,0,0,.6244,1.5072L22.1711,38.6411a25.1938,25.1938,0,0,1,11.1775-6.9094l-14.1-14.0993a1.3029,1.3029,0,0,1-.2184-.2188L4.5091,2.8925A1.134,1.134,0,0,0,3.7009,2.5576Zm4.0908,0L20.5811,15.3464H60.4186l12.79-12.7892Zm70.65,15.588V3.7005a1.1428,1.1428,0,0,0-1.9511-.808L61.9687,17.414a1.27,1.27,0,0,1-.2175.2172l-14.1,14.1005a25.1927,25.1927,0,0,1,11.1775,6.9094L77.8176,19.6524a2.1169,2.1169,0,0,0,.6242-1.5072ZM25.4083,50.7311v.1708a1.279,1.279,0,0,1-2.5579,0v-.1708a1.279,1.279,0,0,1,2.5579,0Zm-.682,5.1159A15.7913,15.7913,0,0,0,40.5,71.6207a1.2791,1.2791,0,1,1,0,2.5581A18.3524,18.3524,0,0,1,22.1684,55.847a1.279,1.279,0,0,1,2.5579,0Zm9.7048,1.9882L33.1983,61.944a1.2789,1.2789,0,0,1-2.45-.7349L33.977,50.447a3.7657,3.7657,0,0,1,3.6294-2.7h.5007a3.7651,3.7651,0,0,1,3.6291,2.7l3.2285,10.7621a1.2789,1.2789,0,1,1-2.45.7349l-1.2326-4.1088Zm4.8556-6.6533a1.2239,1.2239,0,0,0-1.18-.8775h-.5007a1.2237,1.2237,0,0,0-1.1794.8775L35.1985,55.277h5.3167Zm7.5908,2.84h1.0744V52.948a1.2789,1.2789,0,1,1,2.5578,0v1.0743h1.0744a1.2791,1.2791,0,0,1,0,2.5581H50.51v1.0743a1.2789,1.2789,0,1,1-2.5578,0V56.58H46.8775a1.2791,1.2791,0,0,1,0-2.5581ZM57.041,59.5132A1.2789,1.2789,0,0,1,58.32,60.7917v.1709a1.279,1.279,0,0,1-2.5579,0v-.1709A1.2789,1.2789,0,0,1,57.041,59.5132Zm-.7675-3.6662A15.7916,15.7916,0,0,0,40.5,40.073a1.2787,1.2787,0,1,1,0-2.5574A18.3516,18.3516,0,0,1,58.8313,55.847a1.2789,1.2789,0,0,1-2.5578,0Z" transform="translate(0.0001 0.0009)"/></svg>