<svg width="19" height="14" id="email" xmlns="http://www.w3.org/2000/svg" viewBox="0 0 18.9999 13.9999"><defs><style>.cls-1{fill:#fff;fill-rule:evenodd;}</style></defs><title>email</title><path class="cls-1" d="M16.7734,14H2.2265A2.2328,2.2328,0,0,1,0,11.7656V2.234A2.2328,2.2328,0,0,1,2.2265,0H16.7734A2.2328,2.2328,0,0,1,19,2.234v9.5316A2.2328,2.2328,0,0,1,16.7734,14ZM2.2265,12.51H16.7734a.7441.7441,0,0,0,.7421-.7447V2.6906L9.5,8.6725,1.4844,2.6906v9.075A.7441.7441,0,0,0,2.2265,12.51ZM16.6381,1.4892H2.3619L9.5,6.8165Z" transform="translate(0 0.0002)"/></svg>