<svg width="68" height="84" id="expert" xmlns="http://www.w3.org/2000/svg" viewBox="0 0 68.0001 84"><defs><style>.cls-1{fill:#282c64;fill-rule:evenodd;}</style></defs><title>expert</title><path class="cls-1" d="M0,84,0,78.348c.0055-.3154.2579-7.7863,11.03-13.36a40.1388,40.1388,0,0,1,6.1088-2.5387c.131-.07.3921-.2108.7468-.4068a34.8252,34.8252,0,0,0,6.2157-4.121v-4.206C18.8721,50.7087,15.2944,45.31,14.15,38.7c-2.9633-.8538-5.5426-3.652-5.5426-6.2261,0-2.6051,1.9466-4.3343,5.1645-4.6924V25.979H7.7468V24.68c0-1.6713,1.4412-8.0989,4.6424-8.2212A22.879,22.879,0,0,1,25.8228,2.3806V0H42.1771v2.381a22.8918,22.8918,0,0,1,13.4275,14.078c3.2055.1147,4.6486,6.5491,4.6486,8.2216V25.979H54.2278v1.8024c3.2179.3581,5.1645,2.0873,5.1645,4.6924,0,2.5741-2.5793,5.3723-5.5426,6.2261-1.1432,6.6079-4.72,12.0063-9.951,15.015v4.2064a34.8725,34.8725,0,0,0,6.2181,4.1226c.35.1928.6088.3328.7408.4036a40.1852,40.1852,0,0,1,6.1135,2.5065C67.8365,70.511,67.9984,78.0463,68,78.3645V84ZM10.3291,68.3618c-7.37,4.54-7.7308,9.674-7.7468,10.0317v3.0082H7.7812a3.0423,3.0423,0,0,1-.0344-.4329V77.5047a3.0271,3.0271,0,0,1,2.5823-2.9961Zm6.886-3.197a37.9692,37.9692,0,0,0-4.3038,1.7767V74.474h4.3038ZM11.19,32.4738c0,1.0613,1.1408,2.5053,2.6281,3.3031-.0284-.5133-.0458-5.3844-.0458-5.3844C11.471,30.7172,11.19,31.9142,11.19,32.4738ZM25.8228,5.1877A20.2924,20.2924,0,0,0,15.1354,16.4534H25.8228Zm13.7721-2.59H28.405V16.4534h11.19Zm2.5822,2.591V16.4534H52.8584A20.3031,20.3031,0,0,0,42.1771,5.1885ZM56.81,32.4738c0-.56-.2812-1.7566-2.5823-2.0813,0,0-.0174,4.8711-.0458,5.3844C55.6693,34.98,56.81,33.5351,56.81,32.4738Zm.7037-9.0927c-.3933-1.8656-1.4314-4.1022-2.024-4.33H12.51c-.5926.2277-1.6306,2.4643-2.024,4.33ZM51.434,37.44a23.5206,23.5206,0,0,0,.2115-3.2344V25.979H16.3544v8.2268a23.4878,23.4878,0,0,0,.2112,3.2312c.8885,6.4715,4.3217,11.7026,9.42,14.3547A17.0826,17.0826,0,0,0,34,53.69a17.0851,17.0851,0,0,0,8.0116-1.8966C47.1127,49.14,50.546,43.9085,51.434,37.44Zm-24.75,17.5143V57.95c.8872.9266,3.7052,3.5341,7.3165,3.5341,3.6346,0,6.4333-2.6027,7.3164-3.5313V54.9545a20.7352,20.7352,0,0,1-14.6329,0Zm21.519,8.99a40.7049,40.7049,0,0,1-5.55-3.6665A13.0426,13.0426,0,0,1,34,64.0822a13.0426,13.0426,0,0,1-8.6522-3.8045,40.7027,40.7027,0,0,1-5.55,3.6665v10.53h28.405Zm6.8861,2.9688a37.8537,37.8537,0,0,0-4.3038-1.7538V74.474h4.3038Zm2.1519,10.1588H10.7594a.4375.4375,0,0,0-.43.4329v3.4641a.4375.4375,0,0,0,.43.4329H57.2405a.4375.4375,0,0,0,.43-.4329V77.5047A.4375.4375,0,0,0,57.2405,77.0718Zm8.1771,1.3116c-.0083-.3021-.2676-5.5131-7.7468-10.0691v6.1943a3.0272,3.0272,0,0,1,2.5824,2.9961v3.4641a3.0423,3.0423,0,0,1-.0345.4329h5.1989ZM32.7088,42.8656V35.9379h2.5823v5.6286H37.443v2.5982H34A1.2952,1.2952,0,0,1,32.7088,42.8656Z" transform="translate(0.0001 0.0004)"/></svg>