<svg id="facebook" width="10" height="19" xmlns="http://www.w3.org/2000/svg" viewBox="0 0 9.9998 19.0005"><defs><style>.cls-1{fill:#fff;fill-rule:evenodd;}</style></defs><title>facebook</title><path class="cls-1" d="M9.6233.0034,7.2247-.0006c-2.6946,0-4.4358,1.8354-4.4358,4.6763V6.8314H.3772A.3826.3826,0,0,0,0,7.2192v3.1237a.3824.3824,0,0,0,.3771.3875H2.7887v7.8821A.3823.3823,0,0,0,3.1658,19H6.3122a.3823.3823,0,0,0,.3772-.3874V10.73h2.82a.3823.3823,0,0,0,.3771-.3875l.0012-3.1237a.3935.3935,0,0,0-.11-.2739A.3722.3722,0,0,0,9.51,6.8314H6.69V5.004c0-.8787.2038-1.3245,1.3175-1.3245l1.6159,0A.3825.3825,0,0,0,10,3.2917V.3909A.3826.3826,0,0,0,9.6233.0034Z" transform="translate(-0.0001 0.0006)"/></svg>