<svg id="search" width="19" height="19" xmlns="http://www.w3.org/2000/svg" viewBox="0 0 18.9908 18.9917"><defs><style>.cls-1{fill:#000;fill-rule:evenodd;}</style></defs><title>form_search</title><path class="cls-1" d="M18.8119,17.9587l-4.9033-4.8249a7.7565,7.7565,0,0,0,2.0728-5.27A7.9281,7.9281,0,0,0,7.9906,0a7.927,7.927,0,0,0-7.99,7.8633,7.9271,7.9271,0,0,0,7.99,7.8631,8.0359,8.0359,0,0,0,5.0291-1.756L17.942,18.815a.6219.6219,0,0,0,.8692,0A.6.6,0,0,0,18.8119,17.9587ZM7.9906,14.5168A6.7075,6.7075,0,0,1,1.23,7.8637,6.7075,6.7075,0,0,1,7.9906,1.21a6.7075,6.7075,0,0,1,6.7607,6.6533A6.7074,6.7074,0,0,1,7.9906,14.5168Z" transform="translate(-0.0006 -0.0004)"/></svg>