<svg id="google" xmlns="http://www.w3.org/2000/svg" xmlns:xlink="http://www.w3.org/1999/xlink" viewBox="0 0 23.4902 24"><defs><style>.cls-1{fill:none;}.cls-2{clip-path:url(#clip-path);}.cls-3{fill:#4285f4;}.cls-4{fill:#34a853;}.cls-5{fill:#fbbc05;}.cls-6{fill:#ea4335;}</style><clipPath id="clip-path" transform="translate(0.0001 -0.0002)"><rect class="cls-1" width="23.49" height="24"/></clipPath></defs><title>google</title><g class="cls-2"><path class="cls-3" d="M23.49,12.27A13.9029,13.9029,0,0,0,23.3,10H12v4.51h6.469a5.57,5.57,0,0,1-2.399,3.58v3h3.859a11.73,11.73,0,0,0,3.561-8.82" transform="translate(0.0001 -0.0002)"/><path class="cls-4" d="M12,24a11.4308,11.4308,0,0,0,7.93-2.91l-3.86-3A7.2391,7.2391,0,0,1,12,19.25a7.1666,7.1666,0,0,1-6.73-4.96H1.29v3.09A11.982,11.982,0,0,0,12,24" transform="translate(0.0001 -0.0002)"/><path class="cls-5" d="M5.27,14.29A6.9677,6.9677,0,0,1,4.89,12a7.2344,7.2344,0,0,1,.38-2.29V6.62H1.29a11.8638,11.8638,0,0,0,0,10.76Z" transform="translate(0.0001 -0.0002)"/><path class="cls-6" d="M12,4.75a6.5113,6.5113,0,0,1,4.601,1.8l3.42-3.42A11.4772,11.4772,0,0,0,12,0,11.982,11.982,0,0,0,1.29,6.62L5.27,9.71A7.1666,7.1666,0,0,1,12,4.75" transform="translate(0.0001 -0.0002)"/></g></svg>