<svg id="hours" width="84" height="84" xmlns="http://www.w3.org/2000/svg" viewBox="0 0 84 84.0002"><defs><style>.cls-1{fill:#29295f;fill-rule:evenodd;}</style></defs><title>hours</title><path class="cls-1" d="M42,84A42,42,0,1,1,84,42,42.0477,42.0477,0,0,1,42,84ZM42,2.8A39.2,39.2,0,1,0,81.2,42,39.2429,39.2429,0,0,0,42,2.8ZM74.2,42V39.2h5.6V42Zm-27.8786.8794-1.4,2.425-2.4172-1.3956-1.3915,2.4079L38.691,44.9173,40.0819,42.51,23.1275,32.7214l1.4-2.4249,16.9551,9.7894L56.88,13.44l2.4218,1.3994L43.9049,41.4844ZM39.2,4.2H42V9.8H39.2Zm5.6,75.6H42V74.2h2.8ZM4.2,42H9.8v2.8H4.2Z" transform="translate(0 0.0003)"/></svg>