<svg id="location" width="76" height="90" xmlns="http://www.w3.org/2000/svg" viewBox="0 0 74.9986 89.9999"><defs><style>.cls-1{fill:#29295f;fill-rule:evenodd;}</style></defs><title>location</title><path class="cls-1" d="M74.4756,89.4747a1.7809,1.7809,0,0,1-2.5255,0L58.7057,76.1774a13.5829,13.5829,0,0,1-16.4994.6953c-4.9352,7.2338-8.8469,12.3712-8.8874,12.4246a1.7818,1.7818,0,0,1-2.8354,0C29.2389,87.6655,0,49.1386,0,32.0287a31.9014,31.9014,0,1,1,63.8023,0c0,4.9908-2.4643,12.2265-7.3236,21.5178a13.7279,13.7279,0,0,1,4.6566,19.9993l13.34,13.3935A1.7978,1.7978,0,0,1,74.4756,89.4747ZM60.231,32.0287a28.33,28.33,0,1,0-56.66,0c0,6.4848,5.1068,18.0246,14.7676,33.3715C23.8265,74.1169,29.371,81.793,31.9014,85.2191c1.6033-2.17,4.4145-6.0427,7.642-10.788A13.6814,13.6814,0,0,1,53.1145,52.2664C57.8374,43.3108,60.231,36.5047,60.231,32.0287ZM49.9991,55.4878a10.13,10.13,0,1,0,10.0891,10.13A10.1209,10.1209,0,0,0,49.9991,55.4878ZM31.9012,50.8184a18.79,18.79,0,1,1,18.7145-18.79A18.7735,18.7735,0,0,1,31.9012,50.8184Zm0-33.9934A15.204,15.204,0,1,0,47.0443,32.0287,15.1907,15.1907,0,0,0,31.9012,16.825Zm8.7509-4.99a21.8853,21.8853,0,0,0-23.4465,3.8526,1.7808,1.7808,0,0,1-2.5221-.1284,1.7975,1.7975,0,0,1,.1278-2.532A25.4436,25.4436,0,0,1,42.0786,8.5477a1.7916,1.7916,0,0,1-1.4265,3.2869ZM9.9723,32.029a1.7857,1.7857,0,1,1-3.5714,0A25.7466,25.7466,0,0,1,9.31,20.1426a1.7871,1.7871,0,1,1,3.1618,1.6667A22.1377,22.1377,0,0,0,9.9723,32.029Z" transform="translate(0 0.0001)"/></svg>