<svg id="metal_fence" xmlns="http://www.w3.org/2000/svg" viewBox="0 0 67.957 39.657"><defs><style>.cls-1{fill:#07282d;}</style></defs><title>metal_fence</title><rect class="cls-1" width="1.704" height="39.657"/><rect class="cls-1" x="66.253" width="1.704" height="39.657"/><path class="cls-1" d="M1.174,1.1973H66.782V39.01H1.174ZM.529,39.6563H67.426V.5523H.529Z" transform="translate(0 0.0007)"/><rect class="cls-1" x="66.782" y="0.876" width="0.644" height="38.458"/><rect class="cls-1" x="60.758" y="0.876" width="0.646" height="38.458"/><rect class="cls-1" x="54.735" y="0.876" width="0.645" height="38.458"/><rect class="cls-1" x="48.712" y="0.876" width="0.645" height="38.458"/><rect class="cls-1" x="42.69" y="0.876" width="0.645" height="38.458"/><rect class="cls-1" x="36.667" y="0.876" width="0.645" height="38.458"/><rect class="cls-1" x="30.643" y="0.876" width="0.645" height="38.458"/><rect class="cls-1" x="24.621" y="0.876" width="0.644" height="38.458"/><rect class="cls-1" x="18.598" y="0.876" width="0.645" height="38.458"/><rect class="cls-1" x="12.574" y="0.876" width="0.646" height="38.458"/><rect class="cls-1" x="6.552" y="0.876" width="0.645" height="38.458"/><rect class="cls-1" x="0.529" y="0.876" width="0.644" height="38.458"/><rect class="cls-1" x="59.9002" y="3.5358" width="8.4393" height="0.6449" transform="translate(16.0052 46.4174) rotate(-44.9369)"/><rect class="cls-1" x="63.7975" y="-0.3612" width="0.6449" height="8.4393" transform="translate(16.0519 46.4704) rotate(-45)"/><rect class="cls-1" x="53.8734" y="3.5359" width="8.439" height="0.6445" transform="translate(14.2867 42.2084) rotate(-44.9998)"/><rect class="cls-1" x="57.7706" y="-0.361" width="0.6445" height="8.439" transform="translate(14.2898 42.2123) rotate(-45.0048)"/><rect class="cls-1" x="47.8451" y="3.5358" width="8.4386" height="0.6449" transform="translate(12.521 37.9457) rotate(-44.9998)"/><rect class="cls-1" x="51.742" y="-0.3608" width="0.6449" height="8.4386" transform="translate(12.5209 37.9459) rotate(-45)"/><rect class="cls-1" x="41.8174" y="3.5359" width="8.439" height="0.6445" transform="translate(10.7229 33.6448) rotate(-44.9369)"/><rect class="cls-1" x="45.7146" y="-0.361" width="0.6445" height="8.439" transform="translate(10.7555 33.6838) rotate(-45)"/><rect class="cls-1" x="35.7902" y="3.5356" width="8.439" height="0.6452" transform="translate(9.0183 29.4557) rotate(-45.0625)"/><rect class="cls-1" x="39.687" y="-0.361" width="0.6452" height="8.439" transform="translate(8.9923 29.4245) rotate(-45.0048)"/><polygon class="cls-1" points="30.769 6.614 31.226 7.07 37.192 1.103 36.737 0.647 30.769 6.614"/><polygon class="cls-1" points="30.769 1.104 36.737 7.071 37.192 6.615 31.226 0.648 30.769 1.104"/><rect class="cls-1" x="23.7342" y="3.5356" width="8.439" height="0.6452" transform="translate(5.4592 20.8969) rotate(-44.9999)"/><rect class="cls-1" x="27.631" y="-0.361" width="0.6452" height="8.439" transform="translate(5.4591 20.897) rotate(-45)"/><polygon class="cls-1" points="18.715 6.614 19.17 7.07 25.138 1.103 24.681 0.647 18.715 6.614"/><polygon class="cls-1" points="18.715 1.104 24.681 7.071 25.138 6.615 19.17 0.648 18.715 1.104"/><rect class="cls-1" x="11.6787" y="3.5359" width="8.439" height="0.6445" transform="translate(1.9283 12.3724) rotate(-44.9999)"/><rect class="cls-1" x="15.5759" y="-0.361" width="0.6445" height="8.439" transform="translate(1.9288 12.3737) rotate(-45.0048)"/><polygon class="cls-1" points="6.659 6.614 7.114 7.07 13.081 1.103 12.626 0.647 6.659 6.614"/><polygon class="cls-1" points="6.659 1.104 12.626 7.071 13.081 6.615 7.114 0.648 6.659 1.104"/><rect class="cls-1" x="-0.3768" y="3.5356" width="8.439" height="0.6452" transform="translate(-1.6027 3.8479) rotate(-44.9999)"/><rect class="cls-1" x="3.52" y="-0.361" width="0.6452" height="8.439" transform="translate(-1.6029 3.848) rotate(-45)"/><rect class="cls-1" x="1.088" y="6.558" width="66.245" height="0.645"/><polygon class="cls-1" points="60.908 33.596 66.875 39.563 67.332 39.107 61.363 33.139 60.908 33.596"/><rect class="cls-1" x="59.9001" y="36.0271" width="8.4397" height="0.6452" transform="translate(-6.9444 55.9088) rotate(-44.937)"/><polygon class="cls-1" points="54.881 33.596 60.849 39.563 61.304 39.107 55.337 33.139 54.881 33.596"/><rect class="cls-1" x="53.8732" y="36.0273" width="8.4393" height="0.6449" transform="translate(-8.6882 51.725) rotate(-44.9998)"/><rect class="cls-1" x="51.7418" y="32.1306" width="0.6452" height="8.439" transform="translate(-10.4541 47.4625) rotate(-45)"/><rect class="cls-1" x="47.8449" y="36.0271" width="8.439" height="0.6452" transform="translate(-10.4539 47.4622) rotate(-44.9998)"/><rect class="cls-1" x="45.7144" y="32.1304" width="0.6449" height="8.4393" transform="translate(-12.2195 43.2004) rotate(-45)"/><polygon class="cls-1" points="42.826 39.106 43.281 39.562 49.249 33.595 48.793 33.138 42.826 39.106"/><rect class="cls-1" x="39.6869" y="32.1304" width="0.6456" height="8.4393" transform="translate(-13.9846 38.943) rotate(-45.0048)"/><polygon class="cls-1" points="36.797 39.106 37.254 39.562 43.221 33.595 42.765 33.138 36.797 39.106"/><rect class="cls-1" x="33.6586" y="32.1306" width="0.6452" height="8.439" transform="translate(-15.7506 34.6799) rotate(-45.0048)"/><polygon class="cls-1" points="30.769 39.106 31.226 39.562 37.192 33.595 36.737 33.138 30.769 39.106"/><polygon class="cls-1" points="24.742 33.596 30.709 39.563 31.166 39.107 25.198 33.139 24.742 33.596"/><rect class="cls-1" x="23.734" y="36.027" width="8.4393" height="0.6456" transform="translate(-17.5157 30.4135) rotate(-45)"/><polygon class="cls-1" points="18.715 33.596 24.681 39.563 25.138 39.107 19.17 33.139 18.715 33.596"/><rect class="cls-1" x="17.7061" y="36.0271" width="8.439" height="0.6452" transform="translate(-19.2701 26.1058) rotate(-44.9371)"/><polygon class="cls-1" points="12.686 33.596 18.654 39.563 19.109 39.107 13.142 33.139 12.686 33.596"/><rect class="cls-1" x="11.6785" y="36.0273" width="8.4393" height="0.6449" transform="translate(-21.0467 21.889) rotate(-45)"/><polygon class="cls-1" points="6.659 33.596 12.626 39.563 13.081 39.107 7.114 33.139 6.659 33.596"/><polygon class="cls-1" points="6.659 39.106 7.114 39.562 13.081 33.595 12.626 33.138 6.659 39.106"/><polygon class="cls-1" points="0.631 33.596 6.598 39.563 7.055 39.107 1.087 33.139 0.631 33.596"/><rect class="cls-1" x="-0.377" y="36.027" width="8.4393" height="0.6456" transform="translate(-24.5777 13.3645) rotate(-45)"/><rect class="cls-1" x="1.088" y="33.007" width="66.245" height="0.645"/></svg>