<svg id="options" width="98" hright="74" xmlns="http://www.w3.org/2000/svg" viewBox="0 0 97.2783 72.9591"><defs><style>.cls-1{fill:#29295f;}</style></defs><title>option</title><path class="cls-1" d="M97.8794,36.9189V18.6794H88.76V9.56L79.64.4394,70.52,9.56v9.12H58.36V9.56L49.24.4394,40.12,9.56v9.12h-12.16V9.56l-9.12-9.12-9.12,9.12v9.12H.6011v18.24h9.12v6.08H.6011v18.24h9.12v12.16h18.24v-12.16H40.12v12.16H58.36v-12.16H70.52v12.16H88.76v-12.16h9.12v-18.24H88.76v-6.08ZM94.8394,21.72v12.16H88.76V21.72Zm-24.32,0v12.16H58.36V21.72Zm0,21.2793H58.36v-6.08H70.52ZM40.12,21.72v12.16h-12.16V21.72Zm0,21.2793h-12.16v-6.08H40.12ZM3.641,33.8792V21.72h6.08v12.16Zm0,24.32v-12.16h6.08v12.16Zm21.28,12.16h-12.16V10.8173l6.08-6.08,6.08,6.08Zm3.04-12.16v-12.16H40.12v12.16ZM55.32,70.3588H43.16V10.8173l6.08-6.08,6.08,6.08Zm3.04-12.16v-12.16H70.52v12.16Zm36.4794-12.16v12.16H88.76v-12.16Zm-9.12-3.04v27.36H73.56V10.8173l6.08-6.08,6.08,6.08Z" transform="translate(-0.6011 -0.4394)"/><path class="cls-1" d="M18.8408,24.7592a3.04,3.04,0,1,1-3.04,3.04A3.04,3.04,0,0,1,18.8408,24.7592Z" transform="translate(-0.6011 -0.4394)"/><path class="cls-1" d="M49.24,24.7592a3.04,3.04,0,1,1-3.04,3.04A3.04,3.04,0,0,1,49.24,24.7592Z" transform="translate(-0.6011 -0.4394)"/><path class="cls-1" d="M79.64,24.7592a3.04,3.04,0,1,1-3.04,3.04A3.04,3.04,0,0,1,79.64,24.7592Z" transform="translate(-0.6011 -0.4394)"/><path class="cls-1" d="M18.8408,49.0787a3.04,3.04,0,1,1-3.04,3.04A3.04,3.04,0,0,1,18.8408,49.0787Z" transform="translate(-0.6011 -0.4394)"/><path class="cls-1" d="M49.24,49.0787a3.04,3.04,0,1,1-3.04,3.04A3.04,3.04,0,0,1,49.24,49.0787Z" transform="translate(-0.6011 -0.4394)"/><path class="cls-1" d="M79.64,49.0787a3.04,3.04,0,1,1-3.04,3.04A3.04,3.04,0,0,1,79.64,49.0787Z" transform="translate(-0.6011 -0.4394)"/></svg>