<svg id="ornamental_fence" xmlns="http://www.w3.org/2000/svg" xmlns:xlink="http://www.w3.org/1999/xlink" viewBox="0 0 66.775 41.1155"><defs><style>.cls-1{fill:none;}.cls-2{clip-path:url(#clip-path);}.cls-3{fill:#3b3939;}.cls-4{fill:#6b4a41;}</style><clipPath id="clip-path" transform="translate(0.0001 0.0003)"><rect class="cls-1" y="0.0002" width="66.775" height="41.115"/></clipPath></defs><title>ornamental_fence</title><g class="cls-2"><path class="cls-3" d="M33.4185,39.95h31.695a.22.22,0,0,0,0-.44H33.4185a.22.22,0,0,0,0,.44" transform="translate(0.0001 0.0003)"/><path class="cls-3" d="M64.5142,41.1152a.1984.1984,0,0,0,.219-.172v-19.85a.2261.2261,0,0,0-.439,0v19.85a.2.2,0,0,0,.22.172" transform="translate(0.0001 0.0003)"/><path class="cls-3" d="M62.56,39.9482a1.99,1.99,0,0,0,1.666-.902,1.6279,1.6279,0,0,0-.479-2.256,1.3481,1.3481,0,0,0-1.864.396,1.1252,1.1252,0,0,0,.329,1.553.9457.9457,0,0,0,1.304-.277.7969.7969,0,0,0,.11-.6.7888.7888,0,0,0-.345-.502.2177.2177,0,0,0-.304.064.22.22,0,0,0,.064.303.357.357,0,0,1,.106.495.5036.5036,0,0,1-.695.149.6923.6923,0,0,1-.297-.431.6833.6833,0,0,1,.096-.514.8946.8946,0,0,1,.574-.395.9072.9072,0,0,1,.683.127,1.1914,1.1914,0,0,1,.35,1.647,1.5408,1.5408,0,0,1-2.134.454,1.9821,1.9821,0,0,1-.583-2.745.22.22,0,1,0-.369-.239,2.4224,2.4224,0,0,0,.711,3.352,1.9693,1.9693,0,0,0,1.077.321" transform="translate(0.0001 0.0003)"/><path class="cls-3" d="M58.46,39.9482a1.966,1.966,0,0,0,1.076-.321,2.4215,2.4215,0,0,0,.712-3.352.22.22,0,1,0-.369.239,1.983,1.983,0,0,1-.582,2.745,1.5417,1.5417,0,0,1-2.135-.454,1.1914,1.1914,0,0,1,.35-1.647.9064.9064,0,0,1,.683-.127.897.897,0,0,1,.574.395.6784.6784,0,0,1,.095.514.687.687,0,0,1-.296.431.5023.5023,0,0,1-.695-.149.3556.3556,0,0,1,.105-.495.219.219,0,1,0-.239-.367.796.796,0,0,0-.235,1.102.9438.9438,0,0,0,1.303.277,1.1256,1.1256,0,0,0,.33-1.554,1.349,1.349,0,0,0-1.864-.395,1.6279,1.6279,0,0,0-.479,2.256,1.99,1.99,0,0,0,1.666.902" transform="translate(0.0001 0.0003)"/><path class="cls-3" d="M54.86,39.958a2.028,2.028,0,0,0,.416-.044,1.9646,1.9646,0,0,0,1.25-.86,1.63,1.63,0,0,0-.478-2.254,1.3508,1.3508,0,0,0-1.865.396,1.1246,1.1246,0,0,0,.33,1.553.9423.9423,0,0,0,1.303-.278.7983.7983,0,0,0-.234-1.102.22.22,0,1,0-.24.368.3584.3584,0,0,1,.106.495.5019.5019,0,0,1-.696.147.6726.6726,0,0,1-.295-.429.68.68,0,0,1,.094-.515.9126.9126,0,0,1,1.258-.267,1.1911,1.1911,0,0,1,.349,1.647,1.5427,1.5427,0,0,1-2.134.454,1.983,1.983,0,0,1-.583-2.746.22.22,0,0,0-.369-.239,2.4248,2.4248,0,0,0,.712,3.353,1.966,1.966,0,0,0,1.076.321" transform="translate(0.0001 0.0003)"/><path class="cls-3" d="M50.7617,39.957a1.9683,1.9683,0,0,0,1.076-.32,2.4272,2.4272,0,0,0,.712-3.353.22.22,0,0,0-.369.239,1.9861,1.9861,0,0,1-.582,2.746,1.5446,1.5446,0,0,1-2.135-.454,1.192,1.192,0,0,1,.349-1.647.911.911,0,0,1,1.258.267.6854.6854,0,0,1,.095.515.6777.6777,0,0,1-.296.429.501.501,0,0,1-.695-.147.358.358,0,0,1,.105-.495.2194.2194,0,0,0-.239-.368.7948.7948,0,0,0-.346.503.7857.7857,0,0,0,.112.599.9318.9318,0,0,0,.594.409.9428.9428,0,0,0,.709-.131,1.1255,1.1255,0,0,0,.329-1.553,1.35,1.35,0,0,0-1.864-.396,1.6336,1.6336,0,0,0-.48,2.256,1.9863,1.9863,0,0,0,1.667.901" transform="translate(0.0001 0.0003)"/><path class="cls-3" d="M47.1626,39.9663a1.9833,1.9833,0,0,0,1.666-.901,1.633,1.633,0,0,0-.479-2.255,1.3476,1.3476,0,0,0-1.865.395,1.1246,1.1246,0,0,0,.33,1.553.9437.9437,0,0,0,1.303-.276.7989.7989,0,0,0-.234-1.103.2193.2193,0,1,0-.24.367.3588.3588,0,0,1,.106.495.5035.5035,0,0,1-.696.149.6847.6847,0,0,1-.2-.945.9058.9058,0,0,1,1.257-.267,1.192,1.192,0,0,1,.349,1.648,1.5448,1.5448,0,0,1-2.134.452,1.9851,1.9851,0,0,1-.582-2.745.22.22,0,0,0-.37-.239,2.4282,2.4282,0,0,0,.711,3.353,1.9785,1.9785,0,0,0,1.078.319" transform="translate(0.0001 0.0003)"/><path class="cls-3" d="M43.0625,39.9663a1.9729,1.9729,0,0,0,1.077-.319,2.4273,2.4273,0,0,0,.711-3.353.2194.2194,0,0,0-.368.239,1.9863,1.9863,0,0,1-.583,2.745,1.5447,1.5447,0,0,1-2.135-.453,1.1921,1.1921,0,0,1,.35-1.647.9058.9058,0,0,1,1.257.267.6741.6741,0,0,1,.095.514.683.683,0,0,1-.295.431.5039.5039,0,0,1-.696-.149.3588.3588,0,0,1,.106-.495.2193.2193,0,1,0-.24-.367.798.798,0,0,0-.234,1.103.943.943,0,0,0,1.303.276,1.1255,1.1255,0,0,0,.329-1.553,1.3462,1.3462,0,0,0-1.864-.395,1.633,1.633,0,0,0-.479,2.255,1.9833,1.9833,0,0,0,1.666.901" transform="translate(0.0001 0.0003)"/><path class="cls-3" d="M39.4648,39.9761a1.98,1.98,0,0,0,1.665-.901,1.6323,1.6323,0,0,0-.479-2.255,1.3462,1.3462,0,0,0-1.864.395,1.1208,1.1208,0,0,0,.329,1.553.9436.9436,0,0,0,1.303-.277.7991.7991,0,0,0-.234-1.103.22.22,0,1,0-.24.368.357.357,0,0,1,.156.226.3609.3609,0,0,1-.05.27.5045.5045,0,0,1-.696.148.6856.6856,0,0,1-.2-.946.9.9,0,0,1,.574-.394.9106.9106,0,0,1,.683.127,1.1925,1.1925,0,0,1,.349,1.648,1.544,1.544,0,0,1-2.134.453,1.9839,1.9839,0,0,1-.583-2.745.218.218,0,0,0-.065-.304.2212.2212,0,0,0-.304.064,2.4262,2.4262,0,0,0,.712,3.354,1.9845,1.9845,0,0,0,1.078.319" transform="translate(0.0001 0.0003)"/><path class="cls-3" d="M35.3647,39.977a1.9758,1.9758,0,0,0,1.076-.32,2.4253,2.4253,0,0,0,.712-3.353.22.22,0,1,0-.369.239,1.9839,1.9839,0,0,1-.583,2.745,1.54,1.54,0,0,1-2.134-.454,1.1923,1.1923,0,0,1,.349-1.647.9134.9134,0,0,1,.684-.127.9034.9034,0,0,1,.573.394.6856.6856,0,0,1-.2.946.5019.5019,0,0,1-.696-.149.359.359,0,0,1,.105-.495.2194.2194,0,1,0-.239-.368.7975.7975,0,0,0-.234,1.103.9436.9436,0,0,0,1.303.277,1.1232,1.1232,0,0,0,.329-1.553,1.3462,1.3462,0,0,0-1.864-.395,1.6288,1.6288,0,0,0-.479,2.255,1.9763,1.9763,0,0,0,1.251.858,2.0207,2.0207,0,0,0,.416.044" transform="translate(0.0001 0.0003)"/><path class="cls-3" d="M60.5415,39.8057a.2.2,0,0,0,.22-.169v-18.39a.2274.2274,0,0,0-.44,0v18.39a.2.2,0,0,0,.22.169" transform="translate(0.0001 0.0003)"/><path class="cls-3" d="M52.8423,39.8057c.122,0,.22-.061.22-.137V21.2427c0-.077-.098-.138-.22-.138s-.22.061-.22.138v18.426c0,.076.099.137.22.137" transform="translate(0.0001 0.0003)"/><path class="cls-3" d="M45.1445,39.8057c.121,0,.219-.055.219-.124V21.2177c0-.069-.098-.125-.219-.125s-.22.056-.22.125v18.464c0,.069.099.124.22.124" transform="translate(0.0001 0.0003)"/><path class="cls-3" d="M56.66,39.8057c.122,0,.22-.066.22-.148V21.3137c0-.082-.098-.148-.22-.148s-.22.066-.22.148v18.344c0,.082.099.148.22.148" transform="translate(0.0001 0.0003)"/><path class="cls-3" d="M48.9614,39.8057c.122,0,.22-.056.22-.126V21.37c0-.07-.098-.127-.22-.127-.12,0-.219.057-.219.127V39.68c0,.07.099.126.219.126" transform="translate(0.0001 0.0003)"/><path class="cls-3" d="M1.71,39.95H33.404a.22.22,0,0,0,0-.44H1.71a.22.22,0,0,0,0,.44" transform="translate(0.0001 0.0003)"/><path class="cls-3" d="M2.31,41.1152a.1991.1991,0,0,0,.219-.172v-19.85a.2.2,0,0,0-.219-.172.2.2,0,0,0-.22.172v19.85a.2.2,0,0,0,.22.172" transform="translate(0.0001 0.0003)"/><path class="cls-3" d="M4.2622,39.9473a1.9665,1.9665,0,0,0,1.078-.32,2.4262,2.4262,0,0,0,.711-3.352.22.22,0,0,0-.369.239,1.9862,1.9862,0,0,1-.582,2.745,1.5448,1.5448,0,0,1-2.135-.454,1.192,1.192,0,0,1,.349-1.647.91.91,0,0,1,1.258.268.6852.6852,0,0,1-.201.945.5023.5023,0,0,1-.695-.149.3581.3581,0,0,1,.105-.495.2193.2193,0,1,0-.24-.367.7955.7955,0,0,0-.233,1.102.9424.9424,0,0,0,1.302.277,1.1255,1.1255,0,0,0,.33-1.553,1.3492,1.3492,0,0,0-1.865-.396,1.633,1.633,0,0,0-.478,2.255,1.9815,1.9815,0,0,0,1.665.902" transform="translate(0.0001 0.0003)"/><path class="cls-3" d="M8.3633,39.9473a1.9829,1.9829,0,0,0,1.665-.901,1.6333,1.6333,0,0,0-.479-2.256,1.349,1.349,0,0,0-1.864.395,1.1256,1.1256,0,0,0,.33,1.554.9432.9432,0,0,0,1.303-.277.8019.8019,0,0,0,.111-.6.7866.7866,0,0,0-.346-.502.219.219,0,1,0-.239.367.3556.3556,0,0,1,.155.226.35.35,0,0,1-.05.269.5015.5015,0,0,1-.695.149.6844.6844,0,0,1-.201-.945.9114.9114,0,0,1,1.257-.268,1.1923,1.1923,0,0,1,.35,1.647,1.5456,1.5456,0,0,1-2.135.454,1.9825,1.9825,0,0,1-.582-2.745.22.22,0,1,0-.369-.239,2.4215,2.4215,0,0,0,.712,3.352,1.9716,1.9716,0,0,0,1.077.32" transform="translate(0.0001 0.0003)"/><path class="cls-3" d="M11.9614,39.957a1.9692,1.9692,0,0,0,1.077-.32,2.4263,2.4263,0,0,0,.711-3.353.2194.2194,0,0,0-.368.239,1.9872,1.9872,0,0,1-.582,2.746,1.5444,1.5444,0,0,1-2.135-.454,1.1927,1.1927,0,0,1,.348-1.647.9124.9124,0,0,1,1.259.267.68.68,0,0,1,.094.515.6726.6726,0,0,1-.295.429.5.5,0,0,1-.695-.147.3579.3579,0,0,1,.104-.495.2194.2194,0,1,0-.239-.368.796.796,0,0,0-.233,1.102.94.94,0,0,0,1.302.278,1.1246,1.1246,0,0,0,.33-1.553,1.35,1.35,0,0,0-1.865-.396,1.6325,1.6325,0,0,0-.48,2.254,1.986,1.986,0,0,0,1.667.903" transform="translate(0.0001 0.0003)"/><path class="cls-3" d="M16.061,39.958a2.0257,2.0257,0,0,0,.415-.044,1.9738,1.9738,0,0,0,1.251-.858,1.6324,1.6324,0,0,0-.479-2.256,1.3482,1.3482,0,0,0-1.864.396,1.1252,1.1252,0,0,0,.329,1.553.9428.9428,0,0,0,.709.131.9318.9318,0,0,0,.594-.409.7857.7857,0,0,0,.112-.599.7986.7986,0,0,0-.346-.503.2194.2194,0,0,0-.239.368.3544.3544,0,0,1,.155.226.35.35,0,0,1-.05.269.5019.5019,0,0,1-.696.147.6843.6843,0,0,1-.2-.944.9111.9111,0,0,1,1.257-.267,1.1914,1.1914,0,0,1,.35,1.647,1.5441,1.5441,0,0,1-2.135.454,1.987,1.987,0,0,1-.582-2.746.22.22,0,0,0-.37-.239,2.4275,2.4275,0,0,0,.713,3.353,1.966,1.966,0,0,0,1.076.321" transform="translate(0.0001 0.0003)"/><path class="cls-3" d="M19.66,39.9663a1.9672,1.9672,0,0,0,1.076-.319,2.4277,2.4277,0,0,0,.713-3.353.22.22,0,0,0-.369.239,1.9861,1.9861,0,0,1-.583,2.745,1.5433,1.5433,0,0,1-2.134-.453,1.1918,1.1918,0,0,1,.349-1.647.9058.9058,0,0,1,1.257.267.6847.6847,0,0,1-.2.945.5035.5035,0,0,1-.696-.149.3594.3594,0,0,1,.105-.495.219.219,0,1,0-.239-.367.7971.7971,0,0,0-.234,1.103.9433.9433,0,0,0,1.303.276,1.1246,1.1246,0,0,0,.33-1.553,1.3476,1.3476,0,0,0-1.865-.395,1.6321,1.6321,0,0,0-.479,2.255,1.9846,1.9846,0,0,0,1.666.901" transform="translate(0.0001 0.0003)"/><path class="cls-3" d="M23.76,39.9663a1.9863,1.9863,0,0,0,1.667-.901,1.6315,1.6315,0,0,0-.48-2.255,1.3462,1.3462,0,0,0-1.864.395,1.1255,1.1255,0,0,0,.329,1.553.944.944,0,0,0,1.303-.276.7971.7971,0,0,0-.234-1.103.219.219,0,1,0-.239.367.3585.3585,0,0,1,.105.495.5053.5053,0,0,1-.696.149.6847.6847,0,0,1-.2-.945.9072.9072,0,0,1,1.258-.267,1.1937,1.1937,0,0,1,.349,1.648,1.546,1.546,0,0,1-2.135.452,1.986,1.986,0,0,1-.582-2.745.22.22,0,0,0-.369-.239,2.4253,2.4253,0,0,0,.712,3.353,1.9672,1.9672,0,0,0,1.076.319" transform="translate(0.0001 0.0003)"/><path class="cls-3" d="M27.3589,39.977a1.9766,1.9766,0,0,0,1.077-.32,2.4248,2.4248,0,0,0,.711-3.354.22.22,0,0,0-.368.24,1.9839,1.9839,0,0,1-.583,2.745,1.54,1.54,0,0,1-2.134-.454,1.1913,1.1913,0,0,1,.349-1.647.9109.9109,0,0,1,1.257.267.6847.6847,0,0,1-.201.946.5084.5084,0,0,1-.378.07.5027.5027,0,0,1-.317-.219.3585.3585,0,0,1,.105-.495.2194.2194,0,1,0-.239-.368.796.796,0,0,0-.234,1.103.9418.9418,0,0,0,1.302.277,1.126,1.126,0,0,0,.331-1.553,1.3517,1.3517,0,0,0-1.865-.395,1.6328,1.6328,0,0,0-.479,2.255,1.9738,1.9738,0,0,0,1.251.858,2.0184,2.0184,0,0,0,.415.044" transform="translate(0.0001 0.0003)"/><path class="cls-3" d="M31.459,39.977a2.0257,2.0257,0,0,0,.415-.044,1.9738,1.9738,0,0,0,1.251-.858,1.6313,1.6313,0,0,0-.479-2.255,1.3508,1.3508,0,0,0-1.865.395,1.1246,1.1246,0,0,0,.33,1.553.944.944,0,0,0,1.303-.277.7984.7984,0,0,0-.234-1.103.2194.2194,0,1,0-.239.368.3575.3575,0,0,1,.104.496.5028.5028,0,0,1-.695.148.6856.6856,0,0,1-.2-.946.9107.9107,0,0,1,1.257-.267,1.1928,1.1928,0,0,1,.35,1.648,1.5436,1.5436,0,0,1-2.136.453,1.9825,1.9825,0,0,1-.582-2.745.22.22,0,0,0-.369-.24,2.4262,2.4262,0,0,0,.712,3.354,1.9766,1.9766,0,0,0,1.077.32" transform="translate(0.0001 0.0003)"/><path class="cls-3" d="M6.2812,39.8057a.2.2,0,0,0,.219-.169v-18.39a.2267.2267,0,0,0-.439,0v18.39a.2.2,0,0,0,.22.169" transform="translate(0.0001 0.0003)"/><path class="cls-3" d="M13.98,39.8057c.121,0,.219-.061.219-.137V21.2427c0-.077-.098-.138-.219-.138s-.22.061-.22.138v18.426c0,.076.099.137.22.137" transform="translate(0.0001 0.0003)"/><path class="cls-3" d="M21.6782,39.8057c.121,0,.22-.055.22-.124V21.2177c0-.069-.099-.125-.22-.125s-.219.056-.219.125v18.464c0,.069.098.124.219.124" transform="translate(0.0001 0.0003)"/><path class="cls-3" d="M10.1621,39.8057c.122,0,.22-.066.22-.148V21.3137c0-.082-.098-.148-.22-.148s-.22.066-.22.148v18.344c0,.082.099.148.22.148" transform="translate(0.0001 0.0003)"/><path class="cls-3" d="M17.8613,39.8057c.121,0,.22-.056.22-.126V21.37c0-.07-.099-.127-.22-.127s-.22.057-.22.127V39.68c0,.07.098.126.22.126" transform="translate(0.0001 0.0003)"/><path class="cls-3" d="M33.4185,2.3325h31.695a.219.219,0,1,1,0,.438H33.4185a.219.219,0,1,1,0-.438" transform="translate(0.0001 0.0003)"/><path class="cls-3" d="M64.5142,1.166a.1991.1991,0,0,1,.219.172v19.85a.2261.2261,0,0,1-.439,0V1.338a.2.2,0,0,1,.22-.172" transform="translate(0.0001 0.0003)"/><path class="cls-3" d="M62.56,2.333a2.0427,2.0427,0,0,1,.416.044,1.9694,1.9694,0,0,1,1.25.859,1.6279,1.6279,0,0,1-.479,2.256,1.3481,1.3481,0,0,1-1.864-.396,1.125,1.125,0,0,1,.329-1.553.9448.9448,0,0,1,1.304.277.8.8,0,0,1-.235,1.103.22.22,0,0,1-.24-.369.357.357,0,0,0,.106-.495.5022.5022,0,0,0-.695-.147.68.68,0,0,0-.201.944.8968.8968,0,0,0,.574.394.9068.9068,0,0,0,.683-.126,1.1923,1.1923,0,0,0,.35-1.648,1.5432,1.5432,0,0,0-2.134-.454,1.9826,1.9826,0,0,0-.583,2.745.22.22,0,0,1-.369.24,2.4239,2.4239,0,0,1,.711-3.353,1.9776,1.9776,0,0,1,1.077-.321" transform="translate(0.0001 0.0003)"/><path class="cls-3" d="M58.46,2.333a1.9743,1.9743,0,0,1,1.076.321,2.4229,2.4229,0,0,1,.712,3.353.22.22,0,0,1-.369-.24,1.9835,1.9835,0,0,0-.582-2.745,1.5441,1.5441,0,0,0-2.135.454,1.1923,1.1923,0,0,0,.35,1.648.911.911,0,0,0,1.257-.267.6832.6832,0,0,0-.201-.945.5.5,0,0,0-.695.147.3556.3556,0,0,0,.105.495.22.22,0,0,1-.239.369.7974.7974,0,0,1-.235-1.103.9429.9429,0,0,1,1.303-.277,1.1244,1.1244,0,0,1,.33,1.553,1.3481,1.3481,0,0,1-1.864.396,1.6279,1.6279,0,0,1-.479-2.256,1.9694,1.9694,0,0,1,1.25-.859,2.0353,2.0353,0,0,1,.416-.044" transform="translate(0.0001 0.0003)"/><path class="cls-3" d="M54.86,2.3237a1.9883,1.9883,0,0,1,1.666.903,1.6312,1.6312,0,0,1-.478,2.255,1.3514,1.3514,0,0,1-1.865-.395,1.1236,1.1236,0,0,1,.33-1.553.9418.9418,0,0,1,1.303.276.7979.7979,0,0,1-.234,1.102.2193.2193,0,1,1-.24-.367.3586.3586,0,0,0,.106-.495.501.501,0,0,0-.696-.148.6852.6852,0,0,0-.201.944.9108.9108,0,0,0,1.258.267,1.1908,1.1908,0,0,0,.349-1.647,1.5412,1.5412,0,0,0-2.134-.453,1.983,1.983,0,0,0-.583,2.746.22.22,0,1,1-.369.238,2.4239,2.4239,0,0,1,.712-3.352,1.966,1.966,0,0,1,1.076-.321" transform="translate(0.0001 0.0003)"/><path class="cls-3" d="M50.7617,2.3247a1.96,1.96,0,0,1,1.076.32,2.4264,2.4264,0,0,1,.712,3.352.22.22,0,0,1-.369-.238,1.9863,1.9863,0,0,0-.582-2.746,1.5452,1.5452,0,0,0-2.135.453,1.1917,1.1917,0,0,0,.349,1.647.9092.9092,0,0,0,1.258-.267.6828.6828,0,0,0-.201-.944.5.5,0,0,0-.695.148.358.358,0,0,0,.105.495.219.219,0,1,1-.239.367.7945.7945,0,0,1-.234-1.102.9413.9413,0,0,1,1.303-.276,1.125,1.125,0,0,1,.329,1.553,1.3508,1.3508,0,0,1-1.864.395,1.6336,1.6336,0,0,1-.48-2.256,1.9863,1.9863,0,0,1,1.667-.901" transform="translate(0.0001 0.0003)"/><path class="cls-3" d="M47.1626,2.3159a1.98,1.98,0,0,1,1.666.9,1.6328,1.6328,0,0,1-.479,2.255,1.3355,1.3355,0,0,1-1.014.19,1.3509,1.3509,0,0,1-.851-.584,1.1241,1.1241,0,0,1,.33-1.553.9443.9443,0,0,1,1.303.275.8015.8015,0,0,1-.234,1.105.22.22,0,0,1-.24-.369.3584.3584,0,0,0,.106-.495.5033.5033,0,0,0-.696-.148.6842.6842,0,0,0-.2.945.9082.9082,0,0,0,1.257.267,1.1911,1.1911,0,0,0,.349-1.647,1.5445,1.5445,0,0,0-2.134-.454,1.9861,1.9861,0,0,0-.582,2.746.22.22,0,0,1-.37.239,2.4279,2.4279,0,0,1,.711-3.353,1.987,1.987,0,0,1,1.078-.319" transform="translate(0.0001 0.0003)"/><path class="cls-3" d="M43.0625,2.3149a1.974,1.974,0,0,1,1.077.32,2.427,2.427,0,0,1,.711,3.353.2194.2194,0,0,1-.368-.239,1.9873,1.9873,0,0,0-.583-2.746,1.5449,1.5449,0,0,0-2.135.454,1.1923,1.1923,0,0,0,.35,1.647.9082.9082,0,0,0,1.257-.267.6842.6842,0,0,0-.2-.945.5027.5027,0,0,0-.696.148.3584.3584,0,0,0,.106.495.22.22,0,0,1-.24.369.7986.7986,0,0,1-.234-1.103.9423.9423,0,0,1,1.303-.277,1.125,1.125,0,0,1,.329,1.553,1.3447,1.3447,0,0,1-1.864.394,1.6319,1.6319,0,0,1-.479-2.254,1.9819,1.9819,0,0,1,1.666-.902" transform="translate(0.0001 0.0003)"/><path class="cls-3" d="M39.4648,2.3057a1.9829,1.9829,0,0,1,1.665.901,1.632,1.632,0,0,1-.479,2.255,1.3462,1.3462,0,0,1-1.864-.395,1.1208,1.1208,0,0,1,.329-1.553.9442.9442,0,0,1,1.303.276.8.8,0,0,1-.234,1.104.22.22,0,0,1-.24-.369.3549.3549,0,0,0,.156-.225.3617.3617,0,0,0-.05-.27.5034.5034,0,0,0-.696-.147.6832.6832,0,0,0-.2.944.9063.9063,0,0,0,1.257.267,1.1908,1.1908,0,0,0,.349-1.647,1.5449,1.5449,0,0,0-2.134-.453,1.9839,1.9839,0,0,0-.583,2.745.2168.2168,0,0,1-.065.303.22.22,0,0,1-.304-.064,2.4239,2.4239,0,0,1,.712-3.352,1.9689,1.9689,0,0,1,1.078-.32" transform="translate(0.0001 0.0003)"/><path class="cls-3" d="M35.3647,2.3047a1.9768,1.9768,0,0,1,1.076.321,2.4239,2.4239,0,0,1,.712,3.352.22.22,0,0,1-.369-.238,1.9849,1.9849,0,0,0-.583-2.746,1.5412,1.5412,0,0,0-2.134.453,1.1918,1.1918,0,0,0,.349,1.647.9058.9058,0,0,0,1.257-.267.6832.6832,0,0,0-.2-.944.5023.5023,0,0,0-.696.147.3588.3588,0,0,0,.105.495.22.22,0,0,1-.239.369.7975.7975,0,0,1-.234-1.103.9436.9436,0,0,1,1.303-.277,1.1227,1.1227,0,0,1,.329,1.553,1.3462,1.3462,0,0,1-1.864.395,1.6288,1.6288,0,0,1-.479-2.255,1.9921,1.9921,0,0,1,1.667-.902" transform="translate(0.0001 0.0003)"/><path class="cls-3" d="M60.5415,2.4756a.2.2,0,0,1,.22.17v18.389a.2274.2274,0,0,1-.44,0V2.6456a.2.2,0,0,1,.22-.17" transform="translate(0.0001 0.0003)"/><path class="cls-3" d="M52.8423,2.4756c.122,0,.22.061.22.137v18.426c0,.077-.098.138-.22.138s-.22-.061-.22-.138V2.6126c0-.076.099-.137.22-.137" transform="translate(0.0001 0.0003)"/><path class="cls-3" d="M45.1445,2.4756c.121,0,.219.056.219.125v18.465c0,.067-.098.124-.219.124s-.22-.057-.22-.124V2.6006c0-.069.099-.125.22-.125" transform="translate(0.0001 0.0003)"/><path class="cls-3" d="M56.66,2.4756c.122,0,.22.066.22.148v18.344c0,.082-.098.149-.22.149s-.22-.067-.22-.149V2.6236c0-.082.099-.148.22-.148" transform="translate(0.0001 0.0003)"/><path class="cls-3" d="M48.9614,2.4756c.122,0,.22.057.22.127v18.31c0,.069-.098.126-.22.126-.12,0-.219-.057-.219-.126V2.6026c0-.07.099-.127.219-.127" transform="translate(0.0001 0.0003)"/><path class="cls-3" d="M1.71,2.3325H33.404a.219.219,0,1,1,0,.438H1.71a.219.219,0,1,1,0-.438" transform="translate(0.0001 0.0003)"/><path class="cls-3" d="M2.31,1.166a.2.2,0,0,1,.219.172v19.85a.2.2,0,0,1-.219.172.2.2,0,0,1-.22-.172V1.338a.2.2,0,0,1,.22-.172" transform="translate(0.0001 0.0003)"/><path class="cls-3" d="M4.2622,2.335a1.9821,1.9821,0,0,1,1.078.319,2.4273,2.4273,0,0,1,.711,3.353.22.22,0,0,1-.369-.24A1.9862,1.9862,0,0,0,5.1,3.022a1.5456,1.5456,0,0,0-2.135.454,1.1934,1.1934,0,0,0,.349,1.648.9122.9122,0,0,0,1.258-.268.6839.6839,0,0,0-.201-.944.5009.5009,0,0,0-.695.147.358.358,0,0,0,.105.495.22.22,0,0,1-.24.369.7974.7974,0,0,1-.233-1.103A.9424.9424,0,0,1,4.61,3.543a1.1251,1.1251,0,0,1,.33,1.553,1.35,1.35,0,0,1-1.865.396,1.6342,1.6342,0,0,1-.478-2.256,1.98,1.98,0,0,1,1.665-.901" transform="translate(0.0001 0.0003)"/><path class="cls-3" d="M8.3633,2.335a1.98,1.98,0,0,1,1.665.901,1.6335,1.6335,0,0,1-.479,2.256,1.3484,1.3484,0,0,1-1.864-.396,1.1244,1.1244,0,0,1,.33-1.553.9432.9432,0,0,1,1.303.277.8019.8019,0,0,1,.111.6.7937.7937,0,0,1-.346.503.22.22,0,0,1-.239-.369.3556.3556,0,0,0,.155-.226.35.35,0,0,0-.05-.269.5062.5062,0,0,0-.317-.218.49.49,0,0,0-.378.071.684.684,0,0,0-.201.945.912.912,0,0,0,1.257.267,1.1937,1.1937,0,0,0,.35-1.648,1.5465,1.5465,0,0,0-2.135-.454,1.9835,1.9835,0,0,0-.582,2.745.22.22,0,0,1-.369.24,2.4229,2.4229,0,0,1,.712-3.353,1.9788,1.9788,0,0,1,1.077-.319" transform="translate(0.0001 0.0003)"/><path class="cls-3" d="M11.9614,2.3247a1.9609,1.9609,0,0,1,1.077.32,2.4253,2.4253,0,0,1,.711,3.352.2191.2191,0,1,1-.368-.238,1.9872,1.9872,0,0,0-.582-2.746,1.545,1.545,0,0,0-2.135.453,1.1923,1.1923,0,0,0,.348,1.647.9106.9106,0,0,0,1.259-.267.6852.6852,0,0,0-.201-.944.5.5,0,0,0-.695.148.3581.3581,0,0,0,.104.495.219.219,0,1,1-.239.367.7955.7955,0,0,1-.233-1.102.94.94,0,0,1,1.302-.276,1.1238,1.1238,0,0,1,.33,1.553,1.3507,1.3507,0,0,1-1.865.395,1.6335,1.6335,0,0,1-.48-2.255,1.9874,1.9874,0,0,1,1.667-.902" transform="translate(0.0001 0.0003)"/><path class="cls-3" d="M16.061,2.3237a1.9921,1.9921,0,0,1,1.666.902,1.6324,1.6324,0,0,1-.479,2.256,1.35,1.35,0,0,1-1.864-.395,1.1247,1.1247,0,0,1,.329-1.553.9413.9413,0,0,1,1.303.276.7945.7945,0,0,1-.234,1.102.219.219,0,1,1-.239-.367.3544.3544,0,0,0,.155-.226.35.35,0,0,0-.05-.269.501.501,0,0,0-.696-.148.6847.6847,0,0,0-.2.944.9093.9093,0,0,0,1.257.267,1.191,1.191,0,0,0,.35-1.647,1.5427,1.5427,0,0,0-2.135-.453,1.9872,1.9872,0,0,0-.582,2.746.22.22,0,0,1-.37.238,2.4263,2.4263,0,0,1,.713-3.352,1.966,1.966,0,0,1,1.076-.321" transform="translate(0.0001 0.0003)"/><path class="cls-3" d="M19.66,2.3149a1.9683,1.9683,0,0,1,1.076.32,2.4273,2.4273,0,0,1,.713,3.353.22.22,0,0,1-.369-.239,1.9873,1.9873,0,0,0-.583-2.746,1.5436,1.5436,0,0,0-2.134.454,1.192,1.192,0,0,0,.349,1.647.9082.9082,0,0,0,1.257-.267.6842.6842,0,0,0-.2-.945.5033.5033,0,0,0-.696.148.359.359,0,0,0,.105.495.22.22,0,1,1-.239.369.7977.7977,0,0,1-.234-1.103.9436.9436,0,0,1,1.303-.277,1.1241,1.1241,0,0,1,.33,1.553,1.3483,1.3483,0,0,1-.851.584,1.3338,1.3338,0,0,1-1.014-.19,1.631,1.631,0,0,1-.479-2.254,1.9832,1.9832,0,0,1,1.666-.902" transform="translate(0.0001 0.0003)"/><path class="cls-3" d="M23.76,2.3149a1.9863,1.9863,0,0,1,1.667.901,1.6313,1.6313,0,0,1-.48,2.255,1.333,1.333,0,0,1-1.014.19,1.3488,1.3488,0,0,1-.85-.584,1.125,1.125,0,0,1,.329-1.553.9447.9447,0,0,1,1.303.275.8.8,0,0,1-.234,1.105.22.22,0,0,1-.239-.369.3581.3581,0,0,0,.105-.495.5041.5041,0,0,0-.696-.148.6842.6842,0,0,0-.2.945.91.91,0,0,0,1.258.267,1.1929,1.1929,0,0,0,.349-1.647,1.5448,1.5448,0,0,0-2.135-.454,1.9872,1.9872,0,0,0-.582,2.746.22.22,0,0,1-.369.239,2.4248,2.4248,0,0,1,.712-3.353,1.9683,1.9683,0,0,1,1.076-.32" transform="translate(0.0001 0.0003)"/><path class="cls-3" d="M27.3589,2.3047a1.9776,1.9776,0,0,1,1.077.321,2.4224,2.4224,0,0,1,.711,3.352.2194.2194,0,0,1-.368-.239,1.9839,1.9839,0,0,0-.583-2.745,1.5412,1.5412,0,0,0-2.134.453,1.1908,1.1908,0,0,0,.349,1.647.9082.9082,0,0,0,1.257-.267.6724.6724,0,0,0,.095-.513.6793.6793,0,0,0-.296-.431.4955.4955,0,0,0-.378-.071.5013.5013,0,0,0-.317.218.3617.3617,0,0,0-.05.27.3535.3535,0,0,0,.155.225.22.22,0,0,1-.239.369.7965.7965,0,0,1-.234-1.103.9418.9418,0,0,1,1.302-.277,1.1255,1.1255,0,0,1,.331,1.553,1.35,1.35,0,0,1-1.865.395,1.6328,1.6328,0,0,1-.479-2.255,1.9921,1.9921,0,0,1,1.666-.902" transform="translate(0.0001 0.0003)"/><path class="cls-3" d="M31.459,2.3047a1.9921,1.9921,0,0,1,1.666.902,1.6311,1.6311,0,0,1-.479,2.255,1.35,1.35,0,0,1-1.865-.395,1.1241,1.1241,0,0,1,.33-1.553.9446.9446,0,0,1,1.303.276.7994.7994,0,0,1-.234,1.104.22.22,0,0,1-.239-.369.3561.3561,0,0,0,.104-.495.5016.5016,0,0,0-.695-.147.6832.6832,0,0,0-.2.944.9081.9081,0,0,0,1.257.267,1.191,1.191,0,0,0,.35-1.647,1.5436,1.5436,0,0,0-2.136-.453,1.9825,1.9825,0,0,0-.582,2.745.22.22,0,0,1-.369.239,2.4239,2.4239,0,0,1,.712-3.352,1.9776,1.9776,0,0,1,1.077-.321" transform="translate(0.0001 0.0003)"/><path class="cls-3" d="M6.2812,2.4756a.2.2,0,0,1,.219.17v18.389a.2267.2267,0,0,1-.439,0V2.6456a.2.2,0,0,1,.22-.17" transform="translate(0.0001 0.0003)"/><path class="cls-3" d="M13.98,2.4756c.121,0,.219.061.219.137v18.426c0,.077-.098.138-.219.138s-.22-.061-.22-.138V2.6126c0-.076.099-.137.22-.137" transform="translate(0.0001 0.0003)"/><path class="cls-3" d="M21.6782,2.4756c.121,0,.22.056.22.125v18.465c0,.067-.099.124-.22.124s-.219-.057-.219-.124V2.6006c0-.069.098-.125.219-.125" transform="translate(0.0001 0.0003)"/><path class="cls-3" d="M10.1621,2.4756c.122,0,.22.066.22.148v18.344c0,.082-.098.149-.22.149s-.22-.067-.22-.149V2.6236c0-.082.099-.148.22-.148" transform="translate(0.0001 0.0003)"/><path class="cls-3" d="M17.8613,2.4756c.121,0,.22.057.22.127v18.31c0,.069-.099.126-.22.126s-.22-.057-.22-.126V2.6026c0-.07.098-.127.22-.127" transform="translate(0.0001 0.0003)"/><path class="cls-3" d="M33.6309,39.73v-.22h3.595v.176c0,.066.098.12.22.12s.219-.054.219-.12V39.51h3.41v.176c0,.066.099.12.221.12s.218-.054.218-.12V39.51h22.781V21.36h.219a.2183.2183,0,0,0,.219-.219V39.73a.2185.2185,0,0,1-.219.22H33.4119a.22.22,0,0,0,.219-.22" transform="translate(0.0001 0.0003)"/><path class="cls-3" d="M41.5142,26.9126v12.598h-.439V27.4946c.155-.187.297-.384.439-.582" transform="translate(0.0001 0.0003)"/><path class="cls-3" d="M41.5142,39.686c0,.066-.098.12-.219.12s-.22-.054-.22-.12V39.51h.439Z" transform="translate(0.0001 0.0003)"/><path class="cls-3" d="M37.6646,30.1338V39.51h-.439V30.34c.15-.062.294-.136.439-.206" transform="translate(0.0001 0.0003)"/><path class="cls-3" d="M37.6646,39.686c0,.066-.097.12-.219.12s-.22-.054-.22-.12V39.51h.439Z" transform="translate(0.0001 0.0003)"/><path class="cls-3" d="M2.31,21.36h.219V39.51h22.78v.176c0,.066.099.119.219.119s.219-.053.219-.119V39.51h3.412v.176c0,.066.098.119.218.119.122,0,.22-.053.22-.119V39.51h3.595v.22a.2206.2206,0,0,0,.22.22H2.31a.22.22,0,0,1-.22-.22V21.14a.2194.2194,0,0,0,.22.22" transform="translate(0.0001 0.0003)"/><path class="cls-3" d="M33.1919,39.73V31.091c.074.001.146.01.22.01s.145-.009.219-.01V39.73a.22.22,0,1,1-.439,0" transform="translate(0.0001 0.0003)"/><path class="cls-3" d="M25.7471,27.4946v12.016h-.438V26.9116c.141.198.283.396.438.583" transform="translate(0.0001 0.0003)"/><path class="cls-3" d="M25.7471,39.686c0,.066-.098.12-.22.12-.12,0-.218-.054-.218-.12V39.51h.438Z" transform="translate(0.0001 0.0003)"/><path class="cls-3" d="M29.5967,30.3394V39.51h-.438v-9.377c.145.07.288.143.438.206" transform="translate(0.0001 0.0003)"/><path class="cls-3" d="M29.5967,39.686c0,.066-.098.12-.22.12-.12,0-.218-.054-.218-.12V39.51h.438Z" transform="translate(0.0001 0.0003)"/><path class="cls-3" d="M64.5142,20.9209h-.22V2.7709h-22.78v-.176c0-.066-.098-.119-.219-.119s-.22.053-.22.119v.176h-3.411v-.176c0-.066-.097-.119-.218-.119s-.221.053-.221.119v.176h-3.594v-.22a.2189.2189,0,0,0-.22-.218h31.103a.2175.2175,0,0,1,.219.218v18.59a.2192.2192,0,0,0-.219-.22" transform="translate(0.0001 0.0003)"/><path class="cls-3" d="M64.5142,21.36H43.3612c.002-.073.011-.145.011-.22,0-.073-.009-.145-.011-.219h21.153a.22.22,0,0,1,0,.439" transform="translate(0.0001 0.0003)"/><path class="cls-3" d="M41.0752,14.7866V2.7706h.439V15.37c-.142-.199-.284-.396-.439-.583" transform="translate(0.0001 0.0003)"/><path class="cls-3" d="M41.0752,2.5952c0-.066.099-.12.22-.12s.219.054.219.12v.176h-.439Z" transform="translate(0.0001 0.0003)"/><path class="cls-3" d="M37.2256,11.9429V2.7709h.439v9.377c-.145-.069-.289-.143-.439-.205" transform="translate(0.0001 0.0003)"/><path class="cls-3" d="M37.2256,2.5952c0-.066.099-.12.22-.12s.219.054.219.12v.176h-.439Z" transform="translate(0.0001 0.0003)"/><path class="cls-3" d="M2.31,2.3325h31.102a.2192.2192,0,0,0-.22.219v.219h-3.595v-.175c0-.066-.098-.12-.22-.12-.12,0-.218.054-.218.12v.175h-3.412v-.175c0-.066-.098-.12-.219-.12s-.219.054-.219.12v.175H2.5286v18.15H2.31a.22.22,0,0,0-.22.22V2.5515a.2185.2185,0,0,1,.22-.219" transform="translate(0.0001 0.0003)"/><path class="cls-3" d="M2.31,20.9209h21.152c-.002.075-.01.146-.01.22s.008.146.01.219H2.31a.22.22,0,1,1,0-.439" transform="translate(0.0001 0.0003)"/><path class="cls-3" d="M33.6309,2.5513v8.641c-.074-.002-.146-.012-.219-.012s-.146.01-.22.012V2.5513a.22.22,0,0,1,.439,0" transform="translate(0.0001 0.0003)"/><path class="cls-3" d="M25.3086,15.37V2.7706h.438v12.017c-.154.186-.296.384-.438.582" transform="translate(0.0001 0.0003)"/><path class="cls-3" d="M25.3086,2.5952c0-.066.099-.12.219-.12s.219.054.219.12v.176h-.438Z" transform="translate(0.0001 0.0003)"/><path class="cls-3" d="M29.1582,12.1475V2.7715h.438v9.171c-.149.062-.293.136-.438.205" transform="translate(0.0001 0.0003)"/><path class="cls-3" d="M29.1582,2.5952c0-.066.098-.12.219-.12s.219.054.219.12v.176h-.438Z" transform="translate(0.0001 0.0003)"/><path class="cls-3" d="M23.4513,21.1406a9.9605,9.9605,0,1,1,9.96,9.96,9.9712,9.9712,0,0,1-9.96-9.96m.389,0a9.571,9.571,0,1,0,9.571-9.571,9.5827,9.5827,0,0,0-9.571,9.571" transform="translate(0.0001 0.0003)"/><path class="cls-3" d="M33.8657,30.9224a4.5006,4.5006,0,0,0,3.546-1.659,3.06,3.06,0,0,0,.641-2.399,3.2178,3.2178,0,0,0-1.432-2.176,3.0364,3.0364,0,0,0-3.999.59,1.9751,1.9751,0,0,0-.426,1.572.1945.1945,0,1,0,.382-.073,1.58,1.58,0,0,1,.351-1.257,2.6355,2.6355,0,0,1,3.476-.507,2.8251,2.8251,0,0,1,1.264,1.912,2.6786,2.6786,0,0,1-.561,2.096,4.2329,4.2329,0,0,1-5.58.816,4.532,4.532,0,0,1-2.022-3.062,4.29,4.29,0,0,1,.9-3.36,6.6865,6.6865,0,0,1,3.072-2.091,7.0837,7.0837,0,0,0,3.245-2.216,4.6723,4.6723,0,0,0,.978-3.663,4.9134,4.9134,0,0,0-2.189-3.326,4.6345,4.6345,0,0,0-6.102.9,3.0672,3.0672,0,0,0-.64,2.399,3.2166,3.2166,0,0,0,1.432,2.176,3.0363,3.0363,0,0,0,3.999-.591,1.97,1.97,0,0,0,.426-1.571.19.19,0,0,0-.227-.155.1925.1925,0,0,0-.155.227,1.5825,1.5825,0,0,1-.35,1.257,2.637,2.637,0,0,1-3.477.508,2.8281,2.8281,0,0,1-1.263-1.912,2.677,2.677,0,0,1,.561-2.097,4.2339,4.2339,0,0,1,5.579-.817,4.5284,4.5284,0,0,1,2.022,3.063,4.2905,4.2905,0,0,1-.9,3.361,6.7035,6.7035,0,0,1-3.071,2.091,7.07,7.07,0,0,0-3.246,2.215,4.6713,4.6713,0,0,0-.978,3.663,4.9074,4.9074,0,0,0,2.19,3.325,4.6116,4.6116,0,0,0,2.554.761" transform="translate(0.0001 0.0003)"/><path class="cls-3" d="M28.85,28.7021a3.0334,3.0334,0,0,0,1.926-.68,3.2144,3.2144,0,0,0,1.168-2.328,3.0327,3.0327,0,0,0-2.511-3.167,1.9718,1.9718,0,0,0-1.573.415.195.195,0,0,0-.021.275.1928.1928,0,0,0,.274.021,1.5862,1.5862,0,0,1,1.265-.326,2.6383,2.6383,0,0,1,2.178,2.758,2.8319,2.8319,0,0,1-1.025,2.05,2.67,2.67,0,0,1-2.097.561,4.234,4.234,0,0,1-3.497-4.423,4.5287,4.5287,0,0,1,1.642-3.281,4.2906,4.2906,0,0,1,3.361-.903,6.7168,6.7168,0,0,1,3.346,1.616,7.068,7.068,0,0,0,3.541,1.702,4.6831,4.6831,0,0,0,3.662-.983,4.9206,4.9206,0,0,0,1.785-3.56,4.6318,4.6318,0,0,0-3.83-4.834,3.0633,3.0633,0,0,0-2.398.645,3.2134,3.2134,0,0,0-1.167,2.328,3.0367,3.0367,0,0,0,2.51,3.168,1.9713,1.9713,0,0,0,1.574-.417.195.195,0,1,0-.254-.296,1.5759,1.5759,0,0,1-1.264.327,2.6378,2.6378,0,0,1-2.178-2.757,2.8323,2.8323,0,0,1,1.025-2.051A2.6738,2.6738,0,0,1,38.3881,14a4.2347,4.2347,0,0,1,3.497,4.424,4.5242,4.5242,0,0,1-1.641,3.281,4.29,4.29,0,0,1-3.361.902,6.6914,6.6914,0,0,1-3.346-1.614,7.0706,7.0706,0,0,0-3.542-1.704,4.6782,4.6782,0,0,0-3.662.986,4.9053,4.9053,0,0,0-1.783,3.558,4.627,4.627,0,0,0,3.829,4.834,3.4161,3.4161,0,0,0,.471.035" transform="translate(0.0001 0.0003)"/><path class="cls-3" d="M37.897,28.0176a5.1256,5.1256,0,0,0,2.277-.548,4.6286,4.6286,0,0,0,2.272-5.732,3.0647,3.0647,0,0,0-1.757-1.755,3.2147,3.2147,0,0,0-2.601.153,3.0332,3.0332,0,0,0-1.487,3.757,1.9647,1.9647,0,0,0,1.147,1.156.1945.1945,0,1,0,.129-.367,1.5869,1.5869,0,0,1-.915-.933,2.64,2.64,0,0,1,1.299-3.265,2.8351,2.8351,0,0,1,2.288-.137,2.6781,2.6781,0,0,1,1.535,1.534,4.235,4.235,0,0,1-2.083,5.241,4.5313,4.5313,0,0,1-3.662.219,4.2931,4.2931,0,0,1-2.462-2.459,6.7071,6.7071,0,0,1-.274-3.706,7.072,7.072,0,0,0-.296-3.919,4.673,4.673,0,0,0-2.682-2.678,4.9133,4.9133,0,0,0-3.976.234,4.63,4.63,0,0,0-2.272,5.733A3.0647,3.0647,0,0,0,26.135,22.3a3.2178,3.2178,0,0,0,2.599-.153,3.0335,3.0335,0,0,0,1.488-3.758,1.9684,1.9684,0,0,0-1.147-1.155.1943.1943,0,1,0-.128.367,1.5826,1.5826,0,0,1,.914.933,2.6383,2.6383,0,0,1-1.299,3.264,2.8191,2.8191,0,0,1-2.288.137,2.6736,2.6736,0,0,1-1.535-1.533,4.2327,4.2327,0,0,1,2.083-5.24,4.53,4.53,0,0,1,3.663-.22,4.2926,4.2926,0,0,1,2.46,2.459,6.6968,6.6968,0,0,1,.275,3.706,7.0784,7.0784,0,0,0,.296,3.918,4.6752,4.6752,0,0,0,2.683,2.68,4.75,4.75,0,0,0,1.698.313" transform="translate(0.0001 0.0003)"/><path class="cls-3" d="M32.3662,26.6a.83.83,0,1,0,.831-.83.8316.8316,0,0,0-.831.83" transform="translate(0.0001 0.0003)"/><path class="cls-3" d="M32.172,26.6a1.025,1.025,0,1,1,1.025,1.025A1.0264,1.0264,0,0,1,32.172,26.6m.389,0a.6355.6355,0,1,0,.636-.635.6363.6363,0,0,0-.636.635" transform="translate(0.0001 0.0003)"/><path class="cls-3" d="M28.1016,22.917a.83.83,0,1,0,1.135.304.83.83,0,0,0-1.135-.304" transform="translate(0.0001 0.0003)"/><path class="cls-3" d="M27.6292,24.1479a1.027,1.027,0,1,1,.889.512,1.0153,1.0153,0,0,1-.889-.512m.57-1.062h0a.6342.6342,0,1,0,.483-.064.6824.6824,0,0,0-.166-.022.6347.6347,0,0,0-.317.086" transform="translate(0.0001 0.0003)"/><path class="cls-3" d="M32.7534,20.0005a1.3174,1.3174,0,1,0,1.799.481,1.3167,1.3167,0,0,0-1.799-.481" transform="translate(0.0001 0.0003)"/><path class="cls-3" d="M33.02,22.6015a1.5073,1.5073,0,1,1,.394.052,1.5236,1.5236,0,0,1-.394-.052m-.17-2.433h0a1.1228,1.1228,0,1,0,1.124,1.944,1.1229,1.1229,0,0,0,.41-1.533,1.1242,1.1242,0,0,0-1.534-.411" transform="translate(0.0001 0.0003)"/><path class="cls-3" d="M29.16,17.3823a.83.83,0,1,0,.304,1.133.8292.8292,0,0,0-.304-1.133" transform="translate(0.0001 0.0003)"/><path class="cls-3" d="M28.2326,18.9883a1.0151,1.0151,0,0,1-.478-.622,1.0242,1.0242,0,0,1,1.503-1.152,1.0248,1.0248,0,0,1,.375,1.399,1.0258,1.0258,0,0,1-1.4.375m.348-1.501a.6365.6365,0,1,0,.482.064.6387.6387,0,0,0-.316-.086.6259.6259,0,0,0-.166.022" transform="translate(0.0001 0.0003)"/><path class="cls-3" d="M34.4814,15.5317a.83.83,0,1,0-.83.83.83.83,0,0,0,.83-.83" transform="translate(0.0001 0.0003)"/><path class="cls-3" d="M32.6271,15.5317a1.025,1.025,0,1,1,1.025,1.023,1.0264,1.0264,0,0,1-1.025-1.023m.389,0a.6355.6355,0,1,0,.636-.636.6359.6359,0,0,0-.636.636" transform="translate(0.0001 0.0003)"/><path class="cls-3" d="M38.7456,19.2148a.83.83,0,1,0-1.133-.304.8287.8287,0,0,0,1.133.304" transform="translate(0.0001 0.0003)"/><path class="cls-3" d="M38.0657,19.4853a1.0219,1.0219,0,1,1,.267.035,1.0641,1.0641,0,0,1-.267-.035m-.052-1.54a.6378.6378,0,1,0,.481-.063.5768.5768,0,0,0-.165-.023.6257.6257,0,0,0-.316.086" transform="translate(0.0001 0.0003)"/><path class="cls-3" d="M37.6885,24.75a.83.83,0,1,0-.304-1.135.8315.8315,0,0,0,.304,1.135" transform="translate(0.0001 0.0003)"/><path class="cls-3" d="M37.591,24.9185v-.001a1.0249,1.0249,0,0,1,.247-1.877,1.0073,1.0073,0,0,1,.778.102,1.0255,1.0255,0,0,1-.247,1.878,1.07,1.07,0,0,1-.267.035,1.03,1.03,0,0,1-.511-.137m.093-.169h0Zm.255-1.333a.6461.6461,0,1,0,.166-.021.6247.6247,0,0,0-.166.021" transform="translate(0.0001 0.0003)"/><path class="cls-3" d="M1.0527,2.5015h64.67a.3619.3619,0,0,0,.362-.362v-.228a.3619.3619,0,0,0-.362-.362H1.0527a.3619.3619,0,0,0-.362.362V2.14a.3619.3619,0,0,0,.362.362" transform="translate(0.0001 0.0003)"/><path class="cls-4" d="M.5249,1.9517h65.724a.5251.5251,0,0,0,.526-.525V.5257A.526.526,0,0,0,66.2489,0H.5259A.526.526,0,0,0,0,.5257v.901a.5249.5249,0,0,0,.525.525" transform="translate(0.0001 0.0003)"/></g></svg>