<svg xmlns="http://www.w3.org/2000/svg" xmlns:xlink="http://www.w3.org/1999/xlink" viewBox="0 0 72.162 46.606"><defs><style>.cls-1{fill:none;}.cls-2{isolation:isolate;}.cls-3{clip-path:url(#clip-path);}.cls-4{fill:#b8b8b8;}.cls-5{clip-path:url(#clip-path-2);}.cls-6{fill:#a1a1a1;}.cls-7{fill:#afadaa;}.cls-8,.cls-83{opacity:0.3;}.cls-8{mix-blend-mode:multiply;}.cls-9{clip-path:url(#clip-path-3);}.cls-10{fill:#bababa;}.cls-11{clip-path:url(#clip-path-4);}.cls-12{clip-path:url(#clip-path-5);}.cls-13{clip-path:url(#clip-path-6);}.cls-14{clip-path:url(#clip-path-7);}.cls-15{clip-path:url(#clip-path-8);}.cls-16{clip-path:url(#clip-path-9);}.cls-17{clip-path:url(#clip-path-10);}.cls-18{clip-path:url(#clip-path-11);}.cls-19{clip-path:url(#clip-path-12);}.cls-20{clip-path:url(#clip-path-13);}.cls-21{clip-path:url(#clip-path-14);}.cls-22{clip-path:url(#clip-path-15);}.cls-23{clip-path:url(#clip-path-16);}.cls-24{clip-path:url(#clip-path-17);}.cls-25{clip-path:url(#clip-path-18);}.cls-26{clip-path:url(#clip-path-19);}.cls-27{clip-path:url(#clip-path-20);}.cls-28{clip-path:url(#clip-path-21);}.cls-29{clip-path:url(#clip-path-22);}.cls-30{clip-path:url(#clip-path-23);}.cls-31{clip-path:url(#clip-path-24);}.cls-32{clip-path:url(#clip-path-25);}.cls-33{clip-path:url(#clip-path-26);}.cls-34{clip-path:url(#clip-path-27);}.cls-35{clip-path:url(#clip-path-28);}.cls-36{clip-path:url(#clip-path-29);}.cls-37{clip-path:url(#clip-path-30);}.cls-38{clip-path:url(#clip-path-31);}.cls-39{clip-path:url(#clip-path-32);}.cls-40{clip-path:url(#clip-path-33);}.cls-41{clip-path:url(#clip-path-34);}.cls-42{clip-path:url(#clip-path-35);}.cls-43{clip-path:url(#clip-path-36);}.cls-44{clip-path:url(#clip-path-37);}.cls-45{clip-path:url(#clip-path-38);}.cls-46{clip-path:url(#clip-path-39);}.cls-47{clip-path:url(#clip-path-40);}.cls-48{clip-path:url(#clip-path-41);}.cls-49{clip-path:url(#clip-path-42);}.cls-50{clip-path:url(#clip-path-43);}.cls-51{clip-path:url(#clip-path-44);}.cls-52{clip-path:url(#clip-path-45);}.cls-53{clip-path:url(#clip-path-46);}.cls-54{clip-path:url(#clip-path-47);}.cls-55{clip-path:url(#clip-path-48);}.cls-56{clip-path:url(#clip-path-49);}.cls-57{clip-path:url(#clip-path-50);}.cls-58{clip-path:url(#clip-path-51);}.cls-59{clip-path:url(#clip-path-52);}.cls-60{clip-path:url(#clip-path-53);}.cls-61{clip-path:url(#clip-path-54);}.cls-62{clip-path:url(#clip-path-55);}.cls-63{clip-path:url(#clip-path-56);}.cls-64{clip-path:url(#clip-path-57);}.cls-65{clip-path:url(#clip-path-58);}.cls-66{clip-path:url(#clip-path-59);}.cls-67{clip-path:url(#clip-path-60);}.cls-68{clip-path:url(#clip-path-61);}.cls-69{clip-path:url(#clip-path-62);}.cls-70{clip-path:url(#clip-path-63);}.cls-71{clip-path:url(#clip-path-64);}.cls-72{clip-path:url(#clip-path-65);}.cls-73{clip-path:url(#clip-path-66);}.cls-74{clip-path:url(#clip-path-67);}.cls-75{clip-path:url(#clip-path-68);}.cls-76{clip-path:url(#clip-path-69);}.cls-77{clip-path:url(#clip-path-70);}.cls-78{clip-path:url(#clip-path-71);}.cls-79{clip-path:url(#clip-path-72);}.cls-80{clip-path:url(#clip-path-73);}.cls-81{clip-path:url(#clip-path-74);}.cls-82{clip-path:url(#clip-path-75);}.cls-83{mix-blend-mode:screen;}.cls-84{clip-path:url(#clip-path-76);}.cls-85{clip-path:url(#clip-path-77);}.cls-86{clip-path:url(#clip-path-78);}.cls-87{clip-path:url(#clip-path-79);}.cls-88{clip-path:url(#clip-path-80);}.cls-89{clip-path:url(#clip-path-81);}.cls-90{clip-path:url(#clip-path-82);}.cls-91{clip-path:url(#clip-path-83);}.cls-92{clip-path:url(#clip-path-84);}.cls-93{clip-path:url(#clip-path-85);}.cls-94{clip-path:url(#clip-path-86);}.cls-95{clip-path:url(#clip-path-87);}.cls-96{clip-path:url(#clip-path-88);}.cls-97{clip-path:url(#clip-path-89);}.cls-98{clip-path:url(#clip-path-90);}.cls-99{clip-path:url(#clip-path-91);}.cls-100{clip-path:url(#clip-path-92);}.cls-101{clip-path:url(#clip-path-93);}.cls-102{clip-path:url(#clip-path-94);}.cls-103{clip-path:url(#clip-path-95);}.cls-104{clip-path:url(#clip-path-96);}.cls-105{clip-path:url(#clip-path-97);}.cls-106{clip-path:url(#clip-path-98);}.cls-107{clip-path:url(#clip-path-99);}.cls-108{fill:#b2b2b2;}</style><clipPath id="clip-path" transform="translate(0 -0.0005)"><rect class="cls-1" width="72.1621" height="46.6065"/></clipPath><clipPath id="clip-path-2" transform="translate(0 -0.0005)"><rect class="cls-1" y="0.0005" width="72.162" height="46.606"/></clipPath><clipPath id="clip-path-3" transform="translate(0 -0.0005)"><rect class="cls-1" x="66.126" y="46.0196" width="0.4912" height="0.4912"/></clipPath><clipPath id="clip-path-4" transform="translate(0 -0.0005)"><rect class="cls-1" x="65.2852" y="46.0196" width="0.4912" height="0.4912"/></clipPath><clipPath id="clip-path-5" transform="translate(0 -0.0005)"><rect class="cls-1" x="64.4443" y="46.0196" width="0.4903" height="0.4912"/></clipPath><clipPath id="clip-path-6" transform="translate(0 -0.0005)"><rect class="cls-1" x="63.6026" y="46.0196" width="0.4912" height="0.4912"/></clipPath><clipPath id="clip-path-7" transform="translate(0 -0.0005)"><rect class="cls-1" x="62.7617" y="46.0196" width="0.4903" height="0.4912"/></clipPath><clipPath id="clip-path-8" transform="translate(0 -0.0005)"><rect class="cls-1" x="61.9199" y="46.0196" width="0.4912" height="0.4912"/></clipPath><clipPath id="clip-path-9" transform="translate(0 -0.0005)"><rect class="cls-1" x="61.0791" y="46.0196" width="0.4902" height="0.4912"/></clipPath><clipPath id="clip-path-10" transform="translate(0 -0.0005)"><rect class="cls-1" x="60.2373" y="46.0196" width="0.4903" height="0.4912"/></clipPath><clipPath id="clip-path-11" transform="translate(0 -0.0005)"><rect class="cls-1" x="59.3965" y="46.0196" width="0.4893" height="0.4912"/></clipPath><clipPath id="clip-path-12" transform="translate(0 -0.0005)"><rect class="cls-1" x="58.5547" y="46.0196" width="0.4902" height="0.4912"/></clipPath><clipPath id="clip-path-13" transform="translate(0 -0.0005)"><rect class="cls-1" x="57.7129" y="46.0196" width="0.4902" height="0.4912"/></clipPath><clipPath id="clip-path-14" transform="translate(0 -0.0005)"><rect class="cls-1" x="56.8721" y="46.0196" width="0.4902" height="0.4912"/></clipPath><clipPath id="clip-path-15" transform="translate(0 -0.0005)"><rect class="cls-1" x="56.0313" y="46.0196" width="0.4892" height="0.4912"/></clipPath><clipPath id="clip-path-16" transform="translate(0 -0.0005)"><rect class="cls-1" x="55.1895" y="46.0196" width="0.4902" height="0.4912"/></clipPath><clipPath id="clip-path-17" transform="translate(0 -0.0005)"><rect class="cls-1" x="54.3486" y="46.0196" width="0.4893" height="0.4912"/></clipPath><clipPath id="clip-path-18" transform="translate(0 -0.0005)"><rect class="cls-1" x="53.5068" y="46.0196" width="0.4903" height="0.4912"/></clipPath><clipPath id="clip-path-19" transform="translate(0 -0.0005)"><rect class="cls-1" x="52.666" y="46.0196" width="0.4903" height="0.4912"/></clipPath><clipPath id="clip-path-20" transform="translate(0 -0.0005)"><rect class="cls-1" x="51.8233" y="46.0196" width="0.4912" height="0.4912"/></clipPath><clipPath id="clip-path-21" transform="translate(0 -0.0005)"><rect class="cls-1" x="50.9824" y="46.0196" width="0.4912" height="0.4912"/></clipPath><clipPath id="clip-path-22" transform="translate(0 -0.0005)"><rect class="cls-1" x="50.1406" y="46.0196" width="0.4912" height="0.4912"/></clipPath><clipPath id="clip-path-23" transform="translate(0 -0.0005)"><rect class="cls-1" x="49.2998" y="46.0196" width="0.4903" height="0.4912"/></clipPath><clipPath id="clip-path-24" transform="translate(0 -0.0005)"><rect class="cls-1" x="48.458" y="46.0196" width="0.4912" height="0.4912"/></clipPath><clipPath id="clip-path-25" transform="translate(0 -0.0005)"><rect class="cls-1" x="47.6172" y="46.0196" width="0.4902" height="0.4912"/></clipPath><clipPath id="clip-path-26" transform="translate(0 -0.0005)"><rect class="cls-1" x="46.7754" y="46.0196" width="0.4912" height="0.4912"/></clipPath><clipPath id="clip-path-27" transform="translate(0 -0.0005)"><rect class="cls-1" x="45.9346" y="46.0196" width="0.4912" height="0.4912"/></clipPath><clipPath id="clip-path-28" transform="translate(0 -0.0005)"><rect class="cls-1" x="45.0928" y="46.0196" width="0.4912" height="0.4912"/></clipPath><clipPath id="clip-path-29" transform="translate(0 -0.0005)"><rect class="cls-1" x="44.252" y="46.0196" width="0.4912" height="0.4912"/></clipPath><clipPath id="clip-path-30" transform="translate(0 -0.0005)"><rect class="cls-1" x="43.4102" y="46.0196" width="0.4912" height="0.4912"/></clipPath><clipPath id="clip-path-31" transform="translate(0 -0.0005)"><rect class="cls-1" x="42.5693" y="46.0196" width="0.4913" height="0.4912"/></clipPath><clipPath id="clip-path-32" transform="translate(0 -0.0005)"><rect class="cls-1" x="41.7276" y="46.0196" width="0.4912" height="0.4912"/></clipPath><clipPath id="clip-path-33" transform="translate(0 -0.0005)"><rect class="cls-1" x="40.8867" y="46.0196" width="0.4912" height="0.4912"/></clipPath><clipPath id="clip-path-34" transform="translate(0 -0.0005)"><rect class="cls-1" x="40.0449" y="46.0196" width="0.4912" height="0.4912"/></clipPath><clipPath id="clip-path-35" transform="translate(0 -0.0005)"><rect class="cls-1" x="39.2041" y="46.0196" width="0.4912" height="0.4912"/></clipPath><clipPath id="clip-path-36" transform="translate(0 -0.0005)"><rect class="cls-1" x="38.3633" y="46.0196" width="0.4902" height="0.4912"/></clipPath><clipPath id="clip-path-37" transform="translate(0 -0.0005)"><rect class="cls-1" x="37.5215" y="46.0196" width="0.4912" height="0.4912"/></clipPath><clipPath id="clip-path-38" transform="translate(0 -0.0005)"><rect class="cls-1" x="36.6807" y="46.0196" width="0.4902" height="0.4912"/></clipPath><clipPath id="clip-path-39" transform="translate(0 -0.0005)"><rect class="cls-1" x="34.9912" y="46.0196" width="0.4912" height="0.4912"/></clipPath><clipPath id="clip-path-40" transform="translate(0 -0.0005)"><rect class="cls-1" x="34.1504" y="46.0196" width="0.4912" height="0.4912"/></clipPath><clipPath id="clip-path-41" transform="translate(0 -0.0005)"><rect class="cls-1" x="33.3086" y="46.0196" width="0.4902" height="0.4912"/></clipPath><clipPath id="clip-path-42" transform="translate(0 -0.0005)"><rect class="cls-1" x="32.4678" y="46.0196" width="0.4902" height="0.4912"/></clipPath><clipPath id="clip-path-43" transform="translate(0 -0.0005)"><rect class="cls-1" x="31.627" y="46.0196" width="0.4892" height="0.4912"/></clipPath><clipPath id="clip-path-44" transform="translate(0 -0.0005)"><rect class="cls-1" x="30.7852" y="46.0196" width="0.4902" height="0.4912"/></clipPath><clipPath id="clip-path-45" transform="translate(0 -0.0005)"><rect class="cls-1" x="29.9443" y="46.0196" width="0.4893" height="0.4912"/></clipPath><clipPath id="clip-path-46" transform="translate(0 -0.0005)"><rect class="cls-1" x="29.1026" y="46.0196" width="0.4902" height="0.4912"/></clipPath><clipPath id="clip-path-47" transform="translate(0 -0.0005)"><rect class="cls-1" x="28.2617" y="46.0196" width="0.4893" height="0.4912"/></clipPath><clipPath id="clip-path-48" transform="translate(0 -0.0005)"><rect class="cls-1" x="27.4199" y="46.0196" width="0.4903" height="0.4912"/></clipPath><clipPath id="clip-path-49" transform="translate(0 -0.0005)"><rect class="cls-1" x="26.5791" y="46.0196" width="0.4893" height="0.4912"/></clipPath><clipPath id="clip-path-50" transform="translate(0 -0.0005)"><rect class="cls-1" x="25.7363" y="46.0196" width="0.4913" height="0.4912"/></clipPath><clipPath id="clip-path-51" transform="translate(0 -0.0005)"><rect class="cls-1" x="24.8965" y="46.0196" width="0.4893" height="0.4912"/></clipPath><clipPath id="clip-path-52" transform="translate(0 -0.0005)"><rect class="cls-1" x="24.0547" y="46.0196" width="0.4902" height="0.4912"/></clipPath><clipPath id="clip-path-53" transform="translate(0 -0.0005)"><rect class="cls-1" x="23.2139" y="46.0196" width="0.4892" height="0.4912"/></clipPath><clipPath id="clip-path-54" transform="translate(0 -0.0005)"><rect class="cls-1" x="22.3711" y="46.0196" width="0.4912" height="0.4912"/></clipPath><clipPath id="clip-path-55" transform="translate(0 -0.0005)"><rect class="cls-1" x="21.5303" y="46.0196" width="0.4902" height="0.4912"/></clipPath><clipPath id="clip-path-56" transform="translate(0 -0.0005)"><rect class="cls-1" x="20.6885" y="46.0196" width="0.4912" height="0.4912"/></clipPath><clipPath id="clip-path-57" transform="translate(0 -0.0005)"><rect class="cls-1" x="19.8477" y="46.0196" width="0.4902" height="0.4912"/></clipPath><clipPath id="clip-path-58" transform="translate(0 -0.0005)"><rect class="cls-1" x="19.0059" y="46.0196" width="0.4912" height="0.4912"/></clipPath><clipPath id="clip-path-59" transform="translate(0 -0.0005)"><rect class="cls-1" x="18.1651" y="46.0196" width="0.4912" height="0.4912"/></clipPath><clipPath id="clip-path-60" transform="translate(0 -0.0005)"><rect class="cls-1" x="17.3233" y="46.0196" width="0.4912" height="0.4912"/></clipPath><clipPath id="clip-path-61" transform="translate(0 -0.0005)"><rect class="cls-1" x="16.4824" y="46.0196" width="0.4912" height="0.4912"/></clipPath><clipPath id="clip-path-62" transform="translate(0 -0.0005)"><rect class="cls-1" x="15.6406" y="46.0196" width="0.4912" height="0.4912"/></clipPath><clipPath id="clip-path-63" transform="translate(0 -0.0005)"><rect class="cls-1" x="14.7998" y="46.0196" width="0.4912" height="0.4912"/></clipPath><clipPath id="clip-path-64" transform="translate(0 -0.0005)"><rect class="cls-1" x="13.959" y="46.0196" width="0.4902" height="0.4912"/></clipPath><clipPath id="clip-path-65" transform="translate(0 -0.0005)"><rect class="cls-1" x="13.1172" y="46.0196" width="0.4912" height="0.4912"/></clipPath><clipPath id="clip-path-66" transform="translate(0 -0.0005)"><rect class="cls-1" x="12.2754" y="46.0196" width="0.4912" height="0.4912"/></clipPath><clipPath id="clip-path-67" transform="translate(0 -0.0005)"><rect class="cls-1" x="11.4346" y="46.0196" width="0.4912" height="0.4912"/></clipPath><clipPath id="clip-path-68" transform="translate(0 -0.0005)"><rect class="cls-1" x="10.5938" y="46.0196" width="0.4902" height="0.4912"/></clipPath><clipPath id="clip-path-69" transform="translate(0 -0.0005)"><rect class="cls-1" x="9.752" y="46.0196" width="0.4912" height="0.4912"/></clipPath><clipPath id="clip-path-70" transform="translate(0 -0.0005)"><rect class="cls-1" x="8.9111" y="46.0196" width="0.4903" height="0.4912"/></clipPath><clipPath id="clip-path-71" transform="translate(0 -0.0005)"><rect class="cls-1" x="8.0693" y="46.0196" width="0.4913" height="0.4912"/></clipPath><clipPath id="clip-path-72" transform="translate(0 -0.0005)"><rect class="cls-1" x="7.2285" y="46.0196" width="0.4903" height="0.4912"/></clipPath><clipPath id="clip-path-73" transform="translate(0 -0.0005)"><rect class="cls-1" x="6.3867" y="46.0196" width="0.4912" height="0.4912"/></clipPath><clipPath id="clip-path-74" transform="translate(0 -0.0005)"><rect class="cls-1" x="5.5459" y="46.0196" width="0.4902" height="0.4912"/></clipPath><clipPath id="clip-path-75" transform="translate(0 -0.0005)"><rect class="cls-1" x="35.8389" y="46.0196" width="0.4912" height="0.4912"/></clipPath><clipPath id="clip-path-76" transform="translate(0 -0.0005)"><rect class="cls-1" x="63.5938" y="3.586" width="6.0244" height="0.081"/></clipPath><clipPath id="clip-path-77" transform="translate(0 -0.0005)"><rect class="cls-1" x="63.5938" y="3.2998" width="6.0244" height="0.0811"/></clipPath><clipPath id="clip-path-78" transform="translate(0 -0.0005)"><rect class="cls-1" x="64.4248" y="5.9405" width="4.3613" height="1.2744"/></clipPath><clipPath id="clip-path-79" transform="translate(0 -0.0005)"><rect class="cls-1" x="54.8721" y="3.586" width="6.0244" height="0.081"/></clipPath><clipPath id="clip-path-80" transform="translate(0 -0.0005)"><rect class="cls-1" x="54.8721" y="3.2998" width="6.0244" height="0.0811"/></clipPath><clipPath id="clip-path-81" transform="translate(0 -0.0005)"><rect class="cls-1" x="55.7041" y="5.9405" width="4.3613" height="1.2744"/></clipPath><clipPath id="clip-path-82" transform="translate(0 -0.0005)"><rect class="cls-1" x="46.1514" y="3.586" width="6.0244" height="0.081"/></clipPath><clipPath id="clip-path-83" transform="translate(0 -0.0005)"><rect class="cls-1" x="46.1514" y="3.2998" width="6.0244" height="0.0811"/></clipPath><clipPath id="clip-path-84" transform="translate(0 -0.0005)"><rect class="cls-1" x="46.9824" y="5.9405" width="4.3614" height="1.2744"/></clipPath><clipPath id="clip-path-85" transform="translate(0 -0.0005)"><rect class="cls-1" x="37.4297" y="3.586" width="6.0244" height="0.081"/></clipPath><clipPath id="clip-path-86" transform="translate(0 -0.0005)"><rect class="cls-1" x="37.4297" y="3.2998" width="6.0244" height="0.0811"/></clipPath><clipPath id="clip-path-87" transform="translate(0 -0.0005)"><rect class="cls-1" x="38.2608" y="5.9405" width="4.3623" height="1.2744"/></clipPath><clipPath id="clip-path-88" transform="translate(0 -0.0005)"><rect class="cls-1" x="28.708" y="3.586" width="6.0244" height="0.081"/></clipPath><clipPath id="clip-path-89" transform="translate(0 -0.0005)"><rect class="cls-1" x="28.708" y="3.2998" width="6.0244" height="0.0811"/></clipPath><clipPath id="clip-path-90" transform="translate(0 -0.0005)"><rect class="cls-1" x="29.5391" y="5.9405" width="4.3623" height="1.2744"/></clipPath><clipPath id="clip-path-91" transform="translate(0 -0.0005)"><rect class="cls-1" x="19.9873" y="3.586" width="6.0244" height="0.081"/></clipPath><clipPath id="clip-path-92" transform="translate(0 -0.0005)"><rect class="cls-1" x="19.9873" y="3.2998" width="6.0244" height="0.0811"/></clipPath><clipPath id="clip-path-93" transform="translate(0 -0.0005)"><rect class="cls-1" x="20.8184" y="5.9405" width="4.3613" height="1.2744"/></clipPath><clipPath id="clip-path-94" transform="translate(0 -0.0005)"><rect class="cls-1" x="11.2656" y="3.586" width="6.0245" height="0.081"/></clipPath><clipPath id="clip-path-95" transform="translate(0 -0.0005)"><rect class="cls-1" x="11.2656" y="3.2998" width="6.0245" height="0.0811"/></clipPath><clipPath id="clip-path-96" transform="translate(0 -0.0005)"><rect class="cls-1" x="12.0977" y="5.9405" width="4.3613" height="1.2744"/></clipPath><clipPath id="clip-path-97" transform="translate(0 -0.0005)"><rect class="cls-1" x="2.544" y="3.586" width="6.0244" height="0.081"/></clipPath><clipPath id="clip-path-98" transform="translate(0 -0.0005)"><rect class="cls-1" x="2.544" y="3.2998" width="6.0244" height="0.0811"/></clipPath><clipPath id="clip-path-99" transform="translate(0 -0.0005)"><rect class="cls-1" x="3.375" y="5.9405" width="4.3613" height="1.2744"/></clipPath></defs><title>other_fence</title><g class="cls-2"><g id="Слой_1" data-name="Слой 1"><g class="cls-3"><rect class="cls-4" x="1.718" y="40.265" width="68.727" height="2.511"/><g class="cls-5"><path class="cls-6" d="M70.4444,42.7764s-.064.644-2.525,1.287H36.0814v-1.287Z" transform="translate(0 -0.0005)"/><rect class="cls-4" x="36.081" y="44.063" width="31.838" height="1.86"/><rect class="cls-7" x="36.081" y="44.063" width="31.838" height="0.36"/><rect class="cls-7" x="36.081" y="45.923" width="30.858" height="0.683"/><path class="cls-6" d="M66.126,46.2657a.2455.2455,0,1,0,.246-.246.2456.2456,0,0,0-.246.246" transform="translate(0 -0.0005)"/><g class="cls-8"><g class="cls-9"><path class="cls-6" d="M66.6045,46.2051a.1878.1878,0,0,0-.026-.064.2964.2964,0,0,1,.026.064" transform="translate(0 -0.0005)"/><path class="cls-6" d="M66.4961,46.0586a.2347.2347,0,0,0-.065-.027.248.248,0,0,1,.065.027" transform="translate(0 -0.0005)"/><path class="cls-6" d="M66.3721,46.02c.007,0,.014.004.021.004a.2131.2131,0,1,0,.22.222c0,.006.004.012.004.02a.2455.2455,0,1,1-.245-.246" transform="translate(0 -0.0005)"/></g></g><path class="cls-10" d="M66.34,46.1036c-.018.03.018.084.078.119.062.035.125.039.143.009s-.018-.084-.079-.119-.124-.039-.142-.009" transform="translate(0 -0.0005)"/><path class="cls-6" d="M65.2852,46.2657a.2455.2455,0,1,0,.245-.246.2454.2454,0,0,0-.245.246" transform="translate(0 -0.0005)"/><g class="cls-8"><g class="cls-11"><path class="cls-6" d="M65.7637,46.2051a.2391.2391,0,0,0-.026-.064.2964.2964,0,0,1,.026.064" transform="translate(0 -0.0005)"/><path class="cls-6" d="M65.6553,46.0586a.248.248,0,0,0-.065-.027.263.263,0,0,1,.065.027" transform="translate(0 -0.0005)"/><path class="cls-6" d="M65.53,46.02c.007,0,.014.004.021.004a.2131.2131,0,1,0,.22.222c0,.006.005.012.005.02a.2455.2455,0,1,1-.246-.246" transform="translate(0 -0.0005)"/></g></g><path class="cls-10" d="M65.4981,46.1036c-.018.03.019.084.079.119s.124.039.143.009c.017-.03-.019-.084-.079-.119s-.124-.039-.143-.009" transform="translate(0 -0.0005)"/><path class="cls-6" d="M64.4444,46.2657a.245.245,0,1,0,.245-.246.2448.2448,0,0,0-.245.246" transform="translate(0 -0.0005)"/><g class="cls-8"><g class="cls-12"><path class="cls-6" d="M64.9219,46.2051a.1878.1878,0,0,0-.026-.064.2964.2964,0,0,1,.026.064" transform="translate(0 -0.0005)"/><path class="cls-6" d="M64.8135,46.0586a.2347.2347,0,0,0-.065-.027.248.248,0,0,1,.065.027" transform="translate(0 -0.0005)"/><path class="cls-6" d="M64.6895,46.02c.007,0,.014.004.021.004a.2131.2131,0,1,0,.22.222c0,.006.004.012.004.02a.245.245,0,1,1-.245-.246" transform="translate(0 -0.0005)"/></g></g><path class="cls-10" d="M64.6572,46.1036c-.018.03.018.084.078.119.062.035.125.039.143.009s-.018-.084-.079-.119-.124-.039-.142-.009" transform="translate(0 -0.0005)"/><path class="cls-6" d="M63.6026,46.2657a.2455.2455,0,1,0,.245-.246.2454.2454,0,0,0-.245.246" transform="translate(0 -0.0005)"/><g class="cls-8"><g class="cls-13"><path class="cls-6" d="M64.0811,46.2051a.2391.2391,0,0,0-.026-.064.2964.2964,0,0,1,.026.064" transform="translate(0 -0.0005)"/><path class="cls-6" d="M63.9727,46.0586a.248.248,0,0,0-.065-.027.263.263,0,0,1,.065.027" transform="translate(0 -0.0005)"/><path class="cls-6" d="M63.8477,46.02c.007,0,.014.004.021.004a.2131.2131,0,1,0,.22.222c0,.006.005.012.005.02a.2455.2455,0,1,1-.246-.246" transform="translate(0 -0.0005)"/></g></g><path class="cls-10" d="M63.8154,46.1036c-.018.03.019.084.079.119s.124.039.143.009c.017-.03-.019-.084-.079-.119s-.124-.039-.143-.009" transform="translate(0 -0.0005)"/><path class="cls-6" d="M62.7617,46.2657a.245.245,0,1,0,.245-.246.2448.2448,0,0,0-.245.246" transform="translate(0 -0.0005)"/><g class="cls-8"><g class="cls-14"><path class="cls-6" d="M63.2393,46.2051a.1878.1878,0,0,0-.026-.064.2964.2964,0,0,1,.026.064" transform="translate(0 -0.0005)"/><path class="cls-6" d="M63.1309,46.0586a.2347.2347,0,0,0-.065-.027.248.248,0,0,1,.065.027" transform="translate(0 -0.0005)"/><path class="cls-6" d="M63.0069,46.02c.007,0,.014.004.021.004a.2131.2131,0,1,0,.22.222c0,.006.004.012.004.02a.245.245,0,1,1-.245-.246" transform="translate(0 -0.0005)"/></g></g><path class="cls-10" d="M62.9746,46.1036c-.018.03.018.084.079.119s.124.039.142.009-.018-.084-.079-.119-.124-.039-.142-.009" transform="translate(0 -0.0005)"/><path class="cls-6" d="M61.92,46.2657a.2455.2455,0,1,0,.245-.246.2454.2454,0,0,0-.245.246" transform="translate(0 -0.0005)"/><g class="cls-8"><g class="cls-15"><path class="cls-6" d="M62.3985,46.2051a.2391.2391,0,0,0-.026-.064.2964.2964,0,0,1,.026.064" transform="translate(0 -0.0005)"/><path class="cls-6" d="M62.29,46.0586a.248.248,0,0,0-.065-.027.263.263,0,0,1,.065.027" transform="translate(0 -0.0005)"/><path class="cls-6" d="M62.1651,46.02c.007,0,.014.004.021.004a.2131.2131,0,1,0,.22.222c0,.006.005.012.005.02a.2455.2455,0,1,1-.246-.246" transform="translate(0 -0.0005)"/></g></g><path class="cls-10" d="M62.1328,46.1036c-.018.03.019.084.079.119s.124.039.143.009c.017-.03-.019-.084-.079-.119s-.124-.039-.143-.009" transform="translate(0 -0.0005)"/><path class="cls-6" d="M61.0791,46.2657a.245.245,0,1,0,.245-.246.2441.2441,0,0,0-.245.246" transform="translate(0 -0.0005)"/><g class="cls-8"><g class="cls-16"><path class="cls-6" d="M61.5567,46.2051a.1718.1718,0,0,0-.027-.064.2239.2239,0,0,1,.027.064" transform="translate(0 -0.0005)"/><path class="cls-6" d="M61.4483,46.0586a.2347.2347,0,0,0-.065-.027.248.248,0,0,1,.065.027" transform="translate(0 -0.0005)"/><path class="cls-6" d="M61.3242,46.02c.007,0,.014.004.021.004a.2131.2131,0,1,0,.22.222c0,.006.004.012.004.02a.245.245,0,1,1-.245-.246" transform="translate(0 -0.0005)"/></g></g><path class="cls-10" d="M61.292,46.1036c-.018.03.018.084.079.119s.124.039.142.009-.018-.084-.079-.119-.124-.039-.142-.009" transform="translate(0 -0.0005)"/><path class="cls-6" d="M60.2373,46.2657a.245.245,0,1,0,.245-.246.2454.2454,0,0,0-.245.246" transform="translate(0 -0.0005)"/><g class="cls-8"><g class="cls-17"><path class="cls-6" d="M60.7158,46.2051a.2126.2126,0,0,0-.027-.064.2562.2562,0,0,1,.027.064" transform="translate(0 -0.0005)"/><path class="cls-6" d="M60.6074,46.0586a.248.248,0,0,0-.065-.027.263.263,0,0,1,.065.027" transform="translate(0 -0.0005)"/><path class="cls-6" d="M60.4824,46.02c.007,0,.014.004.021.004a.2131.2131,0,1,0,.22.222c0,.006.004.012.004.02a.245.245,0,1,1-.245-.246" transform="translate(0 -0.0005)"/></g></g><path class="cls-10" d="M60.45,46.1036c-.018.03.019.084.079.119s.124.039.143.009c.017-.03-.019-.084-.079-.119s-.124-.039-.143-.009" transform="translate(0 -0.0005)"/><path class="cls-6" d="M59.3965,46.2657a.2445.2445,0,1,0,.245-.246.2448.2448,0,0,0-.245.246" transform="translate(0 -0.0005)"/><g class="cls-8"><g class="cls-18"><path class="cls-6" d="M59.874,46.2051a.1878.1878,0,0,0-.026-.064.2532.2532,0,0,1,.026.064" transform="translate(0 -0.0005)"/><path class="cls-6" d="M59.7656,46.0586a.2415.2415,0,0,0-.064-.027.2562.2562,0,0,1,.064.027" transform="translate(0 -0.0005)"/><path class="cls-6" d="M59.6416,46.02c.007,0,.014.004.021.004a.2131.2131,0,1,0,.219.222.1008.1008,0,0,1,.004.02.2445.2445,0,1,1-.244-.246" transform="translate(0 -0.0005)"/></g></g><path class="cls-10" d="M59.6094,46.1036c-.018.03.018.084.079.119s.124.039.142.009-.018-.084-.078-.119c-.062-.035-.125-.039-.143-.009" transform="translate(0 -0.0005)"/><path class="cls-6" d="M58.5547,46.2657a.245.245,0,1,0,.246-.246.2456.2456,0,0,0-.246.246" transform="translate(0 -0.0005)"/><g class="cls-8"><g class="cls-19"><path class="cls-6" d="M59.0332,46.2051a.2126.2126,0,0,0-.027-.064.2562.2562,0,0,1,.027.064" transform="translate(0 -0.0005)"/><path class="cls-6" d="M58.9248,46.0586a.248.248,0,0,0-.065-.027.263.263,0,0,1,.065.027" transform="translate(0 -0.0005)"/><path class="cls-6" d="M58.8008,46.02c.006,0,.012.004.02.004a.2131.2131,0,1,0,.22.222c0,.006.004.012.004.02a.245.245,0,1,1-.244-.246" transform="translate(0 -0.0005)"/></g></g><path class="cls-10" d="M58.7676,46.1036c-.018.03.019.084.079.119s.124.039.143.009c.017-.03-.019-.084-.079-.119s-.124-.039-.143-.009" transform="translate(0 -0.0005)"/><path class="cls-6" d="M57.7129,46.2657a.245.245,0,1,0,.246-.246.245.245,0,0,0-.246.246" transform="translate(0 -0.0005)"/><g class="cls-8"><g class="cls-20"><path class="cls-6" d="M58.1914,46.2051a.1878.1878,0,0,0-.026-.064.2532.2532,0,0,1,.026.064" transform="translate(0 -0.0005)"/><path class="cls-6" d="M58.083,46.0586a.2415.2415,0,0,0-.064-.027.2562.2562,0,0,1,.064.027" transform="translate(0 -0.0005)"/><path class="cls-6" d="M57.959,46.02c.007,0,.013.004.021.004a.2131.2131,0,1,0,.22.222c0,.006.003.012.003.02a.245.245,0,1,1-.244-.246" transform="translate(0 -0.0005)"/></g></g><path class="cls-10" d="M57.9268,46.1036c-.018.03.018.084.079.119s.124.039.142.009-.018-.084-.078-.119c-.062-.035-.125-.039-.143-.009" transform="translate(0 -0.0005)"/><path class="cls-6" d="M56.8721,46.2657a.245.245,0,1,0,.245-.246.2448.2448,0,0,0-.245.246" transform="translate(0 -0.0005)"/><g class="cls-8"><g class="cls-21"><path class="cls-6" d="M57.3506,46.2051a.2126.2126,0,0,0-.027-.064.2562.2562,0,0,1,.027.064" transform="translate(0 -0.0005)"/><path class="cls-6" d="M57.2422,46.0586a.248.248,0,0,0-.065-.027.263.263,0,0,1,.065.027" transform="translate(0 -0.0005)"/><path class="cls-6" d="M57.1172,46.02c.007,0,.013.004.021.004a.2131.2131,0,1,0,.22.222.1008.1008,0,0,1,.004.02.245.245,0,1,1-.245-.246" transform="translate(0 -0.0005)"/></g></g><path class="cls-10" d="M57.085,46.1036c-.018.03.019.084.079.119s.125.039.143.009-.018-.084-.079-.119-.124-.039-.143-.009" transform="translate(0 -0.0005)"/><path class="cls-6" d="M56.0313,46.2657a.2445.2445,0,1,0,.244-.246.2439.2439,0,0,0-.244.246" transform="translate(0 -0.0005)"/><g class="cls-8"><g class="cls-22"><path class="cls-6" d="M56.5088,46.2051a.1878.1878,0,0,0-.026-.064.2532.2532,0,0,1,.026.064" transform="translate(0 -0.0005)"/><path class="cls-6" d="M56.4,46.0586a.2415.2415,0,0,0-.064-.027.2415.2415,0,0,1,.064.027" transform="translate(0 -0.0005)"/><path class="cls-6" d="M56.2754,46.02c.008,0,.014.004.021.004a.2131.2131,0,1,0,.22.222.1008.1008,0,0,1,.004.02.2445.2445,0,1,1-.245-.246" transform="translate(0 -0.0005)"/></g></g><path class="cls-10" d="M56.2442,46.1036c-.018.03.018.084.079.119s.124.039.142.009-.018-.084-.078-.119c-.062-.035-.125-.039-.143-.009" transform="translate(0 -0.0005)"/><path class="cls-6" d="M55.19,46.2657a.245.245,0,1,0,.245-.246.2448.2448,0,0,0-.245.246" transform="translate(0 -0.0005)"/><g class="cls-8"><g class="cls-23"><path class="cls-6" d="M55.668,46.2051a.2126.2126,0,0,0-.027-.064.2562.2562,0,0,1,.027.064" transform="translate(0 -0.0005)"/><path class="cls-6" d="M55.56,46.0586a.248.248,0,0,0-.065-.027.263.263,0,0,1,.065.027" transform="translate(0 -0.0005)"/><path class="cls-6" d="M55.4346,46.02c.007,0,.013.004.021.004a.2131.2131,0,1,0,.22.222c0,.006.004.012.004.02a.245.245,0,1,1-.245-.246" transform="translate(0 -0.0005)"/></g></g><path class="cls-10" d="M55.4024,46.1036c-.018.03.019.084.079.119.062.035.125.039.143.009s-.018-.084-.079-.119-.124-.039-.143-.009" transform="translate(0 -0.0005)"/><path class="cls-6" d="M54.3486,46.2657a.2445.2445,0,1,0,.244-.246.2439.2439,0,0,0-.244.246" transform="translate(0 -0.0005)"/><g class="cls-8"><g class="cls-24"><path class="cls-6" d="M54.8262,46.2051a.21.21,0,0,0-.026-.064.2532.2532,0,0,1,.026.064" transform="translate(0 -0.0005)"/><path class="cls-6" d="M54.7178,46.0586a.2415.2415,0,0,0-.064-.027.2415.2415,0,0,1,.064.027" transform="translate(0 -0.0005)"/><path class="cls-6" d="M54.5928,46.02c.008,0,.014.004.021.004a.2131.2131,0,1,0,.22.222.1008.1008,0,0,1,.004.02.2445.2445,0,1,1-.245-.246" transform="translate(0 -0.0005)"/></g></g><path class="cls-10" d="M54.5615,46.1036c-.018.03.018.084.079.119s.124.039.142.009-.018-.084-.078-.119c-.062-.035-.125-.039-.143-.009" transform="translate(0 -0.0005)"/><path class="cls-6" d="M53.5069,46.2657a.245.245,0,1,0,.245-.246.2448.2448,0,0,0-.245.246" transform="translate(0 -0.0005)"/><g class="cls-8"><g class="cls-25"><path class="cls-6" d="M53.9854,46.2051a.2126.2126,0,0,0-.027-.064.2562.2562,0,0,1,.027.064" transform="translate(0 -0.0005)"/><path class="cls-6" d="M53.877,46.0586a.248.248,0,0,0-.065-.027.263.263,0,0,1,.065.027" transform="translate(0 -0.0005)"/><path class="cls-6" d="M53.752,46.02c.007,0,.013.004.021.004a.2131.2131,0,1,0,.22.222.1008.1008,0,0,1,.004.02.245.245,0,1,1-.245-.246" transform="translate(0 -0.0005)"/></g></g><path class="cls-10" d="M53.7207,46.1036c-.019.03.017.084.078.119s.125.039.143.009-.018-.084-.079-.119-.124-.039-.142-.009" transform="translate(0 -0.0005)"/><path class="cls-6" d="M52.6651,46.2657a.2455.2455,0,1,0,.245-.246.2448.2448,0,0,0-.245.246" transform="translate(0 -0.0005)"/><g class="cls-8"><g class="cls-26"><path class="cls-6" d="M53.1436,46.2051a.21.21,0,0,0-.026-.064.2532.2532,0,0,1,.026.064" transform="translate(0 -0.0005)"/><path class="cls-6" d="M53.0352,46.0586a.2415.2415,0,0,0-.064-.027.2415.2415,0,0,1,.064.027" transform="translate(0 -0.0005)"/><path class="cls-6" d="M52.91,46.02c.008,0,.014.004.021.004a.2131.2131,0,1,0,.22.222.0973.0973,0,0,1,.005.02.245.245,0,1,1-.246-.246" transform="translate(0 -0.0005)"/></g></g><path class="cls-10" d="M52.8789,46.1036c-.018.03.017.084.079.119s.124.039.142.009-.018-.084-.078-.119c-.062-.035-.125-.039-.143-.009" transform="translate(0 -0.0005)"/><path class="cls-6" d="M51.8233,46.2657a.2455.2455,0,1,0,.246-.246.2456.2456,0,0,0-.246.246" transform="translate(0 -0.0005)"/><g class="cls-8"><g class="cls-27"><path class="cls-6" d="M52.3027,46.2051a.2415.2415,0,0,0-.027-.064.2562.2562,0,0,1,.027.064" transform="translate(0 -0.0005)"/><path class="cls-6" d="M52.1944,46.0586a.248.248,0,0,0-.065-.027.263.263,0,0,1,.065.027" transform="translate(0 -0.0005)"/><path class="cls-6" d="M52.0694,46.02c.007,0,.014.004.021.004a.2131.2131,0,1,0,.22.222c0,.006.004.012.004.02a.2455.2455,0,1,1-.245-.246" transform="translate(0 -0.0005)"/></g></g><path class="cls-10" d="M52.0381,46.1036c-.019.03.017.084.078.119s.125.039.143.009-.018-.084-.079-.119-.125-.039-.142-.009" transform="translate(0 -0.0005)"/><path class="cls-6" d="M50.9824,46.2657a.2455.2455,0,1,0,.245-.246.2448.2448,0,0,0-.245.246" transform="translate(0 -0.0005)"/><g class="cls-8"><g class="cls-28"><path class="cls-6" d="M51.461,46.2051a.2391.2391,0,0,0-.026-.064.2532.2532,0,0,1,.026.064" transform="translate(0 -0.0005)"/><path class="cls-6" d="M51.3526,46.0586a.2415.2415,0,0,0-.064-.027.2415.2415,0,0,1,.064.027" transform="translate(0 -0.0005)"/><path class="cls-6" d="M51.2276,46.02c.008,0,.014.004.021.004a.2131.2131,0,1,0,.22.222.0973.0973,0,0,1,.005.02.2455.2455,0,1,1-.246-.246" transform="translate(0 -0.0005)"/></g></g><path class="cls-10" d="M51.1963,46.1036c-.018.03.017.084.078.119s.125.039.143.009-.018-.084-.078-.119c-.062-.035-.126-.039-.143-.009" transform="translate(0 -0.0005)"/><path class="cls-6" d="M50.1406,46.2657a.2455.2455,0,1,0,.246-.246.2456.2456,0,0,0-.246.246" transform="translate(0 -0.0005)"/><g class="cls-8"><g class="cls-29"><path class="cls-6" d="M50.62,46.2051a.2415.2415,0,0,0-.027-.064.2562.2562,0,0,1,.027.064" transform="translate(0 -0.0005)"/><path class="cls-6" d="M50.5117,46.0586a.248.248,0,0,0-.065-.027.248.248,0,0,1,.065.027" transform="translate(0 -0.0005)"/><path class="cls-6" d="M50.3867,46.02c.007,0,.014.004.021.004a.2131.2131,0,1,0,.22.222c0,.006.004.012.004.02a.2455.2455,0,1,1-.245-.246" transform="translate(0 -0.0005)"/></g></g><path class="cls-10" d="M50.3555,46.1036c-.019.03.017.084.077.119.063.035.126.039.144.009s-.018-.084-.079-.119-.125-.039-.142-.009" transform="translate(0 -0.0005)"/><path class="cls-6" d="M49.3,46.2657a.245.245,0,1,0,.245-.246.2454.2454,0,0,0-.245.246" transform="translate(0 -0.0005)"/><g class="cls-8"><g class="cls-30"><path class="cls-6" d="M49.7783,46.2051a.2391.2391,0,0,0-.026-.064.2532.2532,0,0,1,.026.064" transform="translate(0 -0.0005)"/><path class="cls-6" d="M49.67,46.0586a.2415.2415,0,0,0-.064-.027.2415.2415,0,0,1,.064.027" transform="translate(0 -0.0005)"/><path class="cls-6" d="M49.5449,46.02c.008,0,.014.004.021.004a.2131.2131,0,1,0,.22.222.1008.1008,0,0,1,.004.02.245.245,0,1,1-.245-.246" transform="translate(0 -0.0005)"/></g></g><path class="cls-10" d="M49.5137,46.1036c-.018.03.017.084.078.119s.125.039.143.009-.018-.084-.078-.119c-.062-.035-.126-.039-.143-.009" transform="translate(0 -0.0005)"/><path class="cls-6" d="M48.458,46.2657a.2455.2455,0,1,0,.246-.246.2456.2456,0,0,0-.246.246" transform="translate(0 -0.0005)"/><g class="cls-8"><g class="cls-31"><path class="cls-6" d="M48.9375,46.2051a.2415.2415,0,0,0-.027-.064.2562.2562,0,0,1,.027.064" transform="translate(0 -0.0005)"/><path class="cls-6" d="M48.8291,46.0586a.248.248,0,0,0-.065-.027.263.263,0,0,1,.065.027" transform="translate(0 -0.0005)"/><path class="cls-6" d="M48.7041,46.02c.007,0,.014.004.021.004a.2131.2131,0,1,0,.22.222c0,.006.004.012.004.02a.2455.2455,0,1,1-.245-.246" transform="translate(0 -0.0005)"/></g></g><path class="cls-10" d="M48.6729,46.1036c-.019.03.017.084.077.119.063.035.126.039.144.009.016-.03-.018-.084-.079-.119s-.125-.039-.142-.009" transform="translate(0 -0.0005)"/><path class="cls-6" d="M47.6172,46.2657a.245.245,0,1,0,.245-.246.2454.2454,0,0,0-.245.246" transform="translate(0 -0.0005)"/><g class="cls-8"><g class="cls-32"><path class="cls-6" d="M48.0957,46.2051a.2391.2391,0,0,0-.026-.064.2532.2532,0,0,1,.026.064" transform="translate(0 -0.0005)"/><path class="cls-6" d="M47.9883,46.0586a.248.248,0,0,0-.065-.027.263.263,0,0,1,.065.027" transform="translate(0 -0.0005)"/><path class="cls-6" d="M47.8623,46.02c.008,0,.014.004.021.004a.2131.2131,0,1,0,.22.222.1008.1008,0,0,1,.004.02.245.245,0,1,1-.245-.246" transform="translate(0 -0.0005)"/></g></g><path class="cls-10" d="M47.8311,46.1036c-.018.03.017.084.078.119s.125.039.143.009-.018-.084-.078-.119c-.062-.035-.126-.039-.143-.009" transform="translate(0 -0.0005)"/><path class="cls-6" d="M46.7754,46.2657a.2455.2455,0,1,0,.246-.246.2456.2456,0,0,0-.246.246" transform="translate(0 -0.0005)"/><g class="cls-8"><g class="cls-33"><path class="cls-6" d="M47.2549,46.2051a.2415.2415,0,0,0-.027-.064.2562.2562,0,0,1,.027.064" transform="translate(0 -0.0005)"/><path class="cls-6" d="M47.1465,46.0586a.248.248,0,0,0-.065-.027.248.248,0,0,1,.065.027" transform="translate(0 -0.0005)"/><path class="cls-6" d="M47.0215,46.02c.007,0,.014.004.021.004a.2131.2131,0,1,0,.22.222.1008.1008,0,0,1,.004.02.2455.2455,0,1,1-.245-.246" transform="translate(0 -0.0005)"/></g></g><path class="cls-10" d="M46.99,46.1036c-.019.03.017.084.077.119.062.035.126.039.144.009.016-.03-.018-.084-.079-.119s-.125-.039-.142-.009" transform="translate(0 -0.0005)"/><path class="cls-6" d="M45.9346,46.2657a.2455.2455,0,1,0,.245-.246.2454.2454,0,0,0-.245.246" transform="translate(0 -0.0005)"/><g class="cls-8"><g class="cls-34"><path class="cls-6" d="M46.4141,46.2051a.28.28,0,0,0-.027-.064.3.3,0,0,1,.027.064" transform="translate(0 -0.0005)"/><path class="cls-6" d="M46.3047,46.0586a.2415.2415,0,0,0-.064-.027.2415.2415,0,0,1,.064.027" transform="translate(0 -0.0005)"/><path class="cls-6" d="M46.18,46.02c.008,0,.014.004.021.004a.2131.2131,0,1,0,.22.222.0973.0973,0,0,1,.005.02.2455.2455,0,1,1-.246-.246" transform="translate(0 -0.0005)"/></g></g><path class="cls-10" d="M46.1485,46.1036c-.018.03.017.084.078.119s.125.039.143.009-.018-.084-.078-.119c-.062-.035-.126-.039-.143-.009" transform="translate(0 -0.0005)"/><path class="cls-6" d="M45.0928,46.2657a.2455.2455,0,1,0,.246-.246.2456.2456,0,0,0-.246.246" transform="translate(0 -0.0005)"/><g class="cls-8"><g class="cls-35"><path class="cls-6" d="M45.5723,46.2051a.2415.2415,0,0,0-.027-.064.2562.2562,0,0,1,.027.064" transform="translate(0 -0.0005)"/><path class="cls-6" d="M45.4639,46.0586a.248.248,0,0,0-.065-.027.248.248,0,0,1,.065.027" transform="translate(0 -0.0005)"/><path class="cls-6" d="M45.3389,46.02c.007,0,.014.004.021.004a.2131.2131,0,1,0,.22.222.1008.1008,0,0,1,.004.02.2455.2455,0,1,1-.245-.246" transform="translate(0 -0.0005)"/></g></g><path class="cls-10" d="M45.3076,46.1036c-.018.03.017.084.077.119.062.035.126.039.144.009.016-.03-.018-.084-.079-.119s-.125-.039-.142-.009" transform="translate(0 -0.0005)"/><path class="cls-6" d="M44.252,46.2657a.2455.2455,0,1,0,.245-.246.2454.2454,0,0,0-.245.246" transform="translate(0 -0.0005)"/><g class="cls-8"><g class="cls-36"><path class="cls-6" d="M44.7315,46.2051a.28.28,0,0,0-.027-.064.3.3,0,0,1,.027.064" transform="translate(0 -0.0005)"/><path class="cls-6" d="M44.6231,46.0586a.248.248,0,0,0-.065-.027.263.263,0,0,1,.065.027" transform="translate(0 -0.0005)"/><path class="cls-6" d="M44.4971,46.02c.008,0,.014.004.021.004a.2131.2131,0,1,0,.22.222.0973.0973,0,0,1,.005.02.2455.2455,0,1,1-.246-.246" transform="translate(0 -0.0005)"/></g></g><path class="cls-10" d="M44.4658,46.1036c-.018.03.017.084.078.119s.125.039.143.009-.018-.084-.078-.119c-.062-.035-.126-.039-.143-.009" transform="translate(0 -0.0005)"/><path class="cls-6" d="M43.41,46.2657a.2455.2455,0,1,0,.246-.246.2456.2456,0,0,0-.246.246" transform="translate(0 -0.0005)"/><g class="cls-8"><g class="cls-37"><path class="cls-6" d="M43.89,46.2051a.2126.2126,0,0,0-.027-.064.2562.2562,0,0,1,.027.064" transform="translate(0 -0.0005)"/><path class="cls-6" d="M43.78,46.0586a.2415.2415,0,0,0-.064-.027.2415.2415,0,0,1,.064.027" transform="translate(0 -0.0005)"/><path class="cls-6" d="M43.6563,46.02c.008,0,.014.004.021.004a.2131.2131,0,1,0,.22.222.1008.1008,0,0,1,.004.02.2455.2455,0,1,1-.245-.246" transform="translate(0 -0.0005)"/></g></g><path class="cls-10" d="M43.625,46.1036c-.018.03.017.084.077.119.062.035.126.039.144.009.016-.03-.018-.084-.079-.119s-.125-.039-.142-.009" transform="translate(0 -0.0005)"/><path class="cls-6" d="M42.5694,46.2657a.2455.2455,0,1,0,.245-.246.2454.2454,0,0,0-.245.246" transform="translate(0 -0.0005)"/><g class="cls-8"><g class="cls-38"><path class="cls-6" d="M43.0479,46.2051a.2391.2391,0,0,0-.026-.064.2964.2964,0,0,1,.026.064" transform="translate(0 -0.0005)"/><path class="cls-6" d="M42.94,46.0586a.2415.2415,0,0,0-.064-.027.2415.2415,0,0,1,.064.027" transform="translate(0 -0.0005)"/><path class="cls-6" d="M42.8145,46.02c.008,0,.014.004.021.004a.2131.2131,0,1,0,.22.222.0973.0973,0,0,1,.005.02.2455.2455,0,1,1-.246-.246" transform="translate(0 -0.0005)"/></g></g><path class="cls-10" d="M42.7822,46.1036c-.017.03.019.084.079.119s.125.039.143.009-.018-.084-.078-.119c-.062-.035-.125-.039-.144-.009" transform="translate(0 -0.0005)"/><path class="cls-6" d="M41.7276,46.2657a.2455.2455,0,1,0,.246-.246.2456.2456,0,0,0-.246.246" transform="translate(0 -0.0005)"/><g class="cls-8"><g class="cls-39"><path class="cls-6" d="M42.207,46.2051a.2126.2126,0,0,0-.027-.064.3.3,0,0,1,.027.064" transform="translate(0 -0.0005)"/><path class="cls-6" d="M42.0977,46.0586a.2415.2415,0,0,0-.064-.027.2415.2415,0,0,1,.064.027" transform="translate(0 -0.0005)"/><path class="cls-6" d="M41.9736,46.02c.008,0,.014.004.021.004a.2131.2131,0,1,0,.22.222.1008.1008,0,0,1,.004.02.2455.2455,0,1,1-.245-.246" transform="translate(0 -0.0005)"/></g></g><path class="cls-10" d="M41.9414,46.1036c-.017.03.018.084.078.119.062.035.126.039.143.009s-.017-.084-.078-.119-.125-.039-.143-.009" transform="translate(0 -0.0005)"/><path class="cls-6" d="M40.8867,46.2657a.2455.2455,0,1,0,.245-.246.2454.2454,0,0,0-.245.246" transform="translate(0 -0.0005)"/><g class="cls-8"><g class="cls-40"><path class="cls-6" d="M41.3652,46.2051a.2391.2391,0,0,0-.026-.064.2964.2964,0,0,1,.026.064" transform="translate(0 -0.0005)"/><path class="cls-6" d="M41.2569,46.0586a.2562.2562,0,0,0-.064-.027.2562.2562,0,0,1,.064.027" transform="translate(0 -0.0005)"/><path class="cls-6" d="M41.1319,46.02c.008,0,.014.004.021.004a.2131.2131,0,1,0,.22.222.0973.0973,0,0,1,.005.02.2455.2455,0,1,1-.246-.246" transform="translate(0 -0.0005)"/></g></g><path class="cls-10" d="M41.1,46.1036c-.017.03.019.084.079.119s.125.039.143.009-.018-.084-.078-.119c-.062-.035-.125-.039-.144-.009" transform="translate(0 -0.0005)"/><path class="cls-6" d="M40.0449,46.2657a.2455.2455,0,1,0,.246-.246.2456.2456,0,0,0-.246.246" transform="translate(0 -0.0005)"/><g class="cls-8"><g class="cls-41"><path class="cls-6" d="M40.5244,46.2051a.2126.2126,0,0,0-.027-.064.3.3,0,0,1,.027.064" transform="translate(0 -0.0005)"/><path class="cls-6" d="M40.4151,46.0586a.2415.2415,0,0,0-.064-.027.2415.2415,0,0,1,.064.027" transform="translate(0 -0.0005)"/><path class="cls-6" d="M40.291,46.02c.008,0,.014.004.021.004a.2131.2131,0,1,0,.22.222.1008.1008,0,0,1,.004.02.2455.2455,0,1,1-.245-.246" transform="translate(0 -0.0005)"/></g></g><path class="cls-10" d="M40.2588,46.1036c-.017.03.018.084.078.119.062.035.126.039.143.009s-.017-.084-.078-.119-.125-.039-.143-.009" transform="translate(0 -0.0005)"/><path class="cls-6" d="M39.2041,46.2657a.2455.2455,0,1,0,.245-.246.2454.2454,0,0,0-.245.246" transform="translate(0 -0.0005)"/><g class="cls-8"><g class="cls-42"><path class="cls-6" d="M39.6826,46.2051a.2391.2391,0,0,0-.026-.064.2964.2964,0,0,1,.026.064" transform="translate(0 -0.0005)"/><path class="cls-6" d="M39.5742,46.0586a.2562.2562,0,0,0-.064-.027.2729.2729,0,0,1,.064.027" transform="translate(0 -0.0005)"/><path class="cls-6" d="M39.4492,46.02c.008,0,.014.004.021.004a.2131.2131,0,1,0,.22.222.0973.0973,0,0,1,.005.02.2455.2455,0,1,1-.246-.246" transform="translate(0 -0.0005)"/></g></g><path class="cls-10" d="M39.417,46.1036c-.017.03.019.084.079.119s.125.039.143.009-.018-.084-.078-.119c-.062-.035-.125-.039-.144-.009" transform="translate(0 -0.0005)"/><path class="cls-6" d="M38.3633,46.2657a.245.245,0,1,0,.245-.246.2448.2448,0,0,0-.245.246" transform="translate(0 -0.0005)"/><g class="cls-8"><g class="cls-43"><path class="cls-6" d="M38.8418,46.2051a.2126.2126,0,0,0-.027-.064.2562.2562,0,0,1,.027.064" transform="translate(0 -0.0005)"/><path class="cls-6" d="M38.7324,46.0586a.2415.2415,0,0,0-.064-.027.2562.2562,0,0,1,.064.027" transform="translate(0 -0.0005)"/><path class="cls-6" d="M38.6084,46.02c.008,0,.014.004.021.004a.2131.2131,0,1,0,.22.222.1008.1008,0,0,1,.004.02.245.245,0,1,1-.245-.246" transform="translate(0 -0.0005)"/></g></g><path class="cls-10" d="M38.5762,46.1036c-.017.03.018.084.078.119.062.035.126.039.143.009s-.017-.084-.078-.119-.125-.039-.143-.009" transform="translate(0 -0.0005)"/><path class="cls-6" d="M37.5215,46.2657a.2455.2455,0,1,0,.245-.246.2454.2454,0,0,0-.245.246" transform="translate(0 -0.0005)"/><g class="cls-8"><g class="cls-44"><path class="cls-6" d="M38,46.2051a.2391.2391,0,0,0-.026-.064.2532.2532,0,0,1,.026.064" transform="translate(0 -0.0005)"/><path class="cls-6" d="M37.8916,46.0586a.2562.2562,0,0,0-.064-.027.2729.2729,0,0,1,.064.027" transform="translate(0 -0.0005)"/><path class="cls-6" d="M37.7666,46.02c.008,0,.014.004.021.004a.2131.2131,0,1,0,.22.222.0973.0973,0,0,1,.005.02.2455.2455,0,1,1-.246-.246" transform="translate(0 -0.0005)"/></g></g><path class="cls-10" d="M37.7344,46.1036c-.017.03.019.084.079.119s.125.039.143.009-.018-.084-.079-.119-.124-.039-.143-.009" transform="translate(0 -0.0005)"/><path class="cls-6" d="M36.6807,46.2657a.245.245,0,1,0,.245-.246.2448.2448,0,0,0-.245.246" transform="translate(0 -0.0005)"/><g class="cls-8"><g class="cls-45"><path class="cls-6" d="M37.1592,46.2051a.2126.2126,0,0,0-.027-.064.3.3,0,0,1,.027.064" transform="translate(0 -0.0005)"/><path class="cls-6" d="M37.05,46.0586a.2415.2415,0,0,0-.064-.027.2562.2562,0,0,1,.064.027" transform="translate(0 -0.0005)"/><path class="cls-6" d="M36.9258,46.02c.008,0,.014.004.021.004a.2131.2131,0,1,0,.22.222.1008.1008,0,0,1,.004.02.245.245,0,1,1-.245-.246" transform="translate(0 -0.0005)"/></g></g><path class="cls-10" d="M36.8936,46.1036c-.018.03.018.084.079.119s.125.039.142.009-.017-.084-.078-.119-.125-.039-.143-.009" transform="translate(0 -0.0005)"/><path class="cls-6" d="M1.7178,42.7764s.065.644,2.525,1.287h31.838v-1.287Z" transform="translate(0 -0.0005)"/><rect class="cls-4" x="4.243" y="44.063" width="31.838" height="1.86"/><rect class="cls-7" x="4.243" y="44.063" width="31.838" height="0.36"/><rect class="cls-7" x="5.224" y="45.923" width="30.857" height="0.683"/><path class="cls-6" d="M34.9912,46.2657a.2455.2455,0,1,0,.246-.246.2456.2456,0,0,0-.246.246" transform="translate(0 -0.0005)"/><g class="cls-8"><g class="cls-46"><path class="cls-6" d="M35.47,46.2051a.1878.1878,0,0,0-.026-.064.2964.2964,0,0,1,.026.064" transform="translate(0 -0.0005)"/><path class="cls-6" d="M35.3613,46.0586a.2415.2415,0,0,0-.064-.027.2562.2562,0,0,1,.064.027" transform="translate(0 -0.0005)"/><path class="cls-6" d="M35.2373,46.02c.007,0,.014.004.021.004a.2131.2131,0,1,0,.22.222c0,.006.004.012.004.02a.2455.2455,0,1,1-.245-.246" transform="translate(0 -0.0005)"/></g></g><path class="cls-10" d="M35.2051,46.1036c-.018.03.018.084.078.119.062.035.125.039.143.009s-.018-.084-.078-.119c-.062-.035-.125-.039-.143-.009" transform="translate(0 -0.0005)"/><path class="cls-6" d="M34.15,46.2657a.245.245,0,1,0,.245-.246.2454.2454,0,0,0-.245.246" transform="translate(0 -0.0005)"/><g class="cls-8"><g class="cls-47"><path class="cls-6" d="M34.6289,46.2051a.2126.2126,0,0,0-.027-.064.2562.2562,0,0,1,.027.064" transform="translate(0 -0.0005)"/><path class="cls-6" d="M34.5205,46.0586a.248.248,0,0,0-.065-.027.263.263,0,0,1,.065.027" transform="translate(0 -0.0005)"/><path class="cls-6" d="M34.3955,46.02c.007,0,.014.004.021.004a.2131.2131,0,1,0,.22.222c0,.006.005.012.005.02a.2455.2455,0,1,1-.246-.246" transform="translate(0 -0.0005)"/></g></g><path class="cls-10" d="M34.3633,46.1036c-.018.03.019.084.079.119s.124.039.143.009c.017-.03-.019-.084-.079-.119s-.124-.039-.143-.009" transform="translate(0 -0.0005)"/><path class="cls-6" d="M33.3086,46.2657a.245.245,0,1,0,.246-.246.2456.2456,0,0,0-.246.246" transform="translate(0 -0.0005)"/><g class="cls-8"><g class="cls-48"><path class="cls-6" d="M33.7871,46.2051a.1878.1878,0,0,0-.026-.064.2964.2964,0,0,1,.026.064" transform="translate(0 -0.0005)"/><path class="cls-6" d="M33.6787,46.0586a.2347.2347,0,0,0-.065-.027.248.248,0,0,1,.065.027" transform="translate(0 -0.0005)"/><path class="cls-6" d="M33.5547,46.02c.007,0,.014.004.021.004a.2131.2131,0,1,0,.22.222c0,.006.003.012.003.02a.245.245,0,1,1-.244-.246" transform="translate(0 -0.0005)"/></g></g><path class="cls-10" d="M33.5225,46.1036c-.018.03.018.084.079.119s.124.039.142.009-.018-.084-.078-.119c-.062-.035-.125-.039-.143-.009" transform="translate(0 -0.0005)"/><path class="cls-6" d="M32.4678,46.2657a.245.245,0,1,0,.245-.246.2454.2454,0,0,0-.245.246" transform="translate(0 -0.0005)"/><g class="cls-8"><g class="cls-49"><path class="cls-6" d="M32.9463,46.2051a.2126.2126,0,0,0-.027-.064.2562.2562,0,0,1,.027.064" transform="translate(0 -0.0005)"/><path class="cls-6" d="M32.8379,46.0586a.248.248,0,0,0-.065-.027.263.263,0,0,1,.065.027" transform="translate(0 -0.0005)"/><path class="cls-6" d="M32.7129,46.02c.007,0,.013.004.021.004a.2131.2131,0,1,0,.22.222c0,.006.004.012.004.02a.245.245,0,1,1-.245-.246" transform="translate(0 -0.0005)"/></g></g><path class="cls-10" d="M32.6807,46.1036c-.018.03.019.084.079.119s.124.039.143.009c.017-.03-.019-.084-.079-.119s-.124-.039-.143-.009" transform="translate(0 -0.0005)"/><path class="cls-6" d="M31.627,46.2657a.2445.2445,0,1,0,.245-.246.2441.2441,0,0,0-.245.246" transform="translate(0 -0.0005)"/><g class="cls-8"><g class="cls-50"><path class="cls-6" d="M32.1045,46.2051a.1718.1718,0,0,0-.027-.064.2562.2562,0,0,1,.027.064" transform="translate(0 -0.0005)"/><path class="cls-6" d="M31.9961,46.0586a.2415.2415,0,0,0-.064-.027.2415.2415,0,0,1,.064.027" transform="translate(0 -0.0005)"/><path class="cls-6" d="M31.8721,46.02c.007,0,.013.004.021.004a.2131.2131,0,1,0,.219.222.1008.1008,0,0,1,.004.02.2445.2445,0,1,1-.244-.246" transform="translate(0 -0.0005)"/></g></g><path class="cls-10" d="M31.84,46.1036c-.018.03.018.084.079.119s.124.039.142.009-.018-.084-.078-.119c-.062-.035-.125-.039-.143-.009" transform="translate(0 -0.0005)"/><path class="cls-6" d="M30.7852,46.2657a.245.245,0,1,0,.245-.246.2448.2448,0,0,0-.245.246" transform="translate(0 -0.0005)"/><g class="cls-8"><g class="cls-51"><path class="cls-6" d="M31.2637,46.2051a.2126.2126,0,0,0-.027-.064.2562.2562,0,0,1,.027.064" transform="translate(0 -0.0005)"/><path class="cls-6" d="M31.1553,46.0586a.248.248,0,0,0-.065-.027.263.263,0,0,1,.065.027" transform="translate(0 -0.0005)"/><path class="cls-6" d="M31.03,46.02c.007,0,.013.004.021.004a.2131.2131,0,1,0,.22.222c0,.006.004.012.004.02a.245.245,0,1,1-.245-.246" transform="translate(0 -0.0005)"/></g></g><path class="cls-10" d="M30.9981,46.1036c-.018.03.019.084.079.119.062.035.124.039.143.009.017-.03-.019-.084-.079-.119s-.124-.039-.143-.009" transform="translate(0 -0.0005)"/><path class="cls-6" d="M29.9444,46.2657a.2445.2445,0,1,0,.244-.246.2439.2439,0,0,0-.244.246" transform="translate(0 -0.0005)"/><g class="cls-8"><g class="cls-52"><path class="cls-6" d="M30.4219,46.2051a.1718.1718,0,0,0-.027-.064.2239.2239,0,0,1,.027.064" transform="translate(0 -0.0005)"/><path class="cls-6" d="M30.3135,46.0586a.2415.2415,0,0,0-.064-.027.2415.2415,0,0,1,.064.027" transform="translate(0 -0.0005)"/><path class="cls-6" d="M30.1885,46.02c.008,0,.014.004.021.004a.2131.2131,0,1,0,.22.222.1008.1008,0,0,1,.004.02.2445.2445,0,1,1-.245-.246" transform="translate(0 -0.0005)"/></g></g><path class="cls-10" d="M30.1572,46.1036c-.018.03.018.084.079.119s.124.039.142.009-.018-.084-.078-.119c-.062-.035-.125-.039-.143-.009" transform="translate(0 -0.0005)"/><path class="cls-6" d="M29.1026,46.2657a.245.245,0,1,0,.245-.246.2448.2448,0,0,0-.245.246" transform="translate(0 -0.0005)"/><g class="cls-8"><g class="cls-53"><path class="cls-6" d="M29.5811,46.2051a.2126.2126,0,0,0-.027-.064.2562.2562,0,0,1,.027.064" transform="translate(0 -0.0005)"/><path class="cls-6" d="M29.4727,46.0586a.248.248,0,0,0-.065-.027.263.263,0,0,1,.065.027" transform="translate(0 -0.0005)"/><path class="cls-6" d="M29.3477,46.02c.007,0,.013.004.021.004a.2131.2131,0,1,0,.22.222c0,.006.004.012.004.02a.245.245,0,1,1-.245-.246" transform="translate(0 -0.0005)"/></g></g><path class="cls-10" d="M29.3154,46.1036c-.018.03.019.084.079.119s.125.039.143.009-.018-.084-.079-.119-.124-.039-.143-.009" transform="translate(0 -0.0005)"/><path class="cls-6" d="M28.2617,46.2657a.2445.2445,0,1,0,.244-.246.2439.2439,0,0,0-.244.246" transform="translate(0 -0.0005)"/><g class="cls-8"><g class="cls-54"><path class="cls-6" d="M28.7393,46.2051a.1718.1718,0,0,0-.027-.064.2239.2239,0,0,1,.027.064" transform="translate(0 -0.0005)"/><path class="cls-6" d="M28.6309,46.0586a.2415.2415,0,0,0-.064-.027.2415.2415,0,0,1,.064.027" transform="translate(0 -0.0005)"/><path class="cls-6" d="M28.5059,46.02c.008,0,.014.004.021.004a.2131.2131,0,1,0,.22.222.1008.1008,0,0,1,.004.02.2445.2445,0,1,1-.245-.246" transform="translate(0 -0.0005)"/></g></g><path class="cls-10" d="M28.4746,46.1036c-.018.03.018.084.079.119s.124.039.142.009-.018-.084-.078-.119c-.062-.035-.125-.039-.143-.009" transform="translate(0 -0.0005)"/><path class="cls-6" d="M27.42,46.2657a.245.245,0,1,0,.245-.246.2448.2448,0,0,0-.245.246" transform="translate(0 -0.0005)"/><g class="cls-8"><g class="cls-55"><path class="cls-6" d="M27.8985,46.2051a.2126.2126,0,0,0-.027-.064.2562.2562,0,0,1,.027.064" transform="translate(0 -0.0005)"/><path class="cls-6" d="M27.79,46.0586a.248.248,0,0,0-.065-.027.263.263,0,0,1,.065.027" transform="translate(0 -0.0005)"/><path class="cls-6" d="M27.6651,46.02c.007,0,.013.004.021.004a.2131.2131,0,1,0,.22.222c0,.006.004.012.004.02a.245.245,0,1,1-.245-.246" transform="translate(0 -0.0005)"/></g></g><path class="cls-10" d="M27.6328,46.1036c-.018.03.018.084.079.119s.125.039.143.009-.018-.084-.079-.119-.124-.039-.143-.009" transform="translate(0 -0.0005)"/><path class="cls-6" d="M26.5791,46.2657a.2445.2445,0,1,0,.244-.246.2439.2439,0,0,0-.244.246" transform="translate(0 -0.0005)"/><g class="cls-8"><g class="cls-56"><path class="cls-6" d="M27.0567,46.2051a.1718.1718,0,0,0-.027-.064.2239.2239,0,0,1,.027.064" transform="translate(0 -0.0005)"/><path class="cls-6" d="M26.9483,46.0586a.2415.2415,0,0,0-.064-.027.2415.2415,0,0,1,.064.027" transform="translate(0 -0.0005)"/><path class="cls-6" d="M26.8233,46.02c.008,0,.014.004.021.004a.2131.2131,0,1,0,.22.222.1008.1008,0,0,1,.004.02.2445.2445,0,1,1-.245-.246" transform="translate(0 -0.0005)"/></g></g><path class="cls-10" d="M26.792,46.1036c-.018.03.017.084.079.119s.124.039.142.009-.018-.084-.078-.119c-.062-.035-.125-.039-.143-.009" transform="translate(0 -0.0005)"/><path class="cls-6" d="M25.7363,46.2657a.2455.2455,0,1,0,.246-.246.2456.2456,0,0,0-.246.246" transform="translate(0 -0.0005)"/><g class="cls-8"><g class="cls-57"><path class="cls-6" d="M26.2158,46.2051a.2415.2415,0,0,0-.027-.064.2562.2562,0,0,1,.027.064" transform="translate(0 -0.0005)"/><path class="cls-6" d="M26.1074,46.0586a.248.248,0,0,0-.065-.027.263.263,0,0,1,.065.027" transform="translate(0 -0.0005)"/><path class="cls-6" d="M25.9824,46.02c.007,0,.013.004.021.004a.2131.2131,0,1,0,.22.222c0,.006.004.012.004.02a.2455.2455,0,1,1-.245-.246" transform="translate(0 -0.0005)"/></g></g><path class="cls-10" d="M25.9512,46.1036c-.019.03.017.084.078.119s.125.039.143.009c.016-.03-.018-.084-.079-.119s-.125-.039-.142-.009" transform="translate(0 -0.0005)"/><path class="cls-6" d="M24.8965,46.2657a.2445.2445,0,1,0,.244-.246.2445.2445,0,0,0-.244.246" transform="translate(0 -0.0005)"/><g class="cls-8"><g class="cls-58"><path class="cls-6" d="M25.374,46.2051a.21.21,0,0,0-.026-.064.2532.2532,0,0,1,.026.064" transform="translate(0 -0.0005)"/><path class="cls-6" d="M25.2656,46.0586a.2415.2415,0,0,0-.064-.027.2415.2415,0,0,1,.064.027" transform="translate(0 -0.0005)"/><path class="cls-6" d="M25.1406,46.02c.008,0,.014.004.021.004a.2131.2131,0,1,0,.22.222.1008.1008,0,0,1,.004.02.2445.2445,0,1,1-.245-.246" transform="translate(0 -0.0005)"/></g></g><path class="cls-10" d="M25.1094,46.1036c-.018.03.017.084.079.119s.124.039.142.009-.018-.084-.078-.119c-.062-.035-.126-.039-.143-.009" transform="translate(0 -0.0005)"/><path class="cls-6" d="M24.0547,46.2657a.245.245,0,1,0,.245-.246.2448.2448,0,0,0-.245.246" transform="translate(0 -0.0005)"/><g class="cls-8"><g class="cls-59"><path class="cls-6" d="M24.5332,46.2051a.28.28,0,0,0-.027-.064.2562.2562,0,0,1,.027.064" transform="translate(0 -0.0005)"/><path class="cls-6" d="M24.4248,46.0586a.248.248,0,0,0-.065-.027.263.263,0,0,1,.065.027" transform="translate(0 -0.0005)"/><path class="cls-6" d="M24.3,46.02c.007,0,.013.004.021.004a.2131.2131,0,1,0,.22.222c0,.006.004.012.004.02a.245.245,0,1,1-.245-.246" transform="translate(0 -0.0005)"/></g></g><path class="cls-10" d="M24.2676,46.1036c-.018.03.018.084.078.119.063.035.126.039.144.009s-.018-.084-.079-.119-.125-.039-.143-.009" transform="translate(0 -0.0005)"/><path class="cls-6" d="M23.2139,46.2657a.2445.2445,0,1,0,.244-.246.2445.2445,0,0,0-.244.246" transform="translate(0 -0.0005)"/><g class="cls-8"><g class="cls-60"><path class="cls-6" d="M23.6914,46.2051a.2391.2391,0,0,0-.026-.064.2532.2532,0,0,1,.026.064" transform="translate(0 -0.0005)"/><path class="cls-6" d="M23.583,46.0586a.2415.2415,0,0,0-.064-.027.2415.2415,0,0,1,.064.027" transform="translate(0 -0.0005)"/><path class="cls-6" d="M23.458,46.02c.008,0,.014.004.021.004a.2131.2131,0,1,0,.22.222.1008.1008,0,0,1,.004.02.2445.2445,0,1,1-.245-.246" transform="translate(0 -0.0005)"/></g></g><path class="cls-10" d="M23.4268,46.1036c-.018.03.017.084.078.119s.125.039.143.009-.018-.084-.078-.119c-.062-.035-.126-.039-.143-.009" transform="translate(0 -0.0005)"/><path class="cls-6" d="M22.3711,46.2657a.2455.2455,0,1,0,.246-.246.2456.2456,0,0,0-.246.246" transform="translate(0 -0.0005)"/><g class="cls-8"><g class="cls-61"><path class="cls-6" d="M22.8506,46.2051a.2415.2415,0,0,0-.027-.064.2562.2562,0,0,1,.027.064" transform="translate(0 -0.0005)"/><path class="cls-6" d="M22.7422,46.0586a.248.248,0,0,0-.065-.027.248.248,0,0,1,.065.027" transform="translate(0 -0.0005)"/><path class="cls-6" d="M22.6172,46.02c.007,0,.014.004.021.004a.2131.2131,0,1,0,.22.222.1008.1008,0,0,1,.004.02.2455.2455,0,1,1-.245-.246" transform="translate(0 -0.0005)"/></g></g><path class="cls-10" d="M22.586,46.1036c-.019.03.017.084.077.119.063.035.126.039.144.009.016-.03-.018-.084-.079-.119s-.125-.039-.142-.009" transform="translate(0 -0.0005)"/><path class="cls-6" d="M21.53,46.2657a.245.245,0,1,0,.245-.246.2454.2454,0,0,0-.245.246" transform="translate(0 -0.0005)"/><g class="cls-8"><g class="cls-62"><path class="cls-6" d="M22.0088,46.2051a.2391.2391,0,0,0-.026-.064.2532.2532,0,0,1,.026.064" transform="translate(0 -0.0005)"/><path class="cls-6" d="M21.9,46.0586a.2415.2415,0,0,0-.064-.027.2415.2415,0,0,1,.064.027" transform="translate(0 -0.0005)"/><path class="cls-6" d="M21.7754,46.02c.008,0,.014.004.021.004a.2131.2131,0,1,0,.22.222.1008.1008,0,0,1,.004.02.245.245,0,1,1-.245-.246" transform="translate(0 -0.0005)"/></g></g><path class="cls-10" d="M21.7442,46.1036c-.018.03.017.084.078.119s.125.039.143.009-.018-.084-.078-.119c-.062-.035-.126-.039-.143-.009" transform="translate(0 -0.0005)"/><path class="cls-6" d="M20.6885,46.2657a.2455.2455,0,1,0,.246-.246.2456.2456,0,0,0-.246.246" transform="translate(0 -0.0005)"/><g class="cls-8"><g class="cls-63"><path class="cls-6" d="M21.168,46.2051a.2415.2415,0,0,0-.027-.064.2562.2562,0,0,1,.027.064" transform="translate(0 -0.0005)"/><path class="cls-6" d="M21.06,46.0586a.248.248,0,0,0-.065-.027.263.263,0,0,1,.065.027" transform="translate(0 -0.0005)"/><path class="cls-6" d="M20.9346,46.02c.007,0,.014.004.021.004a.2131.2131,0,1,0,.22.222c0,.006.004.012.004.02a.2455.2455,0,1,1-.245-.246" transform="translate(0 -0.0005)"/></g></g><path class="cls-10" d="M20.9033,46.1036c-.019.03.017.084.077.119.062.035.126.039.144.009.016-.03-.018-.084-.079-.119s-.125-.039-.142-.009" transform="translate(0 -0.0005)"/><path class="cls-6" d="M19.8477,46.2657a.245.245,0,1,0,.245-.246.2454.2454,0,0,0-.245.246" transform="translate(0 -0.0005)"/><g class="cls-8"><g class="cls-64"><path class="cls-6" d="M20.3262,46.2051a.2391.2391,0,0,0-.026-.064.2532.2532,0,0,1,.026.064" transform="translate(0 -0.0005)"/><path class="cls-6" d="M20.2188,46.0586a.248.248,0,0,0-.065-.027.263.263,0,0,1,.065.027" transform="translate(0 -0.0005)"/><path class="cls-6" d="M20.0928,46.02c.008,0,.014.004.021.004a.2131.2131,0,1,0,.22.222.1008.1008,0,0,1,.004.02.245.245,0,1,1-.245-.246" transform="translate(0 -0.0005)"/></g></g><path class="cls-10" d="M20.0615,46.1036c-.018.03.017.084.078.119s.125.039.143.009-.018-.084-.078-.119c-.062-.035-.126-.039-.143-.009" transform="translate(0 -0.0005)"/><path class="cls-6" d="M19.0059,46.2657a.2455.2455,0,1,0,.246-.246.2456.2456,0,0,0-.246.246" transform="translate(0 -0.0005)"/><g class="cls-8"><g class="cls-65"><path class="cls-6" d="M19.4854,46.2051a.2415.2415,0,0,0-.027-.064.2562.2562,0,0,1,.027.064" transform="translate(0 -0.0005)"/><path class="cls-6" d="M19.377,46.0586a.248.248,0,0,0-.065-.027.248.248,0,0,1,.065.027" transform="translate(0 -0.0005)"/><path class="cls-6" d="M19.252,46.02c.008,0,.014.004.021.004a.2131.2131,0,1,0,.22.222.1008.1008,0,0,1,.004.02.2455.2455,0,1,1-.245-.246" transform="translate(0 -0.0005)"/></g></g><path class="cls-10" d="M19.2207,46.1036c-.019.03.017.084.077.119.062.035.126.039.144.009.016-.03-.018-.084-.079-.119s-.125-.039-.142-.009" transform="translate(0 -0.0005)"/><path class="cls-6" d="M18.1651,46.2657a.2455.2455,0,1,0,.245-.246.2454.2454,0,0,0-.245.246" transform="translate(0 -0.0005)"/><g class="cls-8"><g class="cls-66"><path class="cls-6" d="M18.6436,46.2051a.2391.2391,0,0,0-.026-.064.2532.2532,0,0,1,.026.064" transform="translate(0 -0.0005)"/><path class="cls-6" d="M18.5352,46.0586a.2415.2415,0,0,0-.064-.027.2415.2415,0,0,1,.064.027" transform="translate(0 -0.0005)"/><path class="cls-6" d="M18.41,46.02c.008,0,.014.004.021.004a.2131.2131,0,1,0,.22.222.0973.0973,0,0,1,.005.02.2455.2455,0,1,1-.246-.246" transform="translate(0 -0.0005)"/></g></g><path class="cls-10" d="M18.3789,46.1036c-.018.03.018.084.078.119s.125.039.143.009-.018-.084-.078-.119c-.062-.035-.125-.039-.143-.009" transform="translate(0 -0.0005)"/><path class="cls-6" d="M17.3233,46.2657a.2455.2455,0,1,0,.246-.246.2456.2456,0,0,0-.246.246" transform="translate(0 -0.0005)"/><g class="cls-8"><g class="cls-67"><path class="cls-6" d="M17.8027,46.2051a.2415.2415,0,0,0-.027-.064.2562.2562,0,0,1,.027.064" transform="translate(0 -0.0005)"/><path class="cls-6" d="M17.6934,46.0586a.2415.2415,0,0,0-.064-.027.2284.2284,0,0,1,.064.027" transform="translate(0 -0.0005)"/><path class="cls-6" d="M17.5694,46.02c.008,0,.014.004.021.004a.2131.2131,0,1,0,.22.222.1008.1008,0,0,1,.004.02.2455.2455,0,1,1-.245-.246" transform="translate(0 -0.0005)"/></g></g><path class="cls-10" d="M17.5381,46.1036c-.019.03.017.084.077.119.062.035.126.039.144.009.016-.03-.018-.084-.079-.119s-.125-.039-.142-.009" transform="translate(0 -0.0005)"/><path class="cls-6" d="M16.4824,46.2657a.2455.2455,0,1,0,.245-.246.2454.2454,0,0,0-.245.246" transform="translate(0 -0.0005)"/><g class="cls-8"><g class="cls-68"><path class="cls-6" d="M16.961,46.2051a.2391.2391,0,0,0-.026-.064.2964.2964,0,0,1,.026.064" transform="translate(0 -0.0005)"/><path class="cls-6" d="M16.8526,46.0586a.2415.2415,0,0,0-.064-.027.2415.2415,0,0,1,.064.027" transform="translate(0 -0.0005)"/><path class="cls-6" d="M16.7276,46.02c.008,0,.014.004.021.004a.2131.2131,0,1,0,.22.222.0973.0973,0,0,1,.005.02.2455.2455,0,1,1-.246-.246" transform="translate(0 -0.0005)"/></g></g><path class="cls-10" d="M16.6953,46.1036c-.017.03.018.084.079.119s.125.039.143.009-.018-.084-.078-.119c-.062-.035-.126-.039-.144-.009" transform="translate(0 -0.0005)"/><path class="cls-6" d="M15.6406,46.2657a.2455.2455,0,1,0,.246-.246.2456.2456,0,0,0-.246.246" transform="translate(0 -0.0005)"/><g class="cls-8"><g class="cls-69"><path class="cls-6" d="M16.12,46.2051a.2415.2415,0,0,0-.027-.064.3.3,0,0,1,.027.064" transform="translate(0 -0.0005)"/><path class="cls-6" d="M16.0108,46.0586a.2415.2415,0,0,0-.064-.027.2415.2415,0,0,1,.064.027" transform="translate(0 -0.0005)"/><path class="cls-6" d="M15.8867,46.02c.008,0,.014.004.021.004a.2131.2131,0,1,0,.22.222.1008.1008,0,0,1,.004.02.2455.2455,0,1,1-.245-.246" transform="translate(0 -0.0005)"/></g></g><path class="cls-10" d="M15.8545,46.1036c-.018.03.018.084.078.119.062.035.126.039.143.009s-.017-.084-.078-.119-.125-.039-.143-.009" transform="translate(0 -0.0005)"/><path class="cls-6" d="M14.8,46.2657a.2455.2455,0,1,0,.245-.246.2454.2454,0,0,0-.245.246" transform="translate(0 -0.0005)"/><g class="cls-8"><g class="cls-70"><path class="cls-6" d="M15.2783,46.2051a.2391.2391,0,0,0-.026-.064.2964.2964,0,0,1,.026.064" transform="translate(0 -0.0005)"/><path class="cls-6" d="M15.17,46.0586a.2562.2562,0,0,0-.064-.027.2562.2562,0,0,1,.064.027" transform="translate(0 -0.0005)"/><path class="cls-6" d="M15.0449,46.02c.008,0,.014.004.021.004a.2131.2131,0,1,0,.22.222.0973.0973,0,0,1,.005.02.2455.2455,0,1,1-.246-.246" transform="translate(0 -0.0005)"/></g></g><path class="cls-10" d="M15.0127,46.1036c-.017.03.019.084.079.119s.125.039.143.009-.018-.084-.078-.119c-.062-.035-.125-.039-.144-.009" transform="translate(0 -0.0005)"/><path class="cls-6" d="M13.959,46.2657a.245.245,0,1,0,.245-.246.2448.2448,0,0,0-.245.246" transform="translate(0 -0.0005)"/><g class="cls-8"><g class="cls-71"><path class="cls-6" d="M14.4375,46.2051a.2126.2126,0,0,0-.027-.064.3.3,0,0,1,.027.064" transform="translate(0 -0.0005)"/><path class="cls-6" d="M14.3281,46.0586a.2415.2415,0,0,0-.064-.027.2415.2415,0,0,1,.064.027" transform="translate(0 -0.0005)"/><path class="cls-6" d="M14.2041,46.02c.008,0,.014.004.021.004a.2131.2131,0,1,0,.22.222.1008.1008,0,0,1,.004.02.245.245,0,1,1-.245-.246" transform="translate(0 -0.0005)"/></g></g><path class="cls-10" d="M14.1719,46.1036c-.017.03.018.084.078.119.062.035.126.039.143.009s-.017-.084-.078-.119-.125-.039-.143-.009" transform="translate(0 -0.0005)"/><path class="cls-6" d="M13.1172,46.2657a.2455.2455,0,1,0,.245-.246.2454.2454,0,0,0-.245.246" transform="translate(0 -0.0005)"/><g class="cls-8"><g class="cls-72"><path class="cls-6" d="M13.5957,46.2051a.2391.2391,0,0,0-.026-.064.2964.2964,0,0,1,.026.064" transform="translate(0 -0.0005)"/><path class="cls-6" d="M13.4873,46.0586a.2562.2562,0,0,0-.064-.027.2729.2729,0,0,1,.064.027" transform="translate(0 -0.0005)"/><path class="cls-6" d="M13.3623,46.02c.008,0,.014.004.021.004a.2131.2131,0,1,0,.22.222.0973.0973,0,0,1,.005.02.2455.2455,0,1,1-.246-.246" transform="translate(0 -0.0005)"/></g></g><path class="cls-10" d="M13.33,46.1036c-.017.03.019.084.079.119s.125.039.143.009-.018-.084-.078-.119c-.062-.035-.125-.039-.144-.009" transform="translate(0 -0.0005)"/><path class="cls-6" d="M12.2754,46.2657a.2455.2455,0,1,0,.246-.246.2456.2456,0,0,0-.246.246" transform="translate(0 -0.0005)"/><g class="cls-8"><g class="cls-73"><path class="cls-6" d="M12.7549,46.2051a.2126.2126,0,0,0-.027-.064.3.3,0,0,1,.027.064" transform="translate(0 -0.0005)"/><path class="cls-6" d="M12.6455,46.0586a.2415.2415,0,0,0-.064-.027.2562.2562,0,0,1,.064.027" transform="translate(0 -0.0005)"/><path class="cls-6" d="M12.5215,46.02c.008,0,.014.004.021.004a.2131.2131,0,1,0,.22.222.1008.1008,0,0,1,.004.02.2455.2455,0,1,1-.245-.246" transform="translate(0 -0.0005)"/></g></g><path class="cls-10" d="M12.4893,46.1036c-.017.03.018.084.079.119s.125.039.142.009-.017-.084-.078-.119-.125-.039-.143-.009" transform="translate(0 -0.0005)"/><path class="cls-6" d="M11.4346,46.2657a.2455.2455,0,1,0,.245-.246.2454.2454,0,0,0-.245.246" transform="translate(0 -0.0005)"/><g class="cls-8"><g class="cls-74"><path class="cls-6" d="M11.9141,46.2051a.28.28,0,0,0-.027-.064.3612.3612,0,0,1,.027.064" transform="translate(0 -0.0005)"/><path class="cls-6" d="M11.8047,46.0586a.2562.2562,0,0,0-.064-.027.2562.2562,0,0,1,.064.027" transform="translate(0 -0.0005)"/><path class="cls-6" d="M11.68,46.02c.008,0,.014.004.021.004a.2131.2131,0,1,0,.22.222.0973.0973,0,0,1,.005.02.2455.2455,0,1,1-.246-.246" transform="translate(0 -0.0005)"/></g></g><path class="cls-10" d="M11.6475,46.1036c-.017.03.019.084.079.119s.125.039.143.009-.018-.084-.079-.119-.124-.039-.143-.009" transform="translate(0 -0.0005)"/><path class="cls-6" d="M10.5938,46.2657a.245.245,0,1,0,.245-.246.2448.2448,0,0,0-.245.246" transform="translate(0 -0.0005)"/><g class="cls-8"><g class="cls-75"><path class="cls-6" d="M11.0723,46.2051a.2126.2126,0,0,0-.027-.064.3.3,0,0,1,.027.064" transform="translate(0 -0.0005)"/><path class="cls-6" d="M10.9629,46.0586a.2415.2415,0,0,0-.064-.027.2415.2415,0,0,1,.064.027" transform="translate(0 -0.0005)"/><path class="cls-6" d="M10.8389,46.02c.008,0,.014.004.021.004a.2131.2131,0,1,0,.22.222.1008.1008,0,0,1,.004.02.245.245,0,1,1-.245-.246" transform="translate(0 -0.0005)"/></g></g><path class="cls-10" d="M10.8067,46.1036c-.017.03.018.084.079.119s.125.039.142.009-.017-.084-.079-.119-.124-.039-.142-.009" transform="translate(0 -0.0005)"/><path class="cls-6" d="M9.752,46.2657a.2455.2455,0,1,0,.245-.246.2454.2454,0,0,0-.245.246" transform="translate(0 -0.0005)"/><g class="cls-8"><g class="cls-76"><path class="cls-6" d="M10.2315,46.2051a.28.28,0,0,0-.027-.064.3612.3612,0,0,1,.027.064" transform="translate(0 -0.0005)"/><path class="cls-6" d="M10.1221,46.0586a.2562.2562,0,0,0-.064-.027.2729.2729,0,0,1,.064.027" transform="translate(0 -0.0005)"/><path class="cls-6" d="M9.9971,46.02c.008,0,.014.004.021.004a.2131.2131,0,1,0,.22.222.0973.0973,0,0,1,.005.02.2455.2455,0,1,1-.246-.246" transform="translate(0 -0.0005)"/></g></g><path class="cls-10" d="M9.9649,46.1036c-.018.03.019.084.079.119s.124.039.143.009c.017-.03-.018-.084-.078-.119-.062-.035-.125-.039-.144-.009" transform="translate(0 -0.0005)"/><path class="cls-6" d="M8.9111,46.2657a.245.245,0,1,0,.245-.246.2448.2448,0,0,0-.245.246" transform="translate(0 -0.0005)"/><g class="cls-8"><g class="cls-77"><path class="cls-6" d="M9.39,46.2051a.2126.2126,0,0,0-.027-.064.3612.3612,0,0,1,.027.064" transform="translate(0 -0.0005)"/><path class="cls-6" d="M9.28,46.0586a.2415.2415,0,0,0-.064-.027.2562.2562,0,0,1,.064.027" transform="translate(0 -0.0005)"/><path class="cls-6" d="M9.1563,46.02c.008,0,.014.004.021.004a.2131.2131,0,1,0,.22.222.1008.1008,0,0,1,.004.02.245.245,0,1,1-.245-.246" transform="translate(0 -0.0005)"/></g></g><path class="cls-10" d="M9.124,46.1036c-.018.03.018.084.079.119s.124.039.142.009-.017-.084-.078-.119-.125-.039-.143-.009" transform="translate(0 -0.0005)"/><path class="cls-6" d="M8.0694,46.2657a.2455.2455,0,1,0,.245-.246.2454.2454,0,0,0-.245.246" transform="translate(0 -0.0005)"/><g class="cls-8"><g class="cls-78"><path class="cls-6" d="M8.5488,46.2051a.28.28,0,0,0-.027-.064.3612.3612,0,0,1,.027.064" transform="translate(0 -0.0005)"/><path class="cls-6" d="M8.44,46.0586a.2562.2562,0,0,0-.064-.027.2729.2729,0,0,1,.064.027" transform="translate(0 -0.0005)"/><path class="cls-6" d="M8.3145,46.02c.008,0,.014.004.021.004a.2131.2131,0,1,0,.22.222.0973.0973,0,0,1,.005.02.2455.2455,0,1,1-.246-.246" transform="translate(0 -0.0005)"/></g></g><path class="cls-10" d="M8.2822,46.1036c-.018.03.019.084.079.119s.124.039.143.009c.017-.03-.019-.084-.079-.119s-.124-.039-.143-.009" transform="translate(0 -0.0005)"/><path class="cls-6" d="M7.2285,46.2657a.245.245,0,1,0,.245-.246.2448.2448,0,0,0-.245.246" transform="translate(0 -0.0005)"/><g class="cls-8"><g class="cls-79"><path class="cls-6" d="M7.7061,46.2051a.1878.1878,0,0,0-.026-.064.2964.2964,0,0,1,.026.064" transform="translate(0 -0.0005)"/><path class="cls-6" d="M7.5977,46.0586a.2284.2284,0,0,0-.064-.027.2415.2415,0,0,1,.064.027" transform="translate(0 -0.0005)"/><path class="cls-6" d="M7.4736,46.02c.008,0,.014.004.021.004a.2131.2131,0,1,0,.22.222.1008.1008,0,0,1,.004.02.245.245,0,1,1-.245-.246" transform="translate(0 -0.0005)"/></g></g><path class="cls-10" d="M7.4414,46.1036c-.018.03.018.084.079.119s.124.039.142.009-.018-.084-.078-.119c-.062-.035-.125-.039-.143-.009" transform="translate(0 -0.0005)"/><path class="cls-6" d="M6.3867,46.2657a.2455.2455,0,1,0,.245-.246.2454.2454,0,0,0-.245.246" transform="translate(0 -0.0005)"/><g class="cls-8"><g class="cls-80"><path class="cls-6" d="M6.8652,46.2051a.2391.2391,0,0,0-.026-.064.2964.2964,0,0,1,.026.064" transform="translate(0 -0.0005)"/><path class="cls-6" d="M6.7569,46.0586a.2562.2562,0,0,0-.064-.027.2729.2729,0,0,1,.064.027" transform="translate(0 -0.0005)"/><path class="cls-6" d="M6.6319,46.02c.008,0,.014.004.021.004a.2131.2131,0,1,0,.22.222.0973.0973,0,0,1,.005.02.2455.2455,0,1,1-.246-.246" transform="translate(0 -0.0005)"/></g></g><path class="cls-10" d="M6.6,46.1036c-.018.03.019.084.079.119s.124.039.143.009c.017-.03-.018-.084-.079-.119s-.124-.039-.143-.009" transform="translate(0 -0.0005)"/><path class="cls-6" d="M5.5459,46.2657a.245.245,0,1,0,.245-.246.2448.2448,0,0,0-.245.246" transform="translate(0 -0.0005)"/><g class="cls-8"><g class="cls-81"><path class="cls-6" d="M6.0235,46.2051a.1878.1878,0,0,0-.026-.064.2532.2532,0,0,1,.026.064" transform="translate(0 -0.0005)"/><path class="cls-6" d="M5.9151,46.0586a.2284.2284,0,0,0-.064-.027.2415.2415,0,0,1,.064.027" transform="translate(0 -0.0005)"/><path class="cls-6" d="M5.791,46.02c.008,0,.014.004.021.004a.2131.2131,0,1,0,.22.222.1008.1008,0,0,1,.004.02.245.245,0,1,1-.245-.246" transform="translate(0 -0.0005)"/></g></g><path class="cls-10" d="M5.7588,46.1036c-.018.03.018.084.079.119s.124.039.142.009-.017-.084-.078-.119-.125-.039-.143-.009" transform="translate(0 -0.0005)"/><rect class="cls-6" x="1.718" y="41.943" width="68.726" height="0.065"/><rect class="cls-6" x="1.718" y="42.197" width="68.726" height="0.065"/><path class="cls-6" d="M35.8389,46.2657a.2455.2455,0,1,0,.245-.246.2454.2454,0,0,0-.245.246" transform="translate(0 -0.0005)"/><g class="cls-8"><g class="cls-82"><path class="cls-6" d="M36.3184,46.2051a.28.28,0,0,0-.027-.064.3.3,0,0,1,.027.064" transform="translate(0 -0.0005)"/><path class="cls-6" d="M36.209,46.0586a.2562.2562,0,0,0-.064-.027.2729.2729,0,0,1,.064.027" transform="translate(0 -0.0005)"/><path class="cls-6" d="M36.084,46.02c.008,0,.014.004.021.004a.2131.2131,0,1,0,.22.222.0973.0973,0,0,1,.005.02.2455.2455,0,1,1-.246-.246" transform="translate(0 -0.0005)"/></g></g><path class="cls-10" d="M36.0518,46.1036c-.018.03.019.084.079.119s.125.039.143.009-.018-.084-.079-.119-.124-.039-.143-.009" transform="translate(0 -0.0005)"/><rect class="cls-4" x="64.425" y="5.94" width="4.361" height="34.319"/><rect class="cls-6" x="67.554" y="5.94" width="0.251" height="34.319"/><rect class="cls-6" x="65.407" y="5.94" width="0.251" height="34.319"/><rect class="cls-6" x="66.48" y="5.94" width="0.251" height="34.319"/><rect class="cls-4" x="63.594" y="2.986" width="6.024" height="2.954"/><g class="cls-83"><g class="cls-84"><rect class="cls-4" x="63.594" y="3.585" width="6.024" height="0.081"/></g></g><g class="cls-83"><g class="cls-85"><rect class="cls-4" x="63.594" y="3.299" width="6.024" height="0.081"/></g></g><g class="cls-8"><g class="cls-86"><polygon class="cls-4" points="68.786 5.94 68.786 6.439 64.425 7.214 64.425 5.94 68.786 5.94"/></g></g><rect class="cls-4" x="55.704" y="5.94" width="4.361" height="34.319"/><rect class="cls-6" x="58.831" y="5.94" width="0.253" height="34.319"/><rect class="cls-6" x="56.686" y="5.94" width="0.252" height="34.319"/><rect class="cls-6" x="57.758" y="5.94" width="0.253" height="34.319"/><rect class="cls-4" x="54.872" y="2.986" width="6.024" height="2.954"/><g class="cls-83"><g class="cls-87"><rect class="cls-4" x="54.872" y="3.585" width="6.024" height="0.081"/></g></g><g class="cls-83"><g class="cls-88"><rect class="cls-4" x="54.872" y="3.299" width="6.024" height="0.081"/></g></g><g class="cls-8"><g class="cls-89"><polygon class="cls-4" points="60.065 5.94 60.065 6.439 55.704 7.214 55.704 5.94 60.065 5.94"/></g></g><rect class="cls-4" x="46.982" y="5.94" width="4.361" height="34.319"/><rect class="cls-6" x="50.11" y="5.94" width="0.252" height="34.319"/><rect class="cls-6" x="47.964" y="5.94" width="0.252" height="34.319"/><rect class="cls-6" x="49.037" y="5.94" width="0.252" height="34.319"/><rect class="cls-4" x="46.151" y="2.986" width="6.024" height="2.954"/><g class="cls-83"><g class="cls-90"><rect class="cls-4" x="46.151" y="3.585" width="6.024" height="0.081"/></g></g><g class="cls-83"><g class="cls-91"><rect class="cls-4" x="46.151" y="3.299" width="6.024" height="0.081"/></g></g><g class="cls-8"><g class="cls-92"><polygon class="cls-4" points="51.344 5.94 51.344 6.439 46.983 7.214 46.983 5.94 51.344 5.94"/></g></g><rect class="cls-4" x="38.261" y="5.94" width="4.362" height="34.319"/><rect class="cls-6" x="41.39" y="5.94" width="0.251" height="34.319"/><rect class="cls-6" x="39.242" y="5.94" width="0.252" height="34.319"/><rect class="cls-6" x="40.315" y="5.94" width="0.252" height="34.319"/><rect class="cls-4" x="37.43" y="2.986" width="6.024" height="2.954"/><g class="cls-83"><g class="cls-93"><rect class="cls-4" x="37.43" y="3.585" width="6.024" height="0.081"/></g></g><g class="cls-83"><g class="cls-94"><rect class="cls-4" x="37.43" y="3.299" width="6.024" height="0.081"/></g></g><g class="cls-8"><g class="cls-95"><polygon class="cls-4" points="42.623 5.94 42.623 6.439 38.261 7.214 38.261 5.94 42.623 5.94"/></g></g><rect class="cls-4" x="29.539" y="5.94" width="4.362" height="34.319"/><rect class="cls-6" x="32.668" y="5.94" width="0.252" height="34.319"/><rect class="cls-6" x="30.521" y="5.94" width="0.252" height="34.319"/><rect class="cls-6" x="31.595" y="5.94" width="0.252" height="34.319"/><rect class="cls-4" x="28.708" y="2.986" width="6.024" height="2.954"/><g class="cls-83"><g class="cls-96"><rect class="cls-4" x="28.708" y="3.585" width="6.024" height="0.081"/></g></g><g class="cls-83"><g class="cls-97"><rect class="cls-4" x="28.708" y="3.299" width="6.024" height="0.081"/></g></g><g class="cls-8"><g class="cls-98"><polygon class="cls-4" points="33.901 5.94 33.901 6.439 29.539 7.214 29.539 5.94 33.901 5.94"/></g></g><rect class="cls-4" x="20.818" y="5.94" width="4.361" height="34.319"/><rect class="cls-6" x="23.946" y="5.94" width="0.252" height="34.319"/><rect class="cls-6" x="21.8" y="5.94" width="0.252" height="34.319"/><rect class="cls-6" x="22.873" y="5.94" width="0.252" height="34.319"/><rect class="cls-4" x="19.987" y="2.986" width="6.024" height="2.954"/><g class="cls-83"><g class="cls-99"><rect class="cls-4" x="19.987" y="3.585" width="6.024" height="0.081"/></g></g><g class="cls-83"><g class="cls-100"><rect class="cls-4" x="19.987" y="3.299" width="6.024" height="0.081"/></g></g><g class="cls-8"><g class="cls-101"><polygon class="cls-4" points="25.18 5.94 25.18 6.439 20.819 7.214 20.819 5.94 25.18 5.94"/></g></g><rect class="cls-4" x="12.098" y="5.94" width="4.361" height="34.319"/><rect class="cls-6" x="15.226" y="5.94" width="0.251" height="34.319"/><rect class="cls-6" x="13.078" y="5.94" width="0.252" height="34.319"/><rect class="cls-6" x="14.151" y="5.94" width="0.252" height="34.319"/><rect class="cls-4" x="11.266" y="2.986" width="6.024" height="2.954"/><g class="cls-83"><g class="cls-102"><rect class="cls-4" x="11.266" y="3.585" width="6.024" height="0.081"/></g></g><g class="cls-83"><g class="cls-103"><rect class="cls-4" x="11.266" y="3.299" width="6.024" height="0.081"/></g></g><g class="cls-8"><g class="cls-104"><polygon class="cls-4" points="16.459 5.94 16.459 6.439 12.098 7.214 12.098 5.94 16.459 5.94"/></g></g><rect class="cls-4" x="3.375" y="5.94" width="4.361" height="34.319"/><rect class="cls-6" x="6.504" y="5.94" width="0.252" height="34.319"/><rect class="cls-6" x="4.357" y="5.94" width="0.252" height="34.319"/><rect class="cls-6" x="5.431" y="5.94" width="0.252" height="34.319"/><rect class="cls-4" x="2.544" y="2.986" width="6.024" height="2.954"/><g class="cls-83"><g class="cls-105"><rect class="cls-4" x="2.544" y="3.585" width="6.024" height="0.081"/></g></g><g class="cls-83"><g class="cls-106"><rect class="cls-4" x="2.544" y="3.299" width="6.024" height="0.081"/></g></g><g class="cls-8"><g class="cls-107"><polygon class="cls-4" points="7.736 5.94 7.736 6.439 3.375 7.214 3.375 5.94 7.736 5.94"/></g></g><rect class="cls-6" x="1.718" y="1.935" width="68.727" height="1.075"/><rect class="cls-4" width="72.162" height="1.936"/><rect class="cls-108" width="72.162" height="1.936"/></g></g></g></g></svg>