<svg id="payment" width="88" height="65" xmlns="http://www.w3.org/2000/svg" viewBox="0 0 87.9999 65.0002"><defs><style>.cls-1{fill:#29295f;fill-rule:evenodd;}</style></defs><title>payment</title><path class="cls-1" d="M81.815,65H6.1849A6.2149,6.2149,0,0,1,0,58.77V6.23A6.215,6.215,0,0,1,6.1849,0h75.63A6.215,6.215,0,0,1,88,6.23V58.77A6.2149,6.2149,0,0,1,81.815,65ZM85.0666,6.23A3.2671,3.2671,0,0,0,81.815,2.9543H6.1849A3.2672,3.2672,0,0,0,2.9333,6.23V58.77a3.2672,3.2672,0,0,0,3.2516,3.2751h75.63A3.2671,3.2671,0,0,0,85.0666,58.77ZM64.5333,42.8407H80.6666V54.6589H64.5333Zm2.9333,8.8637H77.7333V45.7953H67.4666Zm-13.2-41.3636h26.4V28.068h-26.4ZM57.2,25.1135H77.7333V13.2953H57.2Zm4.4,29.5454H45.4666V42.8407H61.6Zm-2.9333-8.8636H48.4v5.9091H58.6666ZM26.4,42.8407H42.5332V54.6589H26.4Zm2.9332,8.8637H39.6V45.7953H29.3332ZM41.0666,22.1589a1.5333,1.5333,0,0,1-1.0413-.4284,1.506,1.506,0,0,1,0-2.0977,1.5276,1.5276,0,0,1,2.0827,0,1.5062,1.5062,0,0,1,0,2.0977A1.5088,1.5088,0,0,1,41.0666,22.1589ZM35.2,19.2044a1.4773,1.4773,0,0,1,0,2.9545H32.2666a1.4773,1.4773,0,0,1,0-2.9545Zm5.8666-4.432h-13.2a1.4773,1.4773,0,0,1,0-2.9545h13.2a1.4773,1.4773,0,0,1,0,2.9545Zm-13.2,5.9094A1.4716,1.4716,0,0,1,26.4,22.1589H24.9333a1.4773,1.4773,0,0,1,0-2.9545H26.4A1.4717,1.4717,0,0,1,27.8667,20.6818ZM22,14.7724H8.8a1.4773,1.4773,0,0,1,0-2.9545H22a1.4773,1.4773,0,0,1,0,2.9545ZM8.8,19.2044h1.4666a1.4773,1.4773,0,0,1,0,2.9545H8.8a1.4773,1.4773,0,0,1,0-2.9545Zm7.3333,2.9545a1.4773,1.4773,0,0,1,0-2.9545h2.9333a1.4773,1.4773,0,0,1,0,2.9545Zm7.3333,32.5H7.3333V42.8407H23.4666Zm-2.9333-8.8636H10.2666v5.9091H20.5333Z" transform="translate(0 0.0003)"/></svg>