<svg id="phone" xmlns="http://www.w3.org/2000/svg" viewBox="0 0 23.0006 27.0005"><defs><style>.cls-1{fill:#fff;fill-rule:evenodd;}</style></defs><title>phone</title><path class="cls-1" d="M23,23.2124a3.4529,3.4529,0,0,1-1.275,2,6.3884,6.3884,0,0,1-4.6166,1.7823c-2.11-.0869-7.65-5.0859-10.5959-8.4767S-.17,7.7809.0054,5.4768,3.0391.1737,5.0177,0c1.275.3914,3.3414,6.26,3.3853,7.7814-.1319.6518-1.0551.4346-1.8905,1.0863a3.0147,3.0147,0,0,0-1.1871,2.0869c0,1.0433,2.3742,4.173,3.2535,5.3032s3.6492,4.4775,4.9243,4.3037,1.4508-1.3253,2.1983-2C16.7128,17.6481,21.8129,21.6912,23,23.2124Z" transform="translate(0.0006 0.0005)"/></svg>