<svg width="159" height="159" id="play" xmlns="http://www.w3.org/2000/svg" viewBox="0 0 159.0263 159.0246"><defs><style>.cls-1{fill:#fff;fill-rule:evenodd;}</style></defs><title>play</title><path class="cls-1" d="M148.3462,39.7516a79.4972,79.4972,0,1,0-29.0983,108.5965A79.4917,79.4917,0,0,0,148.3462,39.7516ZM111.298,134.5755a63.5965,63.5965,0,1,1,23.2792-86.8738A63.5949,63.5949,0,0,1,111.298,134.5755ZM108.1228,76.27,66.49,51.9913c-3.7926-2.2144-6.8533-.4445-6.8318,3.9441l.2134,48.1908c.02,4.3862,3.1172,6.1718,6.9213,3.9751l41.3145-23.85C111.9034,82.058,111.9113,78.4844,108.1228,76.27Z" transform="translate(0.0133 0.0115)"/></svg>