<svg id="privacy" width="79" height="79" xmlns="http://www.w3.org/2000/svg" viewBox="0 0 79.0001 79.0002"><defs><style>.cls-1{fill:#29295f;}</style></defs><title>privacy</title><path class="cls-1" d="M5.2667,65.8333A1.3166,1.3166,0,1,1,3.95,67.15,1.3165,1.3165,0,0,1,5.2667,65.8333Z" transform="translate(0.0001 0.0003)"/><path class="cls-1" d="M10.5333,60.5664a1.3167,1.3167,0,1,1-1.3167,1.3167A1.3168,1.3168,0,0,1,10.5333,60.5664Z" transform="translate(0.0001 0.0003)"/><path class="cls-1" d="M5.2667,10.533A1.3168,1.3168,0,1,1,3.95,11.85,1.3167,1.3167,0,0,1,5.2667,10.533Z" transform="translate(0.0001 0.0003)"/><path class="cls-1" d="M10.5333,15.8a1.3166,1.3166,0,1,1-1.3167,1.3166A1.3165,1.3165,0,0,1,10.5333,15.8Z" transform="translate(0.0001 0.0003)"/><path class="cls-1" d="M73.7333,65.8333A1.3166,1.3166,0,1,1,72.4166,67.15,1.3165,1.3165,0,0,1,73.7333,65.8333Z" transform="translate(0.0001 0.0003)"/><path class="cls-1" d="M68.4667,60.5664A1.3167,1.3167,0,1,1,67.15,61.8831,1.3167,1.3167,0,0,1,68.4667,60.5664Z" transform="translate(0.0001 0.0003)"/><path class="cls-1" d="M73.7333,10.533A1.3168,1.3168,0,1,1,72.4166,11.85,1.3167,1.3167,0,0,1,73.7333,10.533Z" transform="translate(0.0001 0.0003)"/><path class="cls-1" d="M68.4667,15.8A1.3166,1.3166,0,1,1,67.15,17.1165,1.3165,1.3165,0,0,1,68.4667,15.8Z" transform="translate(0.0001 0.0003)"/><path class="cls-1" d="M79,1.3163c0-.0211-.0079-.0392-.0093-.0591a1.2352,1.2352,0,0,0-.0289-.195,1.3409,1.3409,0,0,0-.0474-.19C78.9078.853,78.9078.8319,78.9.8134c-.0158-.0395-.0448-.07-.0632-.1067A1.431,1.431,0,0,0,78.734.5355a1.33,1.33,0,0,0-.1264-.1408,1.2732,1.2732,0,0,0-.1409-.1263,1.2965,1.2965,0,0,0-.1712-.1029,1.1011,1.1011,0,0,0-.1066-.063c-.02-.008-.04-.008-.0592-.0145a1.32,1.32,0,0,0-.1883-.0473,1.2422,1.2422,0,0,0-.1963-.0291A.3689.3689,0,0,0,77.6833,0H1.3166c-.021,0-.0408.008-.0632.0092a1.1332,1.1332,0,0,0-.1882.0292A1.37,1.37,0,0,0,.8716.0853C.8518.0918.8321.0918.8123.1A1.0588,1.0588,0,0,0,.7057.1643,1.3965,1.3965,0,0,0,.5345.2672,1.2612,1.2612,0,0,0,.3936.3935,1.2467,1.2467,0,0,0,.2673.5344,1.2239,1.2239,0,0,0,.1646.7056,1.119,1.119,0,0,0,.1.8119c-.0079.02-.0079.04-.0145.06a1.3071,1.3071,0,0,0-.0473.1908,1.2239,1.2239,0,0,0-.029.195C.0079,1.2771,0,1.2952,0,1.3163v76.367c0,.0207.008.0391.0093.06a1.2307,1.2307,0,0,0,.029.195,1.2914,1.2914,0,0,0,.0473.19c.0066.02.0066.0407.0145.0592.0158.04.0448.07.0632.1067a1.4443,1.4443,0,0,0,.1027.1712,1.2914,1.2914,0,0,0,.1264.1408,1.2514,1.2514,0,0,0,.1409.1263,1.2609,1.2609,0,0,0,.1712.1029,1.1684,1.1684,0,0,0,.1066.0633c.0158.0066.033.0039.0488.0093A1.2868,1.2868,0,0,0,1.3166,79H77.6833a1.2972,1.2972,0,0,0,.4555-.091c.0159-.0054.033-.0027.0488-.0092.0395-.0157.07-.0449.1066-.0633a1.3862,1.3862,0,0,0,.1712-.1025,1.3455,1.3455,0,0,0,.1409-.1263,1.321,1.321,0,0,0,.1264-.1409,1.2517,1.2517,0,0,0,.1027-.1716,1.0336,1.0336,0,0,0,.0632-.1063c.0079-.02.0079-.04.0145-.0595a1.33,1.33,0,0,0,.0473-.19,1.2344,1.2344,0,0,0,.029-.1946A.5641.5641,0,0,0,79,77.6833ZM76.3666,74.5046,65.8333,63.9712V15.0283L76.3666,4.495ZM60.5666,63.2V15.8H63.2V63.2ZM2.6333,4.495,13.1666,15.0283V63.9712L2.6333,74.5046ZM15.8,15.8h2.6333V63.2H15.8Zm5.2666,0H31.6V63.2H21.0666Zm13.1667,0H44.7666V63.2H34.2333ZM47.4,15.8H57.9333V63.2H47.4ZM74.5049,2.6329,63.9715,13.1666H15.0284L4.495,2.6329ZM4.495,76.3663l10.5334-10.533H63.9715l10.5334,10.533Z" transform="translate(0.0001 0.0003)"/><path class="cls-1" d="M67.15,72.4164a1.3166,1.3166,0,1,1-1.3167,1.3166A1.3168,1.3168,0,0,1,67.15,72.4164Z" transform="translate(0.0001 0.0003)"/><path class="cls-1" d="M61.8833,67.15a1.3167,1.3167,0,1,1-1.3167,1.3166A1.3164,1.3164,0,0,1,61.8833,67.15Z" transform="translate(0.0001 0.0003)"/><path class="cls-1" d="M11.85,72.4164a1.3166,1.3166,0,1,1-1.3167,1.3166A1.3167,1.3167,0,0,1,11.85,72.4164Z" transform="translate(0.0001 0.0003)"/><path class="cls-1" d="M17.1166,67.15A1.3167,1.3167,0,1,1,15.8,68.4665,1.3165,1.3165,0,0,1,17.1166,67.15Z" transform="translate(0.0001 0.0003)"/><path class="cls-1" d="M67.15,3.95a1.3167,1.3167,0,1,1-1.3167,1.3166A1.3165,1.3165,0,0,1,67.15,3.95Z" transform="translate(0.0001 0.0003)"/><path class="cls-1" d="M61.8833,9.2164a1.3166,1.3166,0,1,1-1.3167,1.3166A1.3166,1.3166,0,0,1,61.8833,9.2164Z" transform="translate(0.0001 0.0003)"/><path class="cls-1" d="M11.85,3.95a1.3167,1.3167,0,1,1-1.3167,1.3166A1.3165,1.3165,0,0,1,11.85,3.95Z" transform="translate(0.0001 0.0003)"/><path class="cls-1" d="M17.1166,9.2164A1.3166,1.3166,0,1,1,15.8,10.533,1.3167,1.3167,0,0,1,17.1166,9.2164Z" transform="translate(0.0001 0.0003)"/></svg>