<svg id="quality" width="81" height="81" xmlns="http://www.w3.org/2000/svg" viewBox="0 0 80.9999 81.0002"><defs><style>.cls-1{fill:#29295f;fill-rule:evenodd;}</style></defs><title>quality</title><path class="cls-1" d="M79.6263,21.4614,60.4889,40.5987a25.1527,25.1527,0,1,1-39.978,0L1.3734,21.4614A4.66,4.66,0,0,1,0,18.1454V3.7009A3.7054,3.7054,0,0,1,3.7009-.0006c.0232,0,.0461.0032.0693.004.0222-.0016.0442-.004.0666-.004H77.1631c.0226,0,.0445.0024.0666.004.0232-.0008.046-.004.0693-.004A3.705,3.705,0,0,1,81,3.7009V18.1454A4.66,4.66,0,0,1,79.6263,21.4614ZM17.9052,55.847A22.5948,22.5948,0,1,0,40.5,33.2521,22.62,22.62,0,0,0,17.9052,55.847ZM44.716,31.0493,57.8607,17.9052H23.1392L36.284,31.0493a25.2262,25.2262,0,0,1,8.432,0ZM3.7009,2.5578a1.1443,1.1443,0,0,0-1.143,1.1431V18.1454a2.1175,2.1175,0,0,0,.6243,1.5071l18.989,18.9888a25.1945,25.1945,0,0,1,11.1775-6.91l-14.1-14.0993a1.2969,1.2969,0,0,1-.2183-.2185L4.5092,2.8926A1.1343,1.1343,0,0,0,3.7009,2.5578Zm4.0908,0,12.79,12.7893H60.4187l12.79-12.7893Zm70.65,15.588V3.7009a1.1428,1.1428,0,0,0-1.951-.8083L61.9688,17.4143a1.2784,1.2784,0,0,1-.2176.2173l-14.1,14.1a25.1945,25.1945,0,0,1,11.1775,6.91L77.8177,19.6525a2.1157,2.1157,0,0,0,.6241-1.5071ZM25.4083,50.7314v.1706a1.2789,1.2789,0,1,1-2.5578,0v-.1706a1.2789,1.2789,0,1,1,2.5578,0Zm-.682,5.1156A15.7914,15.7914,0,0,0,40.5,71.6208a1.2791,1.2791,0,0,1,0,2.5581A18.3525,18.3525,0,0,1,22.1685,55.847a1.2789,1.2789,0,0,1,2.5578,0Zm9.7049,1.9883-1.2328,4.1091a1.279,1.279,0,0,1-2.45-.7351l3.2286-10.762a3.7658,3.7658,0,0,1,3.6294-2.7h.5007a3.7652,3.7652,0,0,1,3.6292,2.7l3.2284,10.762a1.2789,1.2789,0,1,1-2.45.7351l-1.2327-4.1091Zm4.8555-6.6533a1.2238,1.2238,0,0,0-1.1794-.8775h-.5007a1.2237,1.2237,0,0,0-1.1794.8775l-1.2286,4.0953h5.3167Zm7.5909,2.84H47.952V52.9482a1.2789,1.2789,0,1,1,2.5578,0v1.0743h1.0744a1.279,1.279,0,0,1,0,2.558H50.51v1.0742a1.2789,1.2789,0,1,1-2.5578,0V56.5805H46.8776a1.279,1.279,0,0,1,0-2.558Zm10.1634,5.491A1.2788,1.2788,0,0,1,58.32,60.7921v.1706a1.2789,1.2789,0,1,1-2.5578,0v-.1706A1.2788,1.2788,0,0,1,57.041,59.5135Zm-.7674-3.6665A15.7916,15.7916,0,0,0,40.5,40.0732a1.2788,1.2788,0,1,1,0-2.5576A18.3519,18.3519,0,0,1,58.8314,55.847a1.2789,1.2789,0,0,1-2.5578,0Z" transform="translate(0.0001 0.0006)"/></svg>