<svg id="security" width="101" height="72" xmlns="http://www.w3.org/2000/svg" viewBox="0 0 100.1422 71.7402"><defs><style>.cls-1{fill:#29295f;fill-rule:evenodd;}</style></defs><title>security2</title><path class="cls-1" d="M100.1422,71.8779H0v-3.679l.2131.2148V53.6945L0,53.9093V50.1061H.2131V21.91H0V18.1067l.2131.2148V3.6035L0,3.8183V.1377H100.1422ZM96.514,69.7646l-7.163-7.2165-7.162,7.2165Zm.1209-17.5456H82.0682l7.2828,7.34ZM80.5866,68.39l7.2809-7.3361-6.2753-6.3226-1.0056-1.0127ZM76.93,69.7646l-7.1638-7.2173L62.603,69.7646ZM69.7658,59.5593l7.2846-7.34H62.4822l7.2835,7.34Zm-8.7493,8.8162,7.2663-7.3218-3.8143-3.8429-3.452-3.4766Zm-3.6727,1.3891-7.162-7.2165-7.1632,7.2165Zm.1209-17.5456H42.8977l7.2841,7.34ZM41.4477,68.3609l7.2509-7.3072-7.2509-7.3064Zm-3.6886,1.4037-7.1623-7.2169-7.1642,7.2169ZM37.88,52.219H23.3117l7.2851,7.34ZM21.8808,68.3431l7.233-7.2894-4.0183-4.0492-3.2147-3.2379Zm-3.7034,1.4215-7.1641-7.2169L3.851,69.7646Zm.1208-17.5456H3.73l7.2831,7.34ZM2.31,68.3281l5.607-5.65L9.53,61.0533,2.31,53.7805Zm0-50.093,7.22-7.2728L2.31,3.69Zm1.42,1.5618h14.568l-7.2849-7.34ZM3.851,2.2514l7.1623,7.2165,7.1641-7.2165ZM19.7832,3.6189l-7.287,7.3434,7.287,7.3426Zm0,18.291H2.31V50.1061H19.7832Zm0,31.8012-7.287,7.3426,7.287,7.3434Zm2.0976-35.4617,3.215-3.2383,4.018-4.0488L27.9164,9.7556,21.8808,3.674Zm1.4309,1.5475H37.88l-7.2831-7.34Zm.1209-17.5455,7.1642,7.2165,7.1623-7.2165ZM39.3537,3.6339,33.7,9.33l-1.62,1.6321L39.3537,18.29Zm0,18.276H21.8808V50.1061H39.3537Zm0,31.8162L32.08,61.0537l7.2736,7.3284Zm2.094-35.4574,7.2509-7.3064L41.4477,3.6551Zm1.45,1.5282h14.567l-7.2829-7.34Zm.1209-17.5455,7.1632,7.2165,7.162-7.2165ZM58.9193,3.6528l-7.254,7.31,7.254,7.3083Zm0,18.2571H41.4477V50.1061H58.9193Zm0,31.8355-7.254,7.3083,7.254,7.3091ZM61.0165,18.281l3.4522-3.4762,3.8141-3.8425L66.8306,9.4991,61.0165,3.6416Zm1.4657,1.5159H77.05l-7.2846-7.34h0ZM62.603,2.2514l7.1627,7.2169L76.93,2.2514ZM78.4894,3.6648l-7.2412,7.2975,7.2412,7.2963Zm0,18.2451H61.0165V50.1061H78.4894Zm0,31.8471-7.2412,7.2967,7.2412,7.2975Zm2.0972-35.46,1.0056-1.0127,6.2753-6.3222L80.5866,3.6258Zm1.4816,1.5H96.6349l-7.2839-7.34ZM82.189,2.2514l7.162,7.2165,7.163-7.2165ZM98.0579,3.6821l-7.2236,7.28,7.2236,7.2786Zm0,18.2278H80.5866V50.1061H98.0579ZM90.8343,61.0537l7.2236,7.28V53.7751Z" transform="translate(0 -0.1377)"/></svg>