<svg id="security" width="72" height="74" xmlns="http://www.w3.org/2000/svg" viewBox="0 0 71.0203 72.5828"><defs><style>.cls-1{fill:#29295f;}</style></defs><title>security</title><path class="cls-1" d="M66.588,6.2266a17.5076,17.5076,0,0,0-25.1157,0L26.6731,21.3513a17.557,17.557,0,0,0-2.5488,3.4447,17.2241,17.2241,0,0,0-3.371,2.605L5.9539,42.5264a18.4546,18.4546,0,0,0,0,25.6674,17.5112,17.5112,0,0,0,25.1157,0L45.8688,53.0692a17.5138,17.5138,0,0,0,2.549-3.4451,17.252,17.252,0,0,0,3.3708-2.605L66.588,31.8944A18.4549,18.4549,0,0,0,66.588,6.2266Zm-32.4,16.0024s-.1181.0011-.19-.0027a17.403,17.403,0,0,0-4.3133.3287L43.5636,8.3711a14.59,14.59,0,0,1,20.9249,0,15.3743,15.3743,0,0,1,0,21.3854L49.6926,44.8781A14.6049,14.6049,0,0,1,46.6079,47.22a14.6888,14.6888,0,0,1-17.84-2.3421,1.4563,1.4563,0,0,0-2.0923,0,1.5354,1.5354,0,0,0,0,2.1383,17.1882,17.1882,0,0,0,8.0178,4.6384L24.794,61.7716a8.9549,8.9549,0,0,1-12.5563,0,9.226,9.226,0,0,1,0-12.8326L27.0336,33.8175a8.7989,8.7989,0,0,1,3.0835-2.0319A8.6987,8.6987,0,0,1,39.59,33.8175a1.4568,1.4568,0,0,0,2.0921,0,1.535,1.535,0,0,0,0-2.138,11.7216,11.7216,0,0,0-16.7407,0L10.1455,46.8007a12.3021,12.3021,0,0,0,0,17.1092,11.6606,11.6606,0,0,0,16.7407,0L38.332,52.2122c.3108.0162.6217.0435.9313.0435a17.2664,17.2664,0,0,0,3.6211-.4195L28.9785,66.0482a14.5905,14.5905,0,0,1-20.9252,0,15.3752,15.3752,0,0,1,0-21.3858L22.8492,29.5412a14.5917,14.5917,0,0,1,3.0849-2.3424,14.6877,14.6877,0,0,1,17.84,2.3424,1.4572,1.4572,0,0,0,2.0924,0,1.5357,1.5357,0,0,0,0-2.1387,17.1849,17.1849,0,0,0-8.0178-4.638l9.899-10.1172a8.9551,8.9551,0,0,1,12.5564,0,9.2267,9.2267,0,0,1,0,12.833L45.5083,40.6015a8.8061,8.8061,0,0,1-3.0834,2.0322,8.6836,8.6836,0,0,1-9.473-2.0322,1.4568,1.4568,0,0,0-2.0921,0,1.5352,1.5352,0,0,0,0,2.1383,11.7223,11.7223,0,0,0,16.7406,0L62.3963,27.6182a12.3012,12.3012,0,0,0,0-17.1088,11.9358,11.9358,0,0,0-16.7406,0L34.4188,21.9933" transform="translate(-0.7608 -0.918)"/><path class="cls-1" d="M11.118,22.0883h8.8775a1.5126,1.5126,0,0,0,0-3.0245H11.118a1.5126,1.5126,0,0,0,0,3.0245Z" transform="translate(-0.7608 -0.918)"/><path class="cls-1" d="M22.9547,19.0638a1.4951,1.4951,0,0,0,1.48-1.512V8.4788a1.48,1.48,0,1,0-2.9591,0v9.073A1.4951,1.4951,0,0,0,22.9547,19.0638Z" transform="translate(-0.7608 -0.918)"/><path class="cls-1" d="M52.5464,55.3551a1.4955,1.4955,0,0,0-1.48,1.5124V65.94a1.48,1.48,0,1,0,2.9593,0V56.8675A1.4955,1.4955,0,0,0,52.5464,55.3551Z" transform="translate(-0.7608 -0.918)"/><path class="cls-1" d="M64.3831,52.331H55.5056a1.5124,1.5124,0,0,0,0,3.0241h8.8775a1.5124,1.5124,0,0,0,0-3.0241Z" transform="translate(-0.7608 -0.918)"/></svg>