<svg id="serving" width="89" height="89" xmlns="http://www.w3.org/2000/svg" viewBox="0 0 89.0023 89.0016"><defs><style>.cls-1{fill:#29295f;fill-rule:evenodd;}</style></defs><title>serving_icon</title><path class="cls-1" d="M64.9714,70.6121l-1.1866,1.5635-1.1866-1.57C61.6207,69.3142,38.57,38.6663,38.57,25.2152a25.2153,25.2153,0,1,1,50.4305,0C89,38.6663,65.9488,69.3142,64.9714,70.6121ZM63.7848,2.965a22.2748,22.2748,0,0,0-22.2488,22.25c0,10.82,17.486,35.49,22.2488,42.0046,4.7627-6.515,22.2486-31.1849,22.2486-42.0046A22.2745,22.2745,0,0,0,63.7848,2.965Zm0,32.6338A10.3835,10.3835,0,1,1,74.1675,25.2152,10.3831,10.3831,0,0,1,63.7848,35.5988Zm0-17.8a7.4168,7.4168,0,1,0,7.4162,7.4168A7.4167,7.4167,0,0,0,63.7848,17.7984ZM45.4918,87.5166A1.4833,1.4833,0,0,1,44.0086,89H38.4064a1.4833,1.4833,0,1,1,0-2.9666h5.6022A1.4833,1.4833,0,0,1,45.4918,87.5166ZM32.8012,89H27.199a1.4833,1.4833,0,1,1,0-2.9666h5.6022a1.4833,1.4833,0,0,1,0,2.9666Zm-11.206,0H15.9916a1.4833,1.4833,0,1,1,0-2.9666h5.6036a1.4833,1.4833,0,1,1,0,2.9666ZM8.9045,14.6834v1.6318a1.4832,1.4832,0,0,1-2.9664,0V14.6834a7.4226,7.4226,0,1,1,2.9664,0ZM7.4213,2.965a4.45,4.45,0,1,0,4.45,4.45A4.45,4.45,0,0,0,7.4213,2.965Zm0,18.07a1.4834,1.4834,0,0,1,1.4832,1.4834V28.722a1.4832,1.4832,0,1,1-2.9664,0V22.5185A1.4835,1.4835,0,0,1,7.4213,21.0351Zm0,12.407a1.4833,1.4833,0,0,1,1.4832,1.4832v6.2035a1.4832,1.4832,0,1,1-2.9664,0V34.9253A1.4833,1.4833,0,0,1,7.4213,33.4421Zm0,12.4053a1.4833,1.4833,0,0,1,1.4832,1.4835v6.2032a1.4832,1.4832,0,1,1-2.9664,0V47.3309A1.4834,1.4834,0,0,1,7.4213,45.8474Zm0,12.4053a1.4833,1.4833,0,0,1,1.4832,1.4835v6.2047a1.4832,1.4832,0,1,1-2.9664,0V59.7362A1.4834,1.4834,0,0,1,7.4213,58.2527Zm0,12.4083a1.4833,1.4833,0,0,1,1.4832,1.4834v6.2021a1.4832,1.4832,0,0,1-2.9664,0V72.1444A1.4834,1.4834,0,0,1,7.4213,70.661Zm0,12.4053A1.4833,1.4833,0,0,1,8.9045,84.55v1.4834h1.4833a1.4833,1.4833,0,1,1,0,2.9666H7.4213a1.4833,1.4833,0,0,1-1.4832-1.4832V84.55A1.4834,1.4834,0,0,1,7.4213,83.0663Zm42.191,2.9669H55.216a1.4833,1.4833,0,1,1,0,2.9666H49.6123a1.4833,1.4833,0,0,1,0-2.9666ZM63.7848,80.1a1.4835,1.4835,0,0,1-1.4833-1.4834V75.65a1.4833,1.4833,0,0,1,2.9665,0v2.9669A1.4834,1.4834,0,0,1,63.7848,80.1Zm-2.9665,5.9334h1.4832V84.55a1.4833,1.4833,0,1,1,2.9665,0v2.9668A1.4834,1.4834,0,0,1,63.7848,89H60.8183a1.4833,1.4833,0,1,1,0-2.9666Z" transform="translate(0.0023 0.0018)"/></svg>