<svg id="services" width="90" height="90" xmlns="http://www.w3.org/2000/svg" viewBox="0 0 90 90.0002"><defs><style>.cls-1{fill:#29295f;fill-rule:evenodd;}</style></defs><title>services_icon</title><path class="cls-1" d="M87.46,87.0967H90V90H0V87.0967H7.258V65.3225H1.4516A1.4518,1.4518,0,0,1,0,63.8709v-8.71A1.4516,1.4516,0,0,1,1.4516,53.71H7.258V42.0968H1.4516A1.4519,1.4519,0,0,1,0,40.6451v-8.71a1.4516,1.4516,0,0,1,1.4517-1.4516H7.258V20.3223A1.4518,1.4518,0,0,1,8.71,18.8707H20.3225a1.4517,1.4517,0,0,1,1.4517,1.4516V30.4839h5.8064V20.3223a1.4517,1.4517,0,0,1,1.4516-1.4516h11.613a1.4516,1.4516,0,0,1,1.4515,1.4516V30.4839h5.8064V20.3223a1.4518,1.4518,0,0,1,1.4517-1.4516H60.9677a1.4517,1.4517,0,0,1,1.4516,1.4516V30.4839h5.8065V20.3223a1.4517,1.4517,0,0,1,1.4516-1.4516H81.29a1.4517,1.4517,0,0,1,1.4516,1.4516V30.4839h5.8065A1.4514,1.4514,0,0,1,90,31.9355v8.71a1.4517,1.4517,0,0,1-1.4515,1.4517H82.7419V53.71h5.8065A1.4514,1.4514,0,0,1,90,55.1613v8.71a1.4516,1.4516,0,0,1-1.4515,1.4516H82.7419V80.5788A15.9679,15.9679,0,0,1,87.46,87.0967ZM7.258,33.3871H2.9031v5.8064H7.258Zm0,23.2258H2.9031v5.8064H7.258Zm11.6129-5.8065H13.0645V47.9032h5.8064V21.7739h-8.71V27.58h5.8065v2.9035H10.1612v36.29h5.8065v2.9032H10.1612V87.0967h8.71Zm8.71-17.4193H21.7742v5.8064h5.8064Zm0,8.71H21.7742V53.71h5.8064Zm0,14.5161H21.7742v5.8064h5.8064Zm0,8.71H21.7742V87.0967h5.8064ZM39.1935,50.8064H33.3871V47.9032h5.8064V21.7739h-8.71V27.58H36.29v2.9035H30.4838v36.29H36.29v2.9032H30.4838V87.0967h4.7323a11.4393,11.4393,0,0,1,3.9774-6.1695Zm8.71-17.4193H42.0967v5.8064h5.8064Zm0,8.71H42.0967V53.71h5.8064Zm0,14.5161H42.0967v5.8064h5.8064Zm0,8.71H42.0967V79.2a11.48,11.48,0,0,1,3.5275-.813,16.85,16.85,0,0,1,2.2789-1.7709Zm11.613-14.5161H53.71V47.9032h5.8064V21.7739h-8.71V27.58h5.8065v2.9035H50.8064v36.29h5.8065v2.9032H50.8064v5.4434a16.1,16.1,0,0,1,8.71-.8273Zm8.71-17.4193H62.4193v5.8064h5.8065Zm0,8.71H62.4193V53.71h5.8065Zm0,14.5161H62.4193v5.8064h5.8065Zm0,8.71H62.4193v9.8129A15.5722,15.5722,0,0,1,67.05,77.9225c.3919-.1451.7838-.2613,1.1758-.3774ZM79.8386,50.8064H74.0322V47.9032h5.8064V21.7739h-8.71V27.58h5.8064v2.9035H71.129v36.29h5.8064v2.9032H71.129v7.258h1.4516a16.11,16.11,0,0,1,7.258,1.7273Zm7.2581-11.6129V33.3871H82.7419v5.8064Zm0,23.2258V56.6129H82.7419v5.8064ZM67.3258,80.9272a1.4514,1.4514,0,0,1-1.5968-.29,13.0645,13.0645,0,0,0-18.45.2179,1.4534,1.4534,0,0,1-1.0016.4355A8.709,8.709,0,0,0,38.25,87.0967H84.2951A13.0645,13.0645,0,0,0,67.3258,80.9272ZM81.29,15.9675a4.3549,4.3549,0,1,1,4.3549-4.3549A4.3548,4.3548,0,0,1,81.29,15.9675Zm0-5.8065a1.4516,1.4516,0,1,0,1.4516,1.4516A1.4518,1.4518,0,0,0,81.29,10.161ZM55.1612,8.7094a4.3549,4.3549,0,1,1,4.3549-4.3548A4.3547,4.3547,0,0,1,55.1612,8.7094Zm0-5.8064a1.4516,1.4516,0,1,0,1.4517,1.4516A1.4516,1.4516,0,0,0,55.1612,2.903ZM34.8386,15.9675a4.3549,4.3549,0,1,1,4.3549-4.3549A4.3547,4.3547,0,0,1,34.8386,15.9675Zm0-5.8065A1.4516,1.4516,0,1,0,36.29,11.6126,1.4518,1.4518,0,0,0,34.8386,10.161ZM10.1612,13.0642a4.3548,4.3548,0,1,1,4.3549-4.3548A4.3547,4.3547,0,0,1,10.1612,13.0642Zm0-5.8064a1.4516,1.4516,0,1,0,1.4517,1.4516A1.4516,1.4516,0,0,0,10.1612,7.2578Z" transform="translate(0.0001 0.0003)"/></svg>