<svg id="service" width="110" height="85" xmlns="http://www.w3.org/2000/svg" viewBox="0 0 109.0054 85.0031"><defs><style>.cls-1{fill:#29295f;fill-rule:evenodd;}</style></defs><title>service</title><path class="cls-1" d="M108.561,25.5607a1.4987,1.4987,0,0,0-2.1179,0l-9.3288,9.3108a1.4943,1.4943,0,0,0-.4306.9016,31.2668,31.2668,0,0,1-8.9858,18.8174L85.481,56.803,69.3731,40.7266a13.0244,13.0244,0,0,0,2.9846.3613,10.6532,10.6532,0,0,0,4.0569-.78A1.4953,1.4953,0,1,0,75.2805,37.54c-6.1679,2.5186-13.2785-4.1842-14.1741-5.0641l-4.28-4.272a8.2768,8.2768,0,0,0-1.2937-6.6235,8.1011,8.1011,0,0,0-6.7484-3.4874l-10.3666.074H38.39a3.73,3.73,0,0,1-3.7332-3.728v-.1557a3.72,3.72,0,0,1,3.5869-3.7228l18.8787-.7423a30.5388,30.5388,0,0,1,19.1121,5.8149,1.5,1.5,0,0,0,1.9427-.15l9.9152-9.8957a1.4963,1.4963,0,1,0-2.1178-2.1143l-9.0263,9.009A33.5646,33.5646,0,0,0,57.0048,6.831l-18.8787.7423c-.0445.002-.0881.006-.1321.0088L30.8311.4331a1.4963,1.4963,0,0,0-2.118,2.1143l6.0719,6.06a6.6931,6.6931,0,0,0-3.1232,5.6757v.1557a6.7232,6.7232,0,0,0,6.7774,6.7181l10.3558-.074a5.0742,5.0742,0,0,1,4.2781,2.2048,5.419,5.419,0,0,1,.8727,2.0418l-.5134-.5122a1.4962,1.4962,0,0,0-2.1179,2.1139L85.1086,60.6593a3.739,3.739,0,0,1-5.2909,5.2846L58.2922,44.4606a1.4961,1.4961,0,0,0-2.1177,2.1139L79.36,69.7146a3.739,3.739,0,0,1-5.293,5.2826L52.0879,53.0613a1.4962,1.4962,0,0,0-2.118,2.1138L67.9794,73.15a3.7391,3.7391,0,0,1-5.2945,5.2814L43.1254,58.91a1.4962,1.4962,0,0,0-2.118,2.1138l14.5086,14.48,0,0a3.739,3.739,0,1,1-5.293,5.2826L23.9746,54.5905a31.2662,31.2662,0,0,1-8.9858-18.8174,1.4917,1.4917,0,0,0-.4307-.9016L2.5512,22.8876A1.4962,1.4962,0,1,0,.4331,25.0015L12.07,36.6152A34.2665,34.2665,0,0,0,21.8566,56.704l2.2088,2.2044a6.7224,6.7224,0,0,0,5.4707,10.6477c.17,0,.3395-.0081.5088-.021a6.7984,6.7984,0,0,0-.089,1.09,6.7257,6.7257,0,0,0,6.7382,6.7217,6.8245,6.8245,0,0,0,1.0041-.0748,6.7359,6.7359,0,0,0,10.9938,6.15A6.7341,6.7341,0,0,0,59.4759,79.457l1.0907,1.0883A6.7365,6.7365,0,0,0,71.9378,77.101l.01.01a6.7336,6.7336,0,0,0,11.0732-7.1132,6.718,6.718,0,0,0,4.5617-11.0653l2.2326-2.2289A34.2688,34.2688,0,0,0,99.603,36.6152l8.9584-8.941A1.4922,1.4922,0,0,0,108.561,25.5607ZM26.89,65.476a3.7356,3.7356,0,0,1-.656-4.4031L31.3012,66.13A3.7547,3.7547,0,0,1,26.89,65.476Zm7.1579,7.79a3.7226,3.7226,0,0,1-.4053-4.7986l5.213,5.2025A3.7514,3.7514,0,0,1,34.0477,73.266Zm7.6636,7.6491a3.7331,3.7331,0,0,1-.4045-4.7982L46.52,81.3194a3.7419,3.7419,0,0,1-4.8084-.4043Z" transform="translate(0.0056 0.0048)"/></svg>