<svg width="87" height="84" id="solutions" xmlns="http://www.w3.org/2000/svg" viewBox="0 0 87.584 82.7"><defs><style>.cls-1{fill:#29295f;}</style></defs><title>solutions</title><path class="cls-1" d="M85.7587.649V2.32" transform="translate(0.6261 -0.6281)"/><path class="cls-1" d="M84.924,83.3281m1.6691-1.6709.27-80.0145a.8329.8329,0,1,0-1.6658-.0048l-.2729,81.69" transform="translate(0.6261 -0.6281)"/><path class="cls-1" d="M85.7587,14.35v1.6688" transform="translate(0.6261 -0.6281)"/><path class="cls-1" d="M85.1934,3.5751l.0035,11.5868a.8352.8352,0,0,0,.8347.8352h0a.8324.8324,0,0,0,.8311-.8352L86.86,5.2456" transform="translate(0.6261 -0.6281)"/><path class="cls-1" d="M85.7587,78.71v1.6705" transform="translate(0.6261 -0.6281)"/><path class="cls-1" d="M85.7587,63.3113v1.6705" transform="translate(0.6261 -0.6281)"/><path class="cls-1" d="M85.7587,66.262v1.6685" transform="translate(0.6261 -0.6281)"/><path class="cls-1" d="M84.9273.6281V2.2986" transform="translate(0.6261 -0.6281)"/><path class="cls-1" d="M85.7587,3.5751v1.67" transform="translate(0.6261 -0.6281)"/><path class="cls-1" d="M85.8933,14.4123v1.6709" transform="translate(0.6261 -0.6281)"/><path class="cls-1" d="M85.8933,17.3663v1.6672" transform="translate(0.6261 -0.6281)"/><path class="cls-1" d="M85.2921,9.798m1.6658,0" transform="translate(0.6261 -0.6281)"/><path class="cls-1" d="M1.3879,2.32H85.6241V.649H1.3879Z" transform="translate(0.6261 -0.6281)"/><path class="cls-1" d="M.55,83.3281H86.4585V1.64a.8329.8329,0,1,0-1.6658,0V81.6572H2.2223L2.4888,1.6427a.8319.8319,0,0,0-.828-.8372H1.6574a.8321.8321,0,0,0-.831.8324L.55,83.3281" transform="translate(0.6261 -0.6281)"/><path class="cls-1" d="M1.3879,16.0184H85.6241V14.35H1.3879Z" transform="translate(0.6261 -0.6281)"/><path class="cls-1" d="M1.6574,15.9971h0a.8327.8327,0,0,0,.8314-.8352V5.2456H84.7927v9.9163a.8329.8329,0,1,0,1.6658,0V3.5751H.823L.8261,15.1619A.8326.8326,0,0,0,1.6574,15.9971Z" transform="translate(0.6261 -0.6281)"/><path class="cls-1" d="M1.3879,80.3806H85.6241V78.71H1.3879Z" transform="translate(0.6261 -0.6281)"/><path class="cls-1" d="M1.3879,64.9818H85.6241V63.3113H1.3879Z" transform="translate(0.6261 -0.6281)"/><path class="cls-1" d="M1.3879,67.9305H85.6241V66.262H1.3879Z" transform="translate(0.6261 -0.6281)"/><path class="cls-1" d="M1.3879,2.2986H85.6241V.6281H1.3879Z" transform="translate(0.6261 -0.6281)"/><path class="cls-1" d="M1.3879,5.2456H85.6241v-1.67H1.3879Z" transform="translate(0.6261 -0.6281)"/><path class="cls-1" d="M1.5229,16.0832H85.7587V14.4123H1.5229Z" transform="translate(0.6261 -0.6281)"/><path class="cls-1" d="M1.5229,19.0335H85.7587V17.3663H1.5229Z" transform="translate(0.6261 -0.6281)"/><path class="cls-1" d="M37.3041,73.32a6.2034,6.2034,0,1,1,6.2036,6.2224A6.2166,6.2166,0,0,1,37.3041,73.32Zm1.6661,0a4.5375,4.5375,0,1,0,4.5375-4.5508A4.55,4.55,0,0,0,38.97,73.32Z" transform="translate(0.6261 -0.6281)"/><path class="cls-1" d="M25.1765,73.32A6.2034,6.2034,0,1,1,31.38,79.5421,6.2166,6.2166,0,0,1,25.1765,73.32Zm1.6661,0A4.5375,4.5375,0,1,0,31.38,68.7689,4.55,4.55,0,0,0,26.8426,73.32Z" transform="translate(0.6261 -0.6281)"/><path class="cls-1" d="M13.0492,73.32a6.2035,6.2035,0,1,1,6.2033,6.2224A6.2163,6.2163,0,0,1,13.0492,73.32Zm1.6658,0a4.5375,4.5375,0,1,0,4.5375-4.5508A4.55,4.55,0,0,0,14.715,73.32Z" transform="translate(0.6261 -0.6281)"/><path class="cls-1" d="M.9216,73.32a6.205,6.205,0,1,1,6.2033,6.2224A6.2184,6.2184,0,0,1,.9216,73.32Zm1.6658,0a4.5392,4.5392,0,1,0,4.5375-4.5508A4.55,4.55,0,0,0,2.5874,73.32Z" transform="translate(0.6261 -0.6281)"/><path class="cls-1" d="M37.3041,73.32a6.2034,6.2034,0,1,1,6.2036,6.2224A6.2166,6.2166,0,0,1,37.3041,73.32Zm1.6661,0a4.5375,4.5375,0,1,0,4.5375-4.5508A4.55,4.55,0,0,0,38.97,73.32Z" transform="translate(0.6261 -0.6281)"/><path class="cls-1" d="M49.4287,73.32a6.2035,6.2035,0,1,1,6.2066,6.2224A6.2192,6.2192,0,0,1,49.4287,73.32Zm1.6658,0a4.5375,4.5375,0,1,0,4.5408-4.5508A4.5506,4.5506,0,0,0,51.0945,73.32Z" transform="translate(0.6261 -0.6281)"/><path class="cls-1" d="M61.556,73.32A6.2034,6.2034,0,1,1,67.76,79.5421,6.2187,6.2187,0,0,1,61.556,73.32Zm1.6661,0A4.5375,4.5375,0,1,0,67.76,68.7689,4.55,4.55,0,0,0,63.2221,73.32Z" transform="translate(0.6261 -0.6281)"/><path class="cls-1" d="M73.6836,73.32a6.2035,6.2035,0,1,1,6.2036,6.2224A6.2166,6.2166,0,0,1,73.6836,73.32Zm1.6662,0a4.5375,4.5375,0,1,0,4.5374-4.5508A4.55,4.55,0,0,0,75.35,73.32Z" transform="translate(0.6261 -0.6281)"/><path class="cls-1" d="M37.3041,9.798a6.2034,6.2034,0,1,1,6.2036,6.22A6.218,6.218,0,0,1,37.3041,9.798Zm1.6661,0a4.5375,4.5375,0,1,0,4.5375-4.5524A4.549,4.549,0,0,0,38.97,9.798Z" transform="translate(0.6261 -0.6281)"/><path class="cls-1" d="M25.1765,9.798a6.2034,6.2034,0,1,1,6.2036,6.22A6.2179,6.2179,0,0,1,25.1765,9.798Zm1.6661,0A4.5375,4.5375,0,1,0,31.38,5.2456,4.5492,4.5492,0,0,0,26.8426,9.798Z" transform="translate(0.6261 -0.6281)"/><path class="cls-1" d="M13.0492,9.798a6.2035,6.2035,0,1,1,6.2033,6.22A6.2177,6.2177,0,0,1,13.0492,9.798Zm1.6658,0a4.5375,4.5375,0,1,0,4.5375-4.5524A4.5492,4.5492,0,0,0,14.715,9.798Z" transform="translate(0.6261 -0.6281)"/><path class="cls-1" d="M.9216,9.798a6.205,6.205,0,1,1,6.2033,6.22A6.22,6.22,0,0,1,.9216,9.798Zm1.6658,0A4.5392,4.5392,0,1,0,7.1249,5.2456,4.5492,4.5492,0,0,0,2.5874,9.798Z" transform="translate(0.6261 -0.6281)"/><path class="cls-1" d="M37.3041,9.798a6.2034,6.2034,0,1,1,6.2036,6.22A6.218,6.218,0,0,1,37.3041,9.798Zm1.6661,0a4.5375,4.5375,0,1,0,4.5375-4.5524A4.549,4.549,0,0,0,38.97,9.798Z" transform="translate(0.6261 -0.6281)"/><path class="cls-1" d="M49.4287,9.798a6.2035,6.2035,0,1,1,6.2066,6.22A6.2206,6.2206,0,0,1,49.4287,9.798Zm1.6658,0a4.5375,4.5375,0,1,0,4.5408-4.5524A4.55,4.55,0,0,0,51.0945,9.798Z" transform="translate(0.6261 -0.6281)"/><path class="cls-1" d="M61.556,9.798a6.2034,6.2034,0,1,1,6.2036,6.22A6.22,6.22,0,0,1,61.556,9.798Zm1.6661,0A4.5375,4.5375,0,1,0,67.76,5.2456,4.5492,4.5492,0,0,0,63.2221,9.798Z" transform="translate(0.6261 -0.6281)"/><path class="cls-1" d="M73.6836,9.798a6.2035,6.2035,0,1,1,6.2036,6.22A6.2179,6.2179,0,0,1,73.6836,9.798Zm1.6662,0a4.5375,4.5375,0,1,0,4.5374-4.5524A4.549,4.549,0,0,0,75.35,9.798Z" transform="translate(0.6261 -0.6281)"/><path class="cls-1" d="M76.2628,55.08a.8349.8349,0,0,0,.8349-.8356V15.2428a.8329.8329,0,1,0-1.6658,0v39.002a.8359.8359,0,0,0,.8309.8356" transform="translate(0.6261 -0.6281)"/><path class="cls-1" d="M66.9053,65.0393a.833.833,0,0,0,.8314-.8352V15.2428a.8331.8331,0,1,0-1.6661,0V64.2041A.8358.8358,0,0,0,66.9053,65.0393Z" transform="translate(0.6261 -0.6281)"/><path class="cls-1" d="M57.5474,55.08a.8363.8363,0,0,0,.8314-.8356V15.2428a.8329.8329,0,1,0-1.6658,0v39.002a.8367.8367,0,0,0,.8344.8356" transform="translate(0.6261 -0.6281)"/><path class="cls-1" d="M48.1831,65.0393a.8337.8337,0,0,0,.8348-.8352V15.2428a.8329.8329,0,1,0-1.6658,0V64.2041A.8348.8348,0,0,0,48.1831,65.0393Z" transform="translate(0.6261 -0.6281)"/><path class="cls-1" d="M38.8256,55.08a.8338.8338,0,0,0,.831-.8356V15.2428a.8328.8328,0,1,0-1.6655,0v39.002a.8365.8365,0,0,0,.8345.8356" transform="translate(0.6261 -0.6281)"/><path class="cls-1" d="M29.4676,65.0393a.8349.8349,0,0,0,.8314-.8352V15.2428a.8329.8329,0,1,0-1.6658,0V64.2041A.8356.8356,0,0,0,29.4676,65.0393Z" transform="translate(0.6261 -0.6281)"/><path class="cls-1" d="M20.1068,55.08a.834.834,0,0,0,.8313-.8356V15.2428a.8331.8331,0,1,0-1.6661,0v39.002a.837.837,0,0,0,.8348.8356" transform="translate(0.6261 -0.6281)"/><path class="cls-1" d="M10.7492,65.0393a.8327.8327,0,0,0,.831-.8352V15.2428a.8329.8329,0,1,0-1.6658,0V64.2041A.8357.8357,0,0,0,10.7492,65.0393Z" transform="translate(0.6261 -0.6281)"/><path class="cls-1" d="M17.7542,54.2448a2.3509,2.3509,0,1,0,2.3526-2.3557,2.3563,2.3563,0,0,0-2.3526,2.3557" transform="translate(0.6261 -0.6281)"/><path class="cls-1" d="M36.4764,54.2448a2.3492,2.3492,0,1,0,2.3492-2.3557,2.3537,2.3537,0,0,0-2.3492,2.3557" transform="translate(0.6261 -0.6281)"/><path class="cls-1" d="M55.1949,54.2448a2.351,2.351,0,1,0,2.35-2.3557,2.3537,2.3537,0,0,0-2.35,2.3557" transform="translate(0.6261 -0.6281)"/><path class="cls-1" d="M73.9138,54.2448a2.351,2.351,0,1,0,2.349-2.3557,2.3536,2.3536,0,0,0-2.349,2.3557" transform="translate(0.6261 -0.6281)"/><path class="cls-1" d="M2.2223,83.3281H-.6261m2.8484,0" transform="translate(0.6261 -0.6281)"/><path class="cls-1" d="M19.272,52.0343a2.3579,2.3579,0,0,0,.8149,4.5685h.01a2.3578,2.3578,0,0,1-.825-4.5608v-.0077" transform="translate(0.6261 -0.6281)"/><path class="cls-1" d="M20.0869,51.8891a2.3411,2.3411,0,0,0-.8149.1452v.0077a2.3348,2.3348,0,0,1,.8155-.1525l-.0006,0" transform="translate(0.6261 -0.6281)"/><path class="cls-1" d="M20.0875,51.89a2.3567,2.3567,0,1,0,2.3489,2.3553l-.033-.1743a1.9928,1.9928,0,1,1-2.1456-2.1484l-.17-.0326" transform="translate(0.6261 -0.6281)"/><path class="cls-1" d="M20.3709,52.3208a.4823.4823,0,0,0-.4085.171c-.2006.2768.036.7926.5289,1.1519a1.5151,1.5151,0,0,0,.8425.3162.482.482,0,0,0,.41-.173c.2035-.2764-.033-.7926-.5259-1.1482a1.5164,1.5164,0,0,0-.8465-.3179" transform="translate(0.6261 -0.6281)"/><path class="cls-1" d="M37.9911,52.042a2.3577,2.3577,0,0,0,.8194,4.5608,2.3585,2.3585,0,0,1-.8194-4.5608h0" transform="translate(0.6261 -0.6281)"/><path class="cls-1" d="M38.8256,51.8891a2.3441,2.3441,0,0,0-.8345.1529h0a2.3416,2.3416,0,0,1,.8345-.1529h0" transform="translate(0.6261 -0.6281)"/><path class="cls-1" d="M38.8256,51.8891a2.3569,2.3569,0,0,0-.0151,4.7137h.0151a2.3534,2.3534,0,0,0,2.3491-2.358h0l-.0326-.1743a1.9928,1.9928,0,1,1-2.1459-2.1484l-.1706-.033h0" transform="translate(0.6261 -0.6281)"/><path class="cls-1" d="M39.1105,52.3208a.48.48,0,0,0-.4067.171c-.2.2768.033.7926.5259,1.1519a1.5186,1.5186,0,0,0,.8448.3162.4818.4818,0,0,0,.41-.173c.2-.2764-.036-.7926-.5289-1.1482a1.5211,1.5211,0,0,0-.8452-.3179" transform="translate(0.6261 -0.6281)"/><path class="cls-1" d="M59.8949,54.1478c.0013.0322.002.0644.002.097a2.3547,2.3547,0,0,1-2.3428,2.358h.01a2.3537,2.3537,0,0,0,2.35-2.358l-.0185-.097" transform="translate(0.6261 -0.6281)"/><path class="cls-1" d="M57.5639,51.8891h-.01l.01,0,0,0" transform="translate(0.6261 -0.6281)"/><path class="cls-1" d="M57.5541,51.8891a2.3569,2.3569,0,1,0,2.3428,2.3557c0-.0326-.0007-.0648-.002-.097l-.0145-.0773a1.9928,1.9928,0,1,1-2.1456-2.1484l-.17-.0326-.01,0" transform="translate(0.6261 -0.6281)"/><path class="cls-1" d="M57.85,52.3208a.4812.4812,0,0,0-.4075.171c-.2.2768.033.7926.5256,1.1519a1.5191,1.5191,0,0,0,.8448.3162.4831.4831,0,0,0,.41-.173c.2006-.2764-.0363-.7926-.5289-1.1482a1.5129,1.5129,0,0,0-.8445-.3179" transform="translate(0.6261 -0.6281)"/><path class="cls-1" d="M78.6187,54.0705c-.0017.0194-.0036.0387-.006.0584.0017.0382.003.0772.003.1159a2.3549,2.3549,0,0,1-2.3329,2.358h.02a2.3536,2.3536,0,0,0,2.3491-2.358l-.033-.1743" transform="translate(0.6261 -0.6281)"/><path class="cls-1" d="M76.3026,51.8891l-.02,0h.0218l-.002,0" transform="translate(0.6261 -0.6281)"/><path class="cls-1" d="M76.2828,51.89a2.3568,2.3568,0,1,0,2.3329,2.3553c0-.0387-.0013-.0777-.003-.1159A1.9877,1.9877,0,0,1,76.6474,55.91a1.9975,1.9975,0,0,1-.1739-3.9883l-.1689-.0326h-.0218" transform="translate(0.6261 -0.6281)"/><path class="cls-1" d="M76.5885,52.3208a.481.481,0,0,0-.4074.171c-.2005.2768.036.7926.5255,1.1519a1.52,1.52,0,0,0,.8445.3162.4826.4826,0,0,0,.4106-.173c.2005-.2764-.036-.7926-.5259-1.1482a1.5243,1.5243,0,0,0-.8473-.3179" transform="translate(0.6261 -0.6281)"/></svg>