<svg id="stars" width="152" height="25" xmlns="http://www.w3.org/2000/svg" viewBox="0 0 151.9967 24.9988"><defs><style>.cls-1{fill:#fdc506;fill-rule:evenodd;}</style></defs><title>stars</title><path class="cls-1" d="M144.0378,15.5834l2.98,9.4157-8.059-5.522-8.0593,5.522,2.98-9.4157-7.96-6.0342,9.7645-.1517L138.9586,0l3.2751,9.3972,9.7646.1517Zm-28.4995,9.4157-8.0591-5.522L99.42,24.9991l2.98-9.4157L94.44,9.5492l9.7644-.1517L107.4792,0l3.2752,9.3972,9.7645.1517-7.96,6.0342Zm-31.4793,0L76,19.4771l-8.0591,5.522,2.98-9.4157L62.96,9.5492l9.7645-.1517L76,0l3.2753,9.3972,9.7645.1517-7.96,6.0342Zm-31.4792,0-8.0591-5.522-8.0592,5.522,2.98-9.4157-7.96-6.0342,9.7644-.1517L44.5207,0l3.2751,9.3972,9.7646.1517L49.6,15.5834Zm-31.4794,0-8.0591-5.522-8.0591,5.522,2.98-9.4157L.0016,9.5492,9.766,9.3975,13.0413,0l3.2753,9.3972,9.7645.1517-7.96,6.0342Z" transform="translate(-0.0016 -0.0003)"/></svg>