<svg width="118" height="75" id="versatility" xmlns="http://www.w3.org/2000/svg" viewBox="0 0 116.8043 74.5681"><defs><style>.cls-1{fill:#29295f;}</style></defs><title>versatility </title><path class="cls-1" d="M115.9309,72.4071h-2.7673v-61.13a10.4789,10.4789,0,0,0-20.9544-.38q-.0034.19,0,.38v.11h-22.89v-.11a10.4789,10.4789,0,0,0-20.9372-.9287q-.0206.464,0,.9287v.11H25.4782v-.11a10.4789,10.4789,0,0,0-20.9578,0v61.13H1.7565a1.2492,1.2492,0,1,0-.131,2.495,1.3009,1.3009,0,0,0,.131,0H115.9309a1.2492,1.2492,0,1,0,.131-2.495A1.3009,1.3009,0,0,0,115.9309,72.4071ZM69.3192,49.01H92.2264V61.9643H69.3192Zm22.9072-2.4879H69.3192V29.3353H92.2264Zm-22.89,17.9478h22.89v7.9377H69.3192Zm22.89-50.5873V26.837H69.3192V13.8821ZM25.4782,49.01H48.3648V61.9643H25.4782Zm22.8866-2.495H25.4782V29.3353H48.3648ZM25.4782,64.4627H48.3648V72.4H25.4782ZM48.3648,13.8751V26.83H25.4782V13.8821ZM7.0192,72.4071v-61.13a7.98,7.98,0,0,1,15.96-.0089V72.4071Zm43.8444,0v-61.13a7.98,7.98,0,0,1,15.96,0v61.13Zm43.8409,0v-61.13a7.9836,7.9836,0,0,1,15.9638-.3308q.0034.1653,0,.3308v61.13Z" transform="translate(-0.4416 -0.3357)"/><path class="cls-1" d="M14.9993,15.5361a1.2458,1.2458,0,0,0-1.2459,1.2458v6.4412a1.2494,1.2494,0,0,0,2.4953,0V16.7853a1.2493,1.2493,0,0,0-1.2494-1.2492Z" transform="translate(-0.4416 -0.3357)"/><path class="cls-1" d="M14.9993,51.5524a1.2459,1.2459,0,0,0-1.2459,1.2459V59.24a1.2494,1.2494,0,1,0,2.4953,0V52.8016A1.2493,1.2493,0,0,0,14.9993,51.5524Z" transform="translate(-0.4416 -0.3357)"/><path class="cls-1" d="M58.8437,15.5361a1.2492,1.2492,0,0,0-1.2493,1.2492h0v6.4378a1.2494,1.2494,0,0,0,2.4987,0V16.7853a1.2493,1.2493,0,0,0-1.2494-1.2492Z" transform="translate(-0.4416 -0.3357)"/><path class="cls-1" d="M58.8437,51.5524a1.2492,1.2492,0,0,0-1.2493,1.2492h0V59.24a1.2494,1.2494,0,0,0,2.4987,0V52.8016A1.2493,1.2493,0,0,0,58.8437,51.5524Z" transform="translate(-0.4416 -0.3357)"/><path class="cls-1" d="M102.6847,15.5361a1.2459,1.2459,0,0,0-1.246,1.2458v6.4412a1.2494,1.2494,0,0,0,2.4954,0V16.7853A1.2493,1.2493,0,0,0,102.6847,15.5361Z" transform="translate(-0.4416 -0.3357)"/><path class="cls-1" d="M102.6847,51.5524a1.246,1.246,0,0,0-1.246,1.2459V59.24a1.2494,1.2494,0,1,0,2.4954,0V52.8016A1.2493,1.2493,0,0,0,102.6847,51.5524Z" transform="translate(-0.4416 -0.3357)"/></svg>