<svg id="versatility2" width="103" height="74" xmlns="http://www.w3.org/2000/svg" viewBox="0 0 102.0385 73.4553"><defs><style>.cls-1{fill:#29295f;fill-rule:evenodd;}</style></defs><title>versatility2</title><path class="cls-1" d="M9.077,70.4767H5.4721v-1.43a12.056,12.056,0,0,1-3.47-2.224,7.693,7.693,0,0,1-1.1-1.2983c-.04.06-.09.1153-.1316.1742V58.9805c.0423.0592.0912.1145.1316.1745A7.7006,7.7006,0,0,1,1.975,57.8821a11.99,11.99,0,0,1,3.4971-2.2506V54.1856H9.0686a8.9024,8.9024,0,0,0,2.1092-1.4989,4.1916,4.1916,0,0,0,1.4227-2.9411L12.6,49.741l.0006-.0038A4.2075,4.2075,0,0,0,11.2038,46.8a8.653,8.653,0,0,0-2.1233-1.5132H5.4721v-1.432a12.0651,12.0651,0,0,1-3.47-2.2233,7.7,7.7,0,0,1-1.1-1.2994c-.04.06-.09.1149-.1316.1741V33.79c.0423.0592.0912.1146.1316.1745A7.72,7.72,0,0,1,1.975,32.691a12.0067,12.0067,0,0,1,3.4971-2.2517V28.9957H9.0648a8.9193,8.9193,0,0,0,2.113-1.5,4.1947,4.1947,0,0,0,1.4227-2.9422L12.6,24.5491l.0006-.0038a4.205,4.205,0,0,0-1.3967-2.936,8.6517,8.6517,0,0,0-2.1207-1.5125H5.4721V18.6632a12.0461,12.0461,0,0,1-3.47-2.2233,7.7383,7.7383,0,0,1-1.1-1.2986c-.04.06-.09.1153-.1316.1741V8.5979c.0423.0589.0912.1146.1316.1746A7.7181,7.7181,0,0,1,1.975,7.4988,12.0044,12.0044,0,0,1,5.4721,5.2482V3.8054h3.59a8.87,8.87,0,0,0,2.1153-1.5017A4.998,4.998,0,0,0,12.3744.5445h2.5111a5.0284,5.0284,0,0,0,1.1958,1.76A8.9211,8.9211,0,0,0,18.196,3.8054h3.5922V5.2482a12.0177,12.0177,0,0,1,3.4954,2.2506,7.69,7.69,0,0,1,1.0733,1.2737A7.717,7.717,0,0,1,27.43,7.5a11.9892,11.9892,0,0,1,3.4965-2.2518V3.8054h3.5907a8.8983,8.8983,0,0,0,2.115-1.5021A5.0062,5.0062,0,0,0,37.8279.5445H40.34a5.0128,5.0128,0,0,0,1.196,1.7592A8.8964,8.8964,0,0,0,43.65,3.8054h3.5932v1.444a12.0032,12.0032,0,0,1,3.4952,2.2494,7.6777,7.6777,0,0,1,1.0729,1.2729,7.7344,7.7344,0,0,1,1.0743-1.2729,12.0124,12.0124,0,0,1,3.4959-2.2506V3.8054h3.5915a8.84,8.84,0,0,0,2.1133-1.5017A4.9937,4.9937,0,0,0,63.2831.5445h2.5117a5.0231,5.0231,0,0,0,1.196,1.7592,8.8823,8.8823,0,0,0,2.1147,1.5017h3.5927V5.2486a12.0219,12.0219,0,0,1,3.4946,2.25A7.7061,7.7061,0,0,1,77.267,8.7725,7.7219,7.7219,0,0,1,78.34,7.4988a12.0144,12.0144,0,0,1,3.4967-2.2506V3.8054h3.59a8.86,8.86,0,0,0,2.1147-1.5017A5.0153,5.0153,0,0,0,88.7382.5445H91.25a5.0075,5.0075,0,0,0,1.1971,1.7588A8.8832,8.8832,0,0,0,94.56,3.8054h3.5919V5.2482a12.02,12.02,0,0,1,3.4959,2.2506,7.6958,7.6958,0,0,1,1.0737,1.2729c.0269-.04.06-.0765.0875-.1161v6.6006c-.0276-.0392-.0606-.0761-.0875-.1157a7.7611,7.7611,0,0,1-1.101,1.2994,12.0556,12.0556,0,0,1-3.4686,2.2233v1.4336H94.54a8.6237,8.6237,0,0,0-2.12,1.5125,4.2067,4.2067,0,0,0-1.3971,2.936l.0006.0031-.0006.0054a4.1978,4.1978,0,0,0,1.4241,2.9422,8.8776,8.8776,0,0,0,2.1114,1.5h3.5939V30.44a11.9993,11.9993,0,0,1,3.4959,2.2513,7.7,7.7,0,0,1,1.0737,1.2729c.0268-.04.06-.0769.0875-.1164v6.6c-.0274-.0392-.06-.0753-.0869-.1149a7.8135,7.8135,0,0,1-1.1016,1.2994,12.0236,12.0236,0,0,1-3.4686,2.2221v1.4332H94.5433A8.6175,8.6175,0,0,0,92.42,46.8a4.2083,4.2083,0,0,0-1.3971,2.9361l.0006.0046-.0006.0046a4.1975,4.1975,0,0,0,1.4241,2.9411,8.8444,8.8444,0,0,0,2.1082,1.4989h3.5971v1.4459a11.9917,11.9917,0,0,1,3.4959,2.2506,7.6847,7.6847,0,0,1,1.0737,1.2737c.0268-.04.06-.0769.0875-.1165V65.64c-.0276-.0392-.0607-.0761-.0875-.1157a7.7606,7.7606,0,0,1-1.101,1.2987,12.05,12.05,0,0,1-3.4686,2.2229v1.4309H94.5464A8.6025,8.6025,0,0,0,92.42,71.9914,4.7684,4.7684,0,0,0,91.1636,74h-2.34a4.7711,4.7711,0,0,0-1.2552-2.0084,8.6311,8.6311,0,0,0-2.1274-1.5147H81.8366V69.0458a12.0119,12.0119,0,0,1-3.4686-2.2229,7.7357,7.7357,0,0,1-1.101-1.3,7.7457,7.7457,0,0,1-1.1011,1.3,12.0369,12.0369,0,0,1-3.4677,2.2229v1.4309H69.0907a8.6309,8.6309,0,0,0-2.1268,1.5147A4.7741,4.7741,0,0,0,65.71,74H63.3687a4.7756,4.7756,0,0,0-1.2553-2.0076,8.606,8.606,0,0,0-2.1265-1.5155H56.3814v-1.43a12.0585,12.0585,0,0,1-3.4688-2.224,7.7785,7.7785,0,0,1-1.1014-1.2983,7.66,7.66,0,0,1-1.1,1.2987,12.0579,12.0579,0,0,1-3.4682,2.2229v1.4309H43.636a8.6563,8.6563,0,0,0-2.1266,1.5147A4.7727,4.7727,0,0,0,40.2542,74h-2.34a4.7824,4.7824,0,0,0-1.254-2.0084,8.646,8.646,0,0,0-2.1265-1.5147H30.9269V69.0458a12.0333,12.0333,0,0,1-3.47-2.2233,7.7762,7.7762,0,0,1-1.1-1.2991,7.7957,7.7957,0,0,1-1.0995,1.3,12.052,12.052,0,0,1-3.4692,2.2229v1.4309H18.1806a8.6447,8.6447,0,0,0-2.1263,1.5147A4.786,4.786,0,0,0,14.8,74H12.46a4.76,4.76,0,0,0-1.2559-2.0084A8.6064,8.6064,0,0,0,9.077,70.4767Zm.9879-39.6914v1.5609H6.23A9.9625,9.9625,0,0,0,3.4026,34.165a4.18,4.18,0,0,0-1.472,2.9741l.001.0085-.001.0092a4.188,4.188,0,0,0,1.493,2.9937,9.9724,9.9724,0,0,0,2.7781,1.7862h3.8632v1.5524a10.66,10.66,0,0,1,2.5989,1.8676,7.75,7.75,0,0,1,.9658,1.18,7.74,7.74,0,0,1,.9649-1.1791,10.6825,10.6825,0,0,1,2.601-1.8688V41.9367h3.8607a9.9664,9.9664,0,0,0,2.7787-1.7862,4.17,4.17,0,0,0,1.4918-3.0018,4.162,4.162,0,0,0-1.4715-2.9837A9.9268,9.9268,0,0,0,21.03,32.3462H17.1955v-1.56a10.9222,10.9222,0,0,1-2.5631-1.8369A7.7862,7.7862,0,0,1,13.63,27.7355a7.7386,7.7386,0,0,1-1.0019,1.2125A10.9354,10.9354,0,0,1,10.0649,30.7853Zm13.79-21.8118a9.9244,9.9244,0,0,0-2.8218-1.8176H17.1955V5.5946a10.9563,10.9563,0,0,1-2.5631-1.8377A7.7868,7.7868,0,0,1,13.63,2.5451a7.7872,7.7872,0,0,1-1.0019,1.2122,10.9457,10.9457,0,0,1-2.5628,1.8369V7.1559h-3.84a9.9689,9.9689,0,0,0-2.822,1.818,4.1776,4.1776,0,0,0-1.472,2.9745l.001.0089-.001.0088a4.1893,4.1893,0,0,0,1.493,2.9933,9.9676,9.9676,0,0,0,2.7825,1.7869h3.8588v1.5513a10.6624,10.6624,0,0,1,2.5989,1.8677,7.7427,7.7427,0,0,1,.9658,1.1791,7.78,7.78,0,0,1,.9649-1.18,10.66,10.66,0,0,1,2.601-1.8673V16.7463h3.8593a9.9723,9.9723,0,0,0,2.78-1.7869,4.1732,4.1732,0,0,0,1.4918-3.0029A4.1618,4.1618,0,0,0,23.8552,8.9735ZM25.2574,16.44a12.0592,12.0592,0,0,1-3.4692,2.2233v1.4336H18.1758a8.6322,8.6322,0,0,0-2.1215,1.5125,4.2157,4.2157,0,0,0-1.3957,2.94,4.2018,4.2018,0,0,0,1.4227,2.9469,8.9254,8.9254,0,0,0,2.1121,1.5h3.5948V30.44a12.0294,12.0294,0,0,1,3.4954,2.2513,7.7061,7.7061,0,0,1,1.0739,1.2729A7.7043,7.7043,0,0,1,27.43,32.691a12.0033,12.0033,0,0,1,3.4965-2.2517V28.9957H34.52a8.9037,8.9037,0,0,0,2.1129-1.5,4.1935,4.1935,0,0,0,1.4218-2.9461,4.2075,4.2075,0,0,0-1.3946-2.94,8.6519,8.6519,0,0,0-2.1216-1.5125H30.9269V18.6632a12.0628,12.0628,0,0,1-3.47-2.2233,7.7371,7.7371,0,0,1-1.1-1.2986A7.7379,7.7379,0,0,1,25.2574,16.44Zm2.1293,20.7177a4.1807,4.1807,0,0,0,1.493,2.9929,9.957,9.957,0,0,0,2.778,1.7862H35.52v1.5524a10.6017,10.6017,0,0,1,2.5978,1.8688,7.648,7.648,0,0,1,.9663,1.1783,7.6242,7.6242,0,0,1,.9656-1.1783,10.658,10.658,0,0,1,2.6-1.87V41.9367h3.8618a9.9359,9.9359,0,0,0,2.7776-1.7862,4.1819,4.1819,0,0,0,1.4938-3.0022A4.1659,4.1659,0,0,0,49.31,34.165a9.907,9.907,0,0,0-2.8247-1.8188H42.65V30.7857a10.9457,10.9457,0,0,1-2.5626-1.8377,7.696,7.696,0,0,1-1.0031-1.2121,7.7726,7.7726,0,0,1-1.0019,1.2129A10.9447,10.9447,0,0,1,35.52,30.7853v1.5609H31.6831a9.9192,9.9192,0,0,0-2.824,1.82A4.1627,4.1627,0,0,0,27.3867,37.14l0,.0092ZM49.31,8.9735a9.9047,9.9047,0,0,0-2.8216-1.8176H42.65V5.5946a10.9433,10.9433,0,0,1-2.5626-1.8369,7.738,7.738,0,0,1-1.0031-1.2129,7.807,7.807,0,0,1-1.0019,1.2125A10.924,10.924,0,0,1,35.52,5.5946V7.1559H31.6815a9.9352,9.9352,0,0,0-2.8224,1.8176,4.1671,4.1671,0,0,0-1.4724,2.9745l0,.0085,0,.0088a4.1815,4.1815,0,0,0,1.493,2.9941,9.9194,9.9194,0,0,0,2.7792,1.7869H35.52v1.5513a10.6257,10.6257,0,0,1,2.5978,1.868,7.6643,7.6643,0,0,1,.9663,1.18,7.6758,7.6758,0,0,1,.9656-1.18,10.6669,10.6669,0,0,1,2.6-1.8681V16.7463h3.8586a9.9717,9.9717,0,0,0,2.7808-1.7869,4.1807,4.1807,0,0,0,1.4938-3.0029A4.1679,4.1679,0,0,0,49.31,8.9735Zm1.4016,7.4657a12.05,12.05,0,0,1-3.4682,2.224v1.4336H43.63a8.6654,8.6654,0,0,0-2.121,1.5121,4.2118,4.2118,0,0,0-1.3961,2.9364l.0006.0038-.0006.0054a4.2026,4.2026,0,0,0,1.4228,2.9415,8.8988,8.8988,0,0,0,2.1124,1.5h3.5946V30.44A12.0221,12.0221,0,0,1,50.7383,32.69a7.6217,7.6217,0,0,1,1.0729,1.2736,7.7287,7.7287,0,0,1,1.0743-1.2729,11.9922,11.9922,0,0,1,3.4959-2.2517V28.9957h3.5929a8.8912,8.8912,0,0,0,2.1119-1.5A4.193,4.193,0,0,0,63.51,24.5491a4.21,4.21,0,0,0-1.3961-2.94,8.6456,8.6456,0,0,0-2.1218-1.5125h-3.61V18.664A12.0608,12.0608,0,0,1,52.9126,16.44a7.75,7.75,0,0,1-1.1014-1.2994A7.7789,7.7789,0,0,1,50.7113,16.4392Zm21.256,25.4975a9.92,9.92,0,0,0,2.7758-1.7862,4.1782,4.1782,0,0,0,1.494-2.9975l-.0006-.0043.0006-.0038a4.1637,4.1637,0,0,0-1.4728-2.9791,9.9234,9.9234,0,0,0-2.824-1.82H68.1052v-1.56a10.8787,10.8787,0,0,1-2.5637-1.8381,7.6781,7.6781,0,0,1-1.0021-1.2121,7.74,7.74,0,0,1-1.003,1.2121,10.9327,10.9327,0,0,1-2.5622,1.8377v1.5605H57.1389a9.9188,9.9188,0,0,0-2.8249,1.8184,4.1687,4.1687,0,0,0-1.4727,2.9837,4.1774,4.1774,0,0,0,1.4935,3.0026,9.973,9.973,0,0,0,2.7773,1.7858h3.8621v1.5524a10.6555,10.6555,0,0,1,2.6,1.868,7.7491,7.7491,0,0,1,.9654,1.1791,7.7336,7.7336,0,0,1,.9651-1.18,10.6827,10.6827,0,0,1,2.6007-1.8688V41.9367Zm4.27-29.9841a4.1659,4.1659,0,0,0-1.4728-2.9791,9.9277,9.9277,0,0,0-2.8214-1.8176H68.1052V5.595a10.9422,10.9422,0,0,1-2.5637-1.8373,7.7316,7.7316,0,0,1-1.0021-1.2126,7.7721,7.7721,0,0,1-1.003,1.2115,10.9238,10.9238,0,0,1-2.5622,1.8376V7.1559H57.1351A9.9429,9.9429,0,0,0,54.314,8.9735a4.1646,4.1646,0,0,0-1.4727,2.983,4.1747,4.1747,0,0,0,1.4935,3.0029,9.9321,9.9321,0,0,0,2.78,1.7869h3.8589v1.5509a10.6773,10.6773,0,0,1,2.6,1.8673,7.7777,7.7777,0,0,1,.9662,1.1806,7.6663,7.6663,0,0,1,.9643-1.1795,10.6444,10.6444,0,0,1,2.6007-1.8684V16.7463h3.8576a9.9148,9.9148,0,0,0,2.78-1.7869,4.179,4.179,0,0,0,1.494-2.9979l-.0006-.005ZM76.1659,16.44a12.0588,12.0588,0,0,1-3.4677,2.2233v1.4336H69.0858a8.6463,8.6463,0,0,0-2.1219,1.5125,4.2221,4.2221,0,0,0-1.3958,2.9314v.0177a4.1994,4.1994,0,0,0,1.4227,2.9368,8.8717,8.8717,0,0,0,2.1124,1.5h3.595V30.44a12.0219,12.0219,0,0,1,3.4946,2.25,7.67,7.67,0,0,1,1.0742,1.2736A7.6951,7.6951,0,0,1,78.34,32.69a12.0033,12.0033,0,0,1,3.4967-2.25v-1.444h3.5926a8.8922,8.8922,0,0,0,2.1123-1.5009,4.1986,4.1986,0,0,0,1.424-2.941L88.964,24.55l.0015-.0046a4.2128,4.2128,0,0,0-1.3968-2.936,8.66,8.66,0,0,0-2.1216-1.5125H81.8366V18.6632A12.0337,12.0337,0,0,1,78.368,16.44a7.71,7.71,0,0,1-1.101-1.2994A7.757,7.757,0,0,1,76.1659,16.44ZM93.56,18.2972V16.7463h3.8579a9.9588,9.9588,0,0,0,2.7806-1.7869,4.1859,4.1859,0,0,0,1.4938-3.0029,4.1716,4.1716,0,0,0-1.4732-2.9826,9.9236,9.9236,0,0,0-2.8218-1.818H93.56V5.5946a10.9167,10.9167,0,0,1-2.563-1.8369,7.7247,7.7247,0,0,1-1.0035-1.2126,7.7109,7.7109,0,0,1-1.0028,1.2118A10.918,10.918,0,0,1,86.43,5.5942V7.1559H82.59a9.9284,9.9284,0,0,0-2.8206,1.818,4.1628,4.1628,0,0,0-1.4732,2.9826A4.1763,4.1763,0,0,0,79.789,14.96a9.9533,9.9533,0,0,0,2.78,1.7865h3.86v1.5521a10.6721,10.6721,0,0,1,2.5982,1.8672,7.6687,7.6687,0,0,1,.9661,1.18,7.6865,7.6865,0,0,1,.9659-1.18A10.6682,10.6682,0,0,1,93.56,18.2972Zm0,25.1911V41.9367h3.862a9.9388,9.9388,0,0,0,2.7765-1.7862,4.184,4.184,0,0,0,1.4938-3.0029,4.1716,4.1716,0,0,0-1.4732-2.9826,9.9249,9.9249,0,0,0-2.8237-1.8188H93.56V30.7857a10.9069,10.9069,0,0,1-2.563-1.8365,7.7159,7.7159,0,0,1-1.0035-1.2133,7.7443,7.7443,0,0,1-1.0028,1.2133A10.9029,10.9029,0,0,1,86.43,30.7853v1.5609H82.593a9.9134,9.9134,0,0,0-2.8239,1.8188,4.1631,4.1631,0,0,0-1.4732,2.9837,4.1748,4.1748,0,0,0,1.4931,3.0022,9.9733,9.9733,0,0,0,2.7776,1.7858H86.43V43.49a10.6494,10.6494,0,0,1,2.5982,1.8676,7.6773,7.6773,0,0,1,.9661,1.1791,7.7393,7.7393,0,0,1,.9659-1.18A10.6877,10.6877,0,0,1,93.56,43.4883ZM79.789,65.342a9.9533,9.9533,0,0,0,2.7762,1.7842H86.43V68.68a10.6706,10.6706,0,0,1,2.5982,1.8676,7.6859,7.6859,0,0,1,.9661,1.18,7.69,7.69,0,0,1,.9659-1.1807,10.6747,10.6747,0,0,1,2.6-1.8676V67.1262h3.8646a9.91,9.91,0,0,0,2.7739-1.785,3.76,3.76,0,0,0,.0206-5.9851,9.9233,9.9233,0,0,0-2.827-1.82H93.56V55.9775A10.9188,10.9188,0,0,1,90.997,54.14a7.6568,7.6568,0,0,1-1.0035-1.2126A7.7211,7.7211,0,0,1,88.9907,54.14,10.9209,10.9209,0,0,1,86.43,55.9772v1.5589h-3.834a9.9125,9.9125,0,0,0-2.8264,1.82,3.7615,3.7615,0,0,0,.02,5.9859Zm-1.4491-7.46a12,12,0,0,1,3.4967-2.2506V54.1856h3.5963a8.8839,8.8839,0,0,0,2.1086-1.4989,4.2018,4.2018,0,0,0,1.424-2.9411l-.0015-.0046.0015-.0038a4.2144,4.2144,0,0,0-1.3968-2.9365,8.6394,8.6394,0,0,0-2.1233-1.5136H81.8366V43.8558A12.0306,12.0306,0,0,1,78.368,41.631a7.71,7.71,0,0,1-1.101-1.2994,7.7135,7.7135,0,0,1-1.1011,1.2994,12.0479,12.0479,0,0,1-3.4677,2.2241v1.432H69.0887a8.6516,8.6516,0,0,0-2.1248,1.5136,4.2187,4.2187,0,0,0-1.3958,2.93v.0181a4.2015,4.2015,0,0,0,1.4227,2.9376,8.8875,8.8875,0,0,0,2.11,1.4989h3.5977v1.4456a11.9762,11.9762,0,0,1,3.4946,2.2509A7.7106,7.7106,0,0,1,77.267,59.155,7.7167,7.7167,0,0,1,78.34,57.8821Zm-24.0051,7.46a9.9356,9.9356,0,0,0,2.7741,1.7842h3.8653V68.68a10.6261,10.6261,0,0,1,2.6,1.8688,7.7442,7.7442,0,0,1,.9654,1.1791,7.7735,7.7735,0,0,1,.9651-1.18A10.6474,10.6474,0,0,1,68.1052,68.68v-1.554H71.97a9.9184,9.9184,0,0,0,2.7732-1.7842,4.1779,4.1779,0,0,0,1.494-2.9984l-.0006-.0042.0006-.0046a4.1685,4.1685,0,0,0-1.4728-2.9787,9.9046,9.9046,0,0,0-2.8279-1.82H68.1052V55.9775A10.9,10.9,0,0,1,65.5415,54.14a7.7151,7.7151,0,0,1-1.0021-1.2122,7.7451,7.7451,0,0,1-1.003,1.2129,10.9093,10.9093,0,0,1-2.5622,1.8366v1.5589H57.1409a9.9368,9.9368,0,0,0-2.8269,1.82,3.7611,3.7611,0,0,0,.0208,5.9855Zm-1.4493-7.46a11.9665,11.9665,0,0,1,3.4959-2.25V54.1856h3.5967a8.89,8.89,0,0,0,2.1081-1.4989A3.7774,3.7774,0,0,0,62.1134,46.8,8.6606,8.6606,0,0,0,59.99,45.2871H56.3814v-1.432a12.076,12.076,0,0,1-3.4688-2.2233,7.77,7.77,0,0,1-1.1014-1.2994,7.7217,7.7217,0,0,1-1.1,1.2986,12.0242,12.0242,0,0,1-3.4682,2.2229v1.4332h-3.61a8.646,8.646,0,0,0-2.124,1.5136,4.2111,4.2111,0,0,0-1.3961,2.9357l.0006.0046-.0006.0042a4.1945,4.1945,0,0,0,1.4228,2.9407,8.8687,8.8687,0,0,0,2.11,1.5h3.5972v1.4459a12.01,12.01,0,0,1,3.4952,2.2506,7.7158,7.7158,0,0,1,1.0729,1.2725A7.7056,7.7056,0,0,1,52.8855,57.8817ZM27.3867,62.3483A4.1809,4.1809,0,0,0,28.88,65.342a9.9312,9.9312,0,0,0,2.7748,1.7842H35.52V68.68a10.63,10.63,0,0,1,2.5978,1.8676,7.6405,7.6405,0,0,1,.9663,1.18,7.6546,7.6546,0,0,1,.9656-1.18,10.6454,10.6454,0,0,1,2.6-1.868V67.1262h3.8641a9.9343,9.9343,0,0,0,2.7753-1.7842,3.7609,3.7609,0,0,0,.02-5.9859,9.8987,9.8987,0,0,0-2.8274-1.82H42.65V55.9775A10.9138,10.9138,0,0,1,40.0872,54.14a7.6805,7.6805,0,0,1-1.0025-1.2126A7.8085,7.8085,0,0,1,38.0822,54.14,10.95,10.95,0,0,1,35.52,55.9772v1.5589H31.687a9.9509,9.9509,0,0,0-2.8279,1.82,4.1615,4.1615,0,0,0-1.4724,2.9745l0,.0084Zm-1.0292-3.1925A7.6891,7.6891,0,0,1,27.43,57.8821a11.9785,11.9785,0,0,1,3.4965-2.2506V54.1856h3.5957a8.9218,8.9218,0,0,0,2.11-1.4989,3.7795,3.7795,0,0,0,.0272-5.886,8.6644,8.6644,0,0,0-2.1236-1.5136H30.9269v-1.432a12.0434,12.0434,0,0,1-3.47-2.2241,7.789,7.789,0,0,1-1.1-1.2986,7.7713,7.7713,0,0,1-1.0995,1.2982,12.0723,12.0723,0,0,1-3.4692,2.2245v1.432h-3.609A8.6616,8.6616,0,0,0,16.0543,46.8a3.7781,3.7781,0,0,0,.027,5.8863,8.8946,8.8946,0,0,0,2.1106,1.5h3.5963v1.4459a12.0045,12.0045,0,0,1,3.4954,2.25A7.6812,7.6812,0,0,1,26.3575,59.1558ZM12.6638,70.5486a7.704,7.704,0,0,1,.9658,1.1791,7.7066,7.7066,0,0,1,.9649-1.18,10.651,10.651,0,0,1,2.601-1.868V67.1262h3.8651a9.9615,9.9615,0,0,0,2.7743-1.7838,3.7642,3.7642,0,0,0,.02-5.9863,9.9415,9.9415,0,0,0-2.8273-1.82H17.1955V55.9775a10.9341,10.9341,0,0,1-2.5631-1.838A7.75,7.75,0,0,1,13.63,52.9277,7.759,7.759,0,0,1,12.6277,54.14a10.9047,10.9047,0,0,1-2.5628,1.8376v1.5586H6.2319a9.9666,9.9666,0,0,0-2.8293,1.82A4.1815,4.1815,0,0,0,1.9306,62.33l.001.0092-.001.0085a4.1916,4.1916,0,0,0,1.493,2.9945,9.9609,9.9609,0,0,0,2.7749,1.7838h3.8664V68.68A10.6406,10.6406,0,0,1,12.6638,70.5486Z" transform="translate(-0.7708 -0.5445)"/></svg>