<svg id="vinyl_" xmlns="http://www.w3.org/2000/svg" xmlns:xlink="http://www.w3.org/1999/xlink" viewBox="0 0 72.192 53.013"><defs><style>.cls-1{fill:none;}.cls-2{clip-path:url(#clip-path);}.cls-3{fill:#eeb300;}.cls-4{opacity:0.5;}.cls-5{clip-path:url(#clip-path-3);}.cls-6{fill:#a56202;}.cls-7{clip-path:url(#clip-path-5);}.cls-8{clip-path:url(#clip-path-7);}.cls-9{clip-path:url(#clip-path-9);}.cls-10{clip-path:url(#clip-path-11);}.cls-11{clip-path:url(#clip-path-13);}.cls-12{clip-path:url(#clip-path-15);}.cls-13{clip-path:url(#clip-path-17);}.cls-14{clip-path:url(#clip-path-19);}.cls-15{clip-path:url(#clip-path-21);}.cls-16{clip-path:url(#clip-path-23);}.cls-17{clip-path:url(#clip-path-25);}</style><clipPath id="clip-path" transform="translate(0 0.0003)"><rect class="cls-1" width="72.1918" height="53.0127"/></clipPath><clipPath id="clip-path-3" transform="translate(0 0.0003)"><rect class="cls-1" x="57.334" y="1.9063" width="1.4307" height="49.2002"/></clipPath><clipPath id="clip-path-5" transform="translate(0 0.0003)"><rect class="cls-1" x="51.1143" y="1.9063" width="1.4297" height="49.2002"/></clipPath><clipPath id="clip-path-7" transform="translate(0 0.0003)"><rect class="cls-1" x="44.8936" y="1.9063" width="1.4306" height="49.2002"/></clipPath><clipPath id="clip-path-9" transform="translate(0 0.0003)"><rect class="cls-1" x="38.6738" y="1.9063" width="1.4307" height="49.2002"/></clipPath><clipPath id="clip-path-11" transform="translate(0 0.0003)"><rect class="cls-1" x="32.4531" y="1.9063" width="1.4317" height="49.2002"/></clipPath><clipPath id="clip-path-13" transform="translate(0 0.0003)"><rect class="cls-1" x="26.2334" y="1.9063" width="1.4307" height="49.2002"/></clipPath><clipPath id="clip-path-15" transform="translate(0 0.0003)"><rect class="cls-1" x="20.0137" y="1.9063" width="1.4306" height="49.2002"/></clipPath><clipPath id="clip-path-17" transform="translate(0 0.0003)"><rect class="cls-1" x="13.794" y="1.9063" width="1.4306" height="49.2002"/></clipPath><clipPath id="clip-path-19" transform="translate(0 0.0003)"><rect class="cls-1" x="7.5733" y="1.9063" width="1.4316" height="49.2002"/></clipPath><clipPath id="clip-path-21" transform="translate(0 0.0003)"><rect class="cls-1" x="1.3535" y="1.9063" width="1.4307" height="49.2002"/></clipPath><clipPath id="clip-path-23" transform="translate(0 0.0003)"><rect class="cls-1" x="69.4076" y="1.9063" width="1.4307" height="49.2002"/></clipPath><clipPath id="clip-path-25" transform="translate(0 0.0003)"><rect class="cls-1" x="63.1879" y="1.9063" width="1.4297" height="49.2002"/></clipPath></defs><title>vinyl_fence</title><g class="cls-2"><rect class="cls-3" x="55.979" width="4.139" height="53.013"/><g class="cls-2"><g class="cls-4"><g class="cls-5"><rect class="cls-6" x="57.334" y="1.907" width="1.431" height="49.2"/></g></g></g><rect class="cls-3" x="49.76" width="4.138" height="53.013"/><g class="cls-2"><g class="cls-4"><g class="cls-7"><rect class="cls-6" x="51.114" y="1.907" width="1.43" height="49.2"/></g></g></g><rect class="cls-3" x="43.54" width="4.138" height="53.013"/><g class="cls-2"><g class="cls-4"><g class="cls-8"><rect class="cls-6" x="44.894" y="1.907" width="1.431" height="49.2"/></g></g></g><rect class="cls-3" x="37.32" width="4.137" height="53.013"/><g class="cls-2"><g class="cls-4"><g class="cls-9"><rect class="cls-6" x="38.674" y="1.907" width="1.431" height="49.2"/></g></g></g><rect class="cls-3" x="31.1" width="4.139" height="53.013"/><g class="cls-2"><g class="cls-4"><g class="cls-10"><rect class="cls-6" x="32.453" y="1.907" width="1.432" height="49.2"/></g></g></g><rect class="cls-3" x="24.88" width="4.139" height="53.013"/><g class="cls-2"><g class="cls-4"><g class="cls-11"><rect class="cls-6" x="26.233" y="1.907" width="1.431" height="49.2"/></g></g></g><rect class="cls-3" x="18.661" width="4.138" height="53.013"/><g class="cls-2"><g class="cls-4"><g class="cls-12"><rect class="cls-6" x="20.014" y="1.907" width="1.431" height="49.2"/></g></g></g><rect class="cls-3" x="12.441" width="4.137" height="53.013"/><g class="cls-2"><g class="cls-4"><g class="cls-13"><rect class="cls-6" x="13.794" y="1.907" width="1.431" height="49.2"/></g></g></g><rect class="cls-3" x="6.22" width="4.138" height="53.013"/><g class="cls-2"><g class="cls-4"><g class="cls-14"><rect class="cls-6" x="7.573" y="1.907" width="1.432" height="49.2"/></g></g></g><rect class="cls-3" width="4.137" height="53.013"/><g class="cls-2"><g class="cls-4"><g class="cls-15"><rect class="cls-6" x="1.354" y="1.907" width="1.431" height="49.2"/></g></g></g><polygon class="cls-6" points="55.979 0 55.979 0.939 60.118 0.474 60.118 0 55.979 0"/><polygon class="cls-6" points="49.76 0 49.76 0.939 53.898 0.474 53.898 0 49.76 0"/><rect class="cls-3" x="68.053" width="4.139" height="53.013"/><g class="cls-2"><g class="cls-4"><g class="cls-16"><rect class="cls-6" x="69.407" y="1.907" width="1.431" height="49.2"/></g></g></g><rect class="cls-3" x="61.833" width="4.139" height="53.013"/><g class="cls-2"><g class="cls-4"><g class="cls-17"><rect class="cls-6" x="63.188" y="1.907" width="1.43" height="49.2"/></g></g></g><polygon class="cls-6" points="68.053 0 68.053 0.939 72.192 0.474 72.192 0 68.053 0"/><polygon class="cls-6" points="61.833 0 61.833 0.939 65.972 0.474 65.972 0 61.833 0"/><polygon class="cls-6" points="43.54 0 43.54 0.939 47.678 0.474 47.678 0 43.54 0"/><polygon class="cls-6" points="37.32 0 37.32 0.939 41.457 0.474 41.457 0 37.32 0"/><polygon class="cls-6" points="31.1 0 31.1 0.939 35.238 0.474 35.238 0 31.1 0"/><polygon class="cls-6" points="24.88 0 24.88 0.939 29.019 0.474 29.019 0 24.88 0"/><polygon class="cls-6" points="18.661 0 18.661 0.939 22.799 0.474 22.799 0 18.661 0"/><polygon class="cls-6" points="12.441 0 12.441 0.939 16.578 0.474 16.578 0 12.441 0"/><polygon class="cls-6" points="6.22 0 6.22 0.939 10.358 0.474 10.358 0 6.22 0"/><polygon class="cls-6" points="0 0 0 0.939 4.137 0.474 4.137 0 0 0"/></g></svg>