<svg id="worker" width="68" height="84" xmlns="http://www.w3.org/2000/svg" viewBox="0 0 68.0001 84"><defs><style>.cls-1{fill:#282c64;fill-rule:evenodd;}</style></defs><title>worker</title><path class="cls-1" d="M0,83.9994l0-5.6517c.0055-.3152.2579-7.7862,11.03-13.36a40.1447,40.1447,0,0,1,6.1088-2.5387c.131-.07.3921-.2108.7468-.4067a34.8189,34.8189,0,0,0,6.2157-4.1211V53.7152C18.8721,50.7085,15.2944,45.31,14.15,38.7c-2.9633-.8537-5.5426-3.6519-5.5426-6.2261,0-2.605,1.9466-4.3343,5.1645-4.6924V25.9789H7.7468V24.68c0-1.6713,1.4412-8.0989,4.6424-8.2211A22.8788,22.8788,0,0,1,25.8228,2.38V-.0006H42.1771V2.38a22.892,22.892,0,0,1,13.4275,14.078c3.2055.1146,4.6485,6.5492,4.6485,8.2217v1.2988H54.2278v1.8023c3.2179.3581,5.1645,2.0874,5.1645,4.6924,0,2.5742-2.5793,5.3724-5.5426,6.2261-1.1432,6.6079-4.72,12.0064-9.951,15.0149v4.2065a34.8615,34.8615,0,0,0,6.2181,4.1226c.35.1929.6088.3328.7407.4038a40.162,40.162,0,0,1,6.1136,2.5064C67.8365,70.5108,67.9984,78.046,68,78.3645v5.6349ZM10.3291,68.3615c-7.37,4.54-7.7308,9.6742-7.7469,10.0317v3.0085h5.199a3.0463,3.0463,0,0,1-.0344-.4331v-3.464a3.0269,3.0269,0,0,1,2.5823-2.9961Zm6.886-3.1967a37.9332,37.9332,0,0,0-4.3038,1.7765v7.5326h4.3038ZM11.19,32.4736c0,1.0613,1.1408,2.5053,2.6281,3.3032-.0284-.5135-.0458-5.3844-.0458-5.3844C11.4709,30.717,11.19,31.9141,11.19,32.4736ZM25.8228,5.1874A20.2932,20.2932,0,0,0,15.1353,16.4531H25.8228Zm13.7721-2.59H28.405V16.4531h11.19Zm2.5822,2.5909V16.4531H52.8583A20.3033,20.3033,0,0,0,42.1771,5.1883ZM56.81,32.4736c0-.5595-.2812-1.7566-2.5823-2.0812,0,0-.0174,4.8709-.0458,5.3844C55.6693,34.98,56.81,33.5349,56.81,32.4736Zm.7037-9.0927c-.3934-1.8656-1.4314-4.102-2.024-4.33H12.51c-.5926.2279-1.6307,2.4643-2.024,4.33ZM51.4339,37.44a23.5052,23.5052,0,0,0,.2116-3.2346V25.9789H16.3544v8.2267a23.4861,23.4861,0,0,0,.2112,3.2313c.8885,6.4713,4.3217,11.7024,9.42,14.3546A17.08,17.08,0,0,0,34,53.69a17.0829,17.0829,0,0,0,8.0117-1.8968C47.1127,49.1393,50.546,43.9082,51.4339,37.44Zm-24.75,17.514V57.95c.8872.9264,3.7052,3.534,7.3164,3.534,3.6347,0,6.4334-2.6026,7.3165-3.5313V54.9542a20.7352,20.7352,0,0,1-14.6329,0Zm21.5189,8.99a40.7085,40.7085,0,0,1-5.55-3.6663A13.0431,13.0431,0,0,1,34,64.0821a13.0433,13.0433,0,0,1-8.6522-3.8044,40.7168,40.7168,0,0,1-5.55,3.6663v10.53h28.405Zm6.8862,2.9689a37.8794,37.8794,0,0,0-4.3038-1.754v9.315h4.3038ZM57.24,77.0718H10.7594a.4374.4374,0,0,0-.43.4328v3.464a.4376.4376,0,0,0,.43.4331H57.24a.4377.4377,0,0,0,.43-.4331v-3.464A.4374.4374,0,0,0,57.24,77.0718Zm8.1772,1.3114c-.0084-.302-.2676-5.5132-7.7468-10.0692v6.1945a3.0269,3.0269,0,0,1,2.5823,2.9961v3.464a3.0463,3.0463,0,0,1-.0344.4331h5.1989ZM32.7088,42.8654V35.9378h2.5823v5.6285H37.443v2.5982H34A1.2953,1.2953,0,0,1,32.7088,42.8654Z" transform="translate(0.0001 0.0006)"/></svg>